<svg xmlns="http://www.w3.org/2000/svg" viewBox="0 0 21.22 69.22"><defs><style>.cls-1,.cls-2,.cls-3{fill:#3e3d3d;}.cls-1,.cls-3{stroke:#f9f7f7;}.cls-1,.cls-3,.cls-4{stroke-miterlimit:10;}.cls-1{stroke-width:0.5px;}.cls-3{stroke-width:0.25px;}.cls-4{fill:none;stroke:#d53d3d;}.cls-5{fill:#d53d3d;}</style></defs><title>Asset 1</title><g id="Layer_2" data-name="Layer 2"><g id="person_w_bag" data-name="person w/ bag"><path class="cls-1" d="M3.43,38.8l.37,27C3.85,69.52,10,69.74,10,66L9.82,38.88Z"/><path class="cls-1" d="M11.45,39.2l.14,26.88c0,3.7,6.28,3.93,6.29.2l0-27Z"/><polygon class="cls-2" points="17.63 43.14 3.86 42.93 3.8 38.34 17.63 38.51 17.63 43.14"/><path class="cls-3" d="M4.63,40c1.13,3.91,6.59,1.37,4.12-2.18-2.87-4-3.53-9.15-2.84-15.34h.65c-.48,5.93.09,11.2,2.86,15.2l2.49.13a23.48,23.48,0,0,0,2.73-15.33h.62c.54,6.23-.34,11.5-2.34,14.74-3.08,3.18,2.41,6.49,4.05,2.95,5.14-8.29,6.39-20-1.67-25.76l-9.12.06C-2.07,17.19-1.2,30,4.63,40Z"/><g id="purse"><path class="cls-4" d="M15,43.4c0-7.19-8.46-7.27-8.39-.13"/><polygon class="cls-5" points="16.55 53.73 5.2 53.46 5.07 42.95 16.55 43.13 16.55 53.73"/></g><path class="cls-2" d="M16.86,6.8a6.64,6.64,0,0,1-6.34,6.85,6.56,6.56,0,0,1-6.36-6.7A6.65,6.65,0,0,1,10.44,0,6.55,6.55,0,0,1,16.86,6.8Z"/></g></g></svg>