<svg xmlns="http://www.w3.org/2000/svg" viewBox="0 0 106.37 68.74"><defs><style>.cls-1{fill:#d53d3d;}.cls-2{fill:none;stroke:#d53d3d;stroke-miterlimit:10;stroke-width:2.5px;}</style></defs><title>Asset 5</title><g id="Layer_2" data-name="Layer 2"><g id="Layer_4" data-name="Layer 4"><path id="welcome_map" data-name="welcome map" class="cls-1" d="M69.19,53.06s12.74-7.47,14.47-7.93,23.18,11,22.69,12.79S90.31,68.74,88.49,68.74,65,56.16,65,55.71,69.19,53.06,69.19,53.06Z"/></g><g id="art"><g id="Layer_27" data-name="Layer 27"><path class="cls-1" d="M4,29.39l4.57-8.24s.35-.51.91.11S12.11,25,12.11,25s.24.3.5-.1.52-.82.52-.82.27-.56.53,0c.16.31,1,1.89,1,1.89a.38.38,0,0,1-.2.37c-.24.11-9.66,4-9.66,4S3.35,30.52,4,29.39Z"/><path class="cls-1" d="M14.37,20c0,.93-.5,1.62-1.21,1.52a2.29,2.29,0,0,1-1.58-2.3c0-1.16.7-1.78,1.52-1.44A2.52,2.52,0,0,1,14.37,20Z"/><g id="Layer_30" data-name="Layer 30"><polygon class="cls-2" points="1.25 11.38 17.02 2.18 17.02 33.98 1.25 43.26 1.25 11.38"/></g></g></g></g></svg>