<svg xmlns="http://www.w3.org/2000/svg" viewBox="0 0 27.53 65.63"><defs><style>.cls-1,.cls-2,.cls-4{fill:#3e3d3d;}.cls-1{stroke:#fcfafa;}.cls-1,.cls-4,.cls-5{stroke-miterlimit:10;}.cls-1,.cls-4{stroke-width:0.25px;}.cls-3{fill:#fff;}.cls-4{stroke:#f9f2f2;}.cls-5{fill:none;stroke:#f4efef;}</style></defs><title>Asset 6</title><g id="Layer_2" data-name="Layer 2"><g id="doctor"><g id="feet"><rect class="cls-1" x="6.99" y="46.17" width="6.25" height="16.27"/><path class="cls-2" d="M13.11,62.82a2.9,2.9,0,0,1-3,2.8,2.9,2.9,0,0,1-3-2.8Z"/><rect class="cls-1" x="14.93" y="46.17" width="6.25" height="16.27"/><path class="cls-2" d="M21.17,62.82a3,3,0,0,1-3.12,2.8,3,3,0,0,1-3.12-2.8Z"/></g><g id="Layer_8" data-name="Layer 8"><circle class="cls-2" cx="13.77" cy="6.02" r="6.02"/></g><g id="Layer_9" data-name="Layer 9"><path class="cls-3" d="M19.56,2.6A1.61,1.61,0,1,1,17.94,1,1.61,1.61,0,0,1,19.56,2.6Z"/><path class="cls-3" d="M25.45,10.07"/><polygon class="cls-3" points="16.73 3.2 8.41 3.2 9.16 2.04 16.73 2.04 16.73 3.2"/><path class="cls-4" d="M3.15,39.44a3.73,3.73,0,0,1-3,0s-1-21,8.27-26a27.21,27.21,0,0,1,11.38,0s8,3.14,7.59,25.24a4,4,0,0,1-3.28,0S23.26,23,21.83,21.33,24,45,24,45s-9,6.56-20.25,0L6.29,21.33S4.58,21.33,3.15,39.44Z"/></g><g id="pockets_copy" data-name="pockets copy"><path class="cls-5" d="M16.33,38.37a20,20,0,0,0,4.48,0"/><path class="cls-5" d="M6.8,38.37a20,20,0,0,0,4.48,0"/></g></g></g></svg>