<svg xmlns="http://www.w3.org/2000/svg" viewBox="0 0 46.39 21.77"><defs><style>.cls-1,.cls-2{fill:none;}.cls-1{stroke:#3e3d3d;}.cls-1,.cls-2,.cls-5{stroke-miterlimit:10;}.cls-2,.cls-5{stroke:#d53d3d;}.cls-3{fill:#d53d3d;}.cls-4{fill:#f7f5f5;}.cls-5{fill:#f9f9f9;}</style></defs><title>Asset 2</title><g id="Layer_2" data-name="Layer 2"><g id="shelf"><polygon class="cls-1" points="13.86 2.11 45.08 15.73 31.02 21.22 1.23 7.51 13.86 2.11"/></g><g id="clean_syringes" data-name="clean syringes"><line class="cls-2" x1="16.19" y1="8.9" x2="18.96" y2="2.91"/><line class="cls-2" x1="17.87" y1="5.93" x2="22.74" y2="8.18"/><rect class="cls-3" x="27.99" y="2.94" width="5.55" height="18.62" transform="translate(6.72 35.02) rotate(-65.16)"/><line class="cls-2" x1="39.15" y1="15.93" x2="43.64" y2="18"/></g><g id="bandaid"><path class="cls-4" d="M6.77,6.65,8.54,2.7,5.11,1s-1.23-.46-2,1.53S3.33,5,3.33,5Z"/><path class="cls-4" d="M12.46,9.37l1.92-3.94L18,7.22s1.17.73.08,2.58-2,1.39-2,1.39Z"/><g id="dots"><g id="Layer_17_copy" data-name="Layer 17 copy"><rect class="cls-5" x="7.89" y="3.33" width="5.29" height="5.45" transform="translate(20.49 -0.91) rotate(115.16)"/></g><circle class="cls-3" cx="15.25" cy="6.69" r="0.32" transform="translate(-1.37 5.57) rotate(-19.84)"/><circle class="cls-3" cx="16.06" cy="7.07" r="0.32" transform="translate(-1.45 5.87) rotate(-19.84)"/><circle class="cls-3" cx="16.87" cy="7.45" r="0.32" transform="translate(-1.53 6.17) rotate(-19.84)"/><circle class="cls-3" cx="17.66" cy="7.85" r="0.32" transform="translate(-1.61 6.46) rotate(-19.84)"/><circle class="cls-3" cx="14.88" cy="7.5" r="0.32" transform="translate(-1.66 5.5) rotate(-19.84)"/><circle class="cls-3" cx="15.69" cy="7.88" r="0.32" transform="translate(-1.74 5.79) rotate(-19.84)"/><circle class="cls-3" cx="16.5" cy="8.26" r="0.32" transform="translate(-1.82 6.09) rotate(-19.84)"/><circle class="cls-3" cx="17.25" cy="8.67" r="0.32" transform="translate(-1.92 6.37) rotate(-19.84)"/><circle class="cls-3" cx="14.45" cy="8.33" r="0.32" transform="translate(-1.97 5.4) rotate(-19.84)"/><circle class="cls-3" cx="15.27" cy="8.71" r="0.32" transform="translate(-2.05 5.7) rotate(-19.84)"/><circle class="cls-3" cx="16.08" cy="9.09" r="0.32" transform="translate(-2.13 6) rotate(-19.84)"/><circle class="cls-3" cx="16.87" cy="9.48" r="0.32" transform="translate(-2.22 6.29) rotate(-19.84)"/><circle class="cls-3" cx="14.09" cy="9.13" r="0.32" transform="translate(-2.26 5.32) rotate(-19.84)"/><circle class="cls-3" cx="14.9" cy="9.52" r="0.32" transform="translate(-2.35 5.62) rotate(-19.84)"/><circle class="cls-3" cx="15.71" cy="9.9" r="0.32" transform="translate(-2.43 5.92) rotate(-19.84)"/><circle class="cls-3" cx="16.5" cy="10.29" r="0.32" transform="translate(-2.51 6.21) rotate(-19.84)"/><circle class="cls-3" cx="5.04" cy="1.65" r="0.32" transform="translate(-0.26 1.81) rotate(-19.84)"/><circle class="cls-3" cx="5.85" cy="2.03" r="0.32" transform="translate(-0.34 2.11) rotate(-19.84)"/><circle class="cls-3" cx="6.67" cy="2.42" r="0.32" transform="translate(-0.42 2.41) rotate(-19.84)"/><circle class="cls-3" cx="7.45" cy="2.81" r="0.32" transform="translate(-0.51 2.7) rotate(-19.84)"/><circle class="cls-3" cx="4.67" cy="2.46" r="0.32" transform="translate(-0.56 1.73) rotate(-19.84)"/><circle class="cls-3" cx="5.49" cy="2.84" r="0.32" transform="translate(-0.64 2.03) rotate(-19.84)"/><circle class="cls-3" cx="6.3" cy="3.22" r="0.32" transform="translate(-0.72 2.33) rotate(-19.84)"/><circle class="cls-3" cx="7.08" cy="3.61" r="0.32" transform="translate(-0.81 2.62) rotate(-19.84)"/><circle class="cls-3" cx="4.24" cy="3.29" r="0.32" transform="translate(-0.87 1.63) rotate(-19.84)"/><circle class="cls-3" cx="5.05" cy="3.67" r="0.32" transform="translate(-0.95 1.93) rotate(-19.84)"/><circle class="cls-3" cx="5.87" cy="4.05" r="0.32" transform="translate(-1.03 2.23) rotate(-19.84)"/><circle class="cls-3" cx="6.65" cy="4.45" r="0.32" transform="translate(-1.11 2.52) rotate(-19.84)"/><circle class="cls-3" cx="3.87" cy="4.1" r="0.32" transform="translate(-1.16 1.56) rotate(-19.84)"/><circle class="cls-3" cx="4.69" cy="4.48" r="0.32" transform="translate(-1.24 1.86) rotate(-19.84)"/><circle class="cls-3" cx="5.5" cy="4.86" r="0.32" transform="translate(-1.32 2.16) rotate(-19.84)"/><circle class="cls-3" cx="6.28" cy="5.25" r="0.32" transform="translate(-1.41 2.45) rotate(-19.84)"/></g><path class="cls-2" d="M3.41,5.59l12.27,5.86c2.18,1.11,4.59-3.61,2.41-4.72L5.41.62C3-.33,1,4.64,3.41,5.59Z"/></g></g></svg>