<?xml version="1.0" encoding="utf-8"?>
<!-- Generator: Adobe Illustrator 21.1.0, SVG Export Plug-In . SVG Version: 6.00 Build 0)  -->
<svg version="1.1" id="Layer_1" xmlns="http://www.w3.org/2000/svg" xmlns:xlink="http://www.w3.org/1999/xlink" x="0px" y="0px"
	 viewBox="0 0 81.6 73.6" style="enable-background:new 0 0 81.6 73.6;" xml:space="preserve">
<style type="text/css">
	.st0{fill:none;stroke:#D41111;stroke-width:5;stroke-miterlimit:10;}
	.st1{enable-background:new    ;}
	.st2{fill:#3E3D3D;}
</style>
<title>Asset 13</title>
<g id="Layer_2">
	<g id="Layer_12">
		<path class="st0" d="M48.6,69.2c-3.9,1.3-8,1.9-12.2,1.9c-45.3,0-45.3-68.6,0-68.6"/>
		<g class="st1">
			<path class="st2" d="M19.8,40.2c0.2,0.9,0.5,1.6,0.9,2.1c0.5,0.5,1.1,0.7,2,0.7c1,0,1.8-0.4,2.4-1.1c0.5-0.7,0.8-1.6,0.8-2.7
				c0-1.1-0.3-2-0.8-2.7c-0.5-0.7-1.3-1.1-2.4-1.1c-0.5,0-0.9,0.1-1.3,0.2c-0.7,0.2-1.1,0.7-1.5,1.3l-3.7-0.2l1.5-11.7h11.7v3.5
				h-8.7L20,33.1c0.6-0.4,1.1-0.7,1.5-0.8c0.6-0.2,1.3-0.3,2.2-0.3c1.8,0,3.3,0.6,4.6,1.8c1.3,1.2,2,2.9,2,5.2c0,2-0.6,3.7-1.9,5.3
				c-1.3,1.5-3.1,2.3-5.6,2.3c-2,0-3.7-0.5-5-1.6c-1.3-1.1-2-2.6-2.2-4.6H19.8z"/>
			<path class="st2" d="M42.5,30c0-0.3-0.1-0.7-0.4-1.1c-0.4-0.7-1.1-1-2-1c-1.4,0-2.3,0.8-2.9,2.3c-0.3,0.8-0.5,2.1-0.6,3.7
				c0.5-0.6,1.1-1.1,1.8-1.3s1.5-0.4,2.3-0.4c1.9,0,3.4,0.6,4.6,1.9s1.8,2.9,1.8,4.9c0,2-0.6,3.7-1.8,5.2s-3,2.3-5.5,2.3
				c-2.7,0-4.6-1.1-5.9-3.4c-1-1.7-1.5-4-1.5-6.8c0-1.6,0.1-2.9,0.2-4c0.2-1.8,0.7-3.3,1.4-4.5c0.6-1,1.4-1.9,2.4-2.5
				s2.2-0.9,3.5-0.9c2,0,3.5,0.5,4.7,1.5c1.2,1,1.8,2.4,2,4H42.5z M37.6,42c0.6,0.7,1.4,1.1,2.3,1.1c0.9,0,1.7-0.3,2.2-1
				c0.5-0.7,0.8-1.6,0.8-2.7c0-1.2-0.3-2.2-0.9-2.8c-0.6-0.7-1.3-1-2.2-1c-0.7,0-1.3,0.2-1.9,0.6c-0.8,0.6-1.2,1.7-1.2,3.1
				C36.7,40.3,37,41.2,37.6,42z"/>
			<path class="st2" d="M58.2,34.1c-1.1,1.1-2.3,1.6-3.9,1.6c-1.5,0-2.8-0.5-3.9-1.6s-1.6-2.3-1.6-3.9s0.5-2.8,1.6-3.9
				s2.3-1.6,3.9-1.6s2.8,0.5,3.9,1.6s1.6,2.3,1.6,3.9S59.3,33,58.2,34.1z M56,31.8c0.5-0.5,0.7-1,0.7-1.6S56.4,29,56,28.6
				c-0.5-0.5-1-0.7-1.6-0.7s-1.2,0.2-1.6,0.7c-0.5,0.5-0.7,1-0.7,1.6s0.2,1.2,0.7,1.6c0.5,0.5,1,0.7,1.6,0.7S55.5,32.3,56,31.8z
				 M66.3,24.6h2.2L56.6,46.4h-2.3L66.3,24.6z M72.4,44.7c-1.1,1.1-2.3,1.6-3.9,1.6s-2.8-0.5-3.9-1.6s-1.6-2.3-1.6-3.9
				c0-1.5,0.5-2.8,1.6-3.9c1.1-1.1,2.3-1.6,3.9-1.6s2.8,0.5,3.9,1.6c1.1,1.1,1.6,2.3,1.6,3.9S73.5,43.7,72.4,44.7z M70.2,39.2
				c-0.5-0.5-1-0.7-1.6-0.7s-1.2,0.2-1.6,0.7c-0.5,0.5-0.7,1-0.7,1.6s0.2,1.2,0.7,1.6c0.5,0.5,1,0.7,1.6,0.7s1.2-0.2,1.6-0.7
				c0.5-0.5,0.7-1,0.7-1.6S70.7,39.7,70.2,39.2z"/>
		</g>
	</g>
</g>
</svg>
