<?xml version="1.0" encoding="utf-8"?>
<!-- Generator: Adobe Illustrator 21.1.0, SVG Export Plug-In . SVG Version: 6.00 Build 0)  -->
<svg version="1.1" id="Layer_1" xmlns="http://www.w3.org/2000/svg" xmlns:xlink="http://www.w3.org/1999/xlink" x="0px" y="0px"
	 viewBox="0 0 90.6 86" style="enable-background:new 0 0 90.6 86;" xml:space="preserve">
<style type="text/css">
	.st0{fill:none;stroke:#D41111;stroke-width:5;stroke-miterlimit:10;}
	.st1{enable-background:new    ;}
	.st2{fill:#3E3D3D;}
</style>
<title>Asset 11</title>
<g id="Layer_2">
	<g id="Layer_12">
		<path class="st0" d="M47,2.5C-1.2,2.5-10.2,61.8,19.8,84"/>
		<g class="st1">
			<path class="st2" d="M36.5,51.9h-2.7v5.2h-4.6v-5.2h-9.5v-4.1l8.8-14.6h5.3v15h2.7V51.9z M29.1,48.2V37.9l-6,10.4H29.1z"/>
			<path class="st2" d="M55.3,51.9h-2.7v5.2H48v-5.2h-9.5v-4.1l8.8-14.6h5.3v15h2.7V51.9z M48,48.2V37.9l-6,10.4H48z"/>
			<path class="st2" d="M67.8,43.7c-1.2,1.2-2.7,1.8-4.4,1.8c-1.7,0-3.2-0.6-4.4-1.8s-1.8-2.7-1.8-4.4c0-1.7,0.6-3.2,1.8-4.4
				c1.2-1.2,2.7-1.8,4.4-1.8c1.7,0,3.2,0.6,4.4,1.8c1.2,1.2,1.8,2.7,1.8,4.4C69.6,41.1,69,42.5,67.8,43.7z M65.3,41.2
				c0.5-0.5,0.8-1.1,0.8-1.9c0-0.7-0.3-1.4-0.8-1.9s-1.1-0.8-1.9-0.8c-0.7,0-1.4,0.3-1.9,0.8s-0.8,1.1-0.8,1.9
				c0,0.7,0.3,1.4,0.8,1.9s1.1,0.8,1.9,0.8C64.2,42,64.8,41.7,65.3,41.2z M76.9,33.1h2.5L66,57.7h-2.6L76.9,33.1z M83.9,55.8
				c-1.2,1.2-2.7,1.8-4.4,1.8c-1.7,0-3.2-0.6-4.4-1.8c-1.2-1.2-1.8-2.7-1.8-4.4c0-1.7,0.6-3.2,1.8-4.4c1.2-1.2,2.7-1.8,4.4-1.8
				c1.7,0,3.2,0.6,4.4,1.8s1.8,2.7,1.8,4.4C85.7,53.1,85.1,54.6,83.9,55.8z M81.4,49.6c-0.5-0.5-1.1-0.8-1.9-0.8
				c-0.7,0-1.4,0.3-1.9,0.8c-0.5,0.5-0.8,1.1-0.8,1.9s0.3,1.4,0.8,1.9c0.5,0.5,1.1,0.8,1.9,0.8c0.7,0,1.4-0.3,1.9-0.8
				s0.8-1.1,0.8-1.9S81.9,50.1,81.4,49.6z"/>
		</g>
	</g>
</g>
</svg>
