<svg xmlns="http://www.w3.org/2000/svg" viewBox="0 0 98 87"><defs><style>.cls-1{fill:none;stroke:#3e3d3d;stroke-miterlimit:10;stroke-width:2px;}.cls-2{fill:#111;}.cls-3{fill:#3e3d3d;}</style></defs><title>Asset 16</title><g id="Layer_2" data-name="Layer 2"><g id="Layer_16" data-name="Layer 16"><rect class="cls-1" x="14" y="50.5" width="40" height="18"/><line class="cls-2" x1="2" y1="13.5" x2="94" y2="13.5"/><path class="cls-3" d="M98,12H0V22.32c0,9.58,11.72,9.58,11.72,0,0,9.58,12.78,9.58,12.78,0,0,9.58,11.72,9.58,11.72,0,0,9.58,12.78,9.58,12.78,0,0,9.58,12.78,9.58,12.78,0,0,9.58,12.78,9.58,12.78,0,0,9.58,11.18,9.58,11.18,0C86.1,32.1,98.35,31.79,98,22V12.45"/><rect class="cls-1" x="1.5" y="1" width="95" height="8"/><rect class="cls-1" x="61" y="50.5" width="22" height="35"/><rect class="cls-1" x="2.5" y="14" width="92" height="72"/></g></g></svg>