<svg xmlns="http://www.w3.org/2000/svg" viewBox="0 0 33.97 62.96"><defs><style>.cls-1{fill:#3e3d3d;}.cls-2{fill:#fff;}.cls-3{fill:#d53d3d;}.cls-4,.cls-5{fill:none;stroke-miterlimit:10;}.cls-4{stroke:#3e3d3d;}.cls-5{stroke:#d53d3d;stroke-width:0.25px;}</style></defs><title>Asset 3</title><g id="Layer_2" data-name="Layer 2"><g id="doctor_naloxone" data-name="doctor naloxone"><path class="cls-1" d="M29.84,48.57l4.07,9.59A2.85,2.85,0,0,1,32,61.45C29.6,62.51,28.5,59,28.5,59l-4.7-10.84A4.32,4.32,0,0,1,24,44.58l5.74-5.48Z"/><path class="cls-1" d="M21.29,46.73l1.9,11.48s.55,4.12-1.58,4.69-3.31-3-3.31-3l-2.51-13s-.59-3.43,1.61-5.29l3.94-4.15a2.32,2.32,0,0,0,0-2.09c-.54-1.31-1.62-7.3-1.62-7.3L26,20.31c1.74-2-2-4.29-3.14-3.21l-4.49,5.67s-1.51-4.11-.05-6.67,7.37-2.55,8.63-1.82S32,33.2,32,33.2s0,3.14-1.53,4.1S21.29,46.73,21.29,46.73Z"/><path class="cls-1" d="M18,23.31,7.82,25.05c-1.13,0-1.23-2-.17-2.2l9.64-1.54Z"/><ellipse class="cls-1" cx="19.98" cy="6.62" rx="6.62" ry="6.84" transform="translate(12.17 26.17) rotate(-86.56)"/><path class="cls-2" d="M26.5,3.39a1.81,1.81,0,1,1-1.7-1.92A1.81,1.81,0,0,1,26.5,3.39Z"/><polygon class="cls-2" points="23.28 3.88 13.97 3.32 14.88 2.07 23.36 2.58 23.28 3.88"/><g id="naloxone_spray" data-name="naloxone spray"><path class="cls-3" d="M10.23,22.92l-3.66-2.4L4.84,25.64l-1.1-.07,0,.52-.17,2.78,4.3.26s.33,0,.58-.75Z"/><path class="cls-4" d="M9.83,22.4"/><path class="cls-3" d="M10.07,22.54l.48-1.32c.13-.36-.29-.43-.29-.43l-2.54-1a.28.28,0,0,0-.42.12l-.16.74"/><path class="cls-3" d="M3.46,26.27l-.76,0s-.38,0-.43.24-.1,1.6-.1,1.6a.54.54,0,0,0,.39.34l.76,0"/><line class="cls-5" x1="1.46" y1="26.42" x2="0.53" y2="25.88"/><line class="cls-5" x1="1.37" y1="28.07" x2="0.37" y2="28.43"/><line class="cls-5" x1="1.31" y1="27.25" x2="0.01" y2="27.14"/></g><path class="cls-1" d="M23.22,17.75c.69-.79,3.18.7,2.5,1.81l-7.06,8.81L7.26,28c-1.09-.11-.91-2.24.14-2.31l9.42-.26Z"/></g></g></svg>