<?xml version="1.0" encoding="utf-8"?>
<!-- Generator: Adobe Illustrator 21.1.0, SVG Export Plug-In . SVG Version: 6.00 Build 0)  -->
<svg version="1.1" id="Layer_1" xmlns="http://www.w3.org/2000/svg" xmlns:xlink="http://www.w3.org/1999/xlink" x="0px" y="0px"
	 viewBox="0 0 210 80.5" style="enable-background:new 0 0 210 80.5;" xml:space="preserve">
<style type="text/css">
	.st0{fill:#D41111;}
</style>
<title>Asset 7</title>
<path class="st0" d="M8.3,15.2c0,0,0.4-1.5,3.9-4.3s6.4-7.2,1.9-10.3c-1.8-1-4-0.8-5.9,1.4C6.6-0.9,2.6-0.3,0.9,1.7
	c-0.8,1.1-1.5,2.7,0.2,6c0,0,0.9,1.8,3.3,3.6s3.3,3.9,3.3,3.9C7.9,15.6,8.2,15.6,8.3,15.2z"/>
<path class="st0" d="M25.9,15.2c0,0,0.4-1.5,3.9-4.3s6.4-7.2,1.9-10.3c-1.8-1-4-0.8-5.9,1.4c-1.7-2.9-5.7-2.2-7.4-0.3
	c-0.8,1.1-1.5,2.7,0.2,6c0,0,0.9,1.8,3.3,3.6s3.3,3.9,3.3,3.9C25.5,15.6,25.8,15.6,25.9,15.2z"/>
<title>Asset 7</title>
<path class="st0" d="M43.2,15.2c0,0,0.4-1.5,3.9-4.3c3.5-2.8,6.4-7.2,1.9-10.3c-1.8-1-4-0.8-5.9,1.4c-1.7-2.9-5.7-2.2-7.4-0.3
	c-0.8,1.1-1.5,2.7,0.2,6c0,0,0.9,1.8,3.3,3.6s3.3,3.9,3.3,3.9C42.8,15.6,43.1,15.6,43.2,15.2z"/>
<path class="st0" d="M60.8,15.2c0,0,0.4-1.5,3.9-4.3c3.5-2.8,6.4-7.2,1.9-10.3c-1.8-1-4-0.8-5.9,1.4c-1.7-2.9-5.7-2.2-7.4-0.3
	c-0.8,1.1-1.5,2.7,0.2,6c0,0,0.9,1.8,3.3,3.6c2.4,1.8,3.3,3.9,3.3,3.9C60.4,15.6,60.7,15.6,60.8,15.2z"/>
<title>Asset 7</title>
<path class="st0" d="M78.4,15.2c0,0,0.4-1.5,3.9-4.3c3.5-2.8,6.4-7.2,1.9-10.3c-1.8-1-4-0.8-5.9,1.4c-1.7-2.9-5.7-2.2-7.4-0.3
	c-0.8,1.1-1.5,2.7,0.2,6c0,0,0.9,1.8,3.3,3.6c2.4,1.8,3.3,3.9,3.3,3.9C78,15.6,78.3,15.6,78.4,15.2z"/>
<path class="st0" d="M96,15.2c0,0,0.4-1.5,3.9-4.3s6.4-7.2,1.9-10.3c-1.8-1-4-0.8-5.9,1.4c-1.7-2.9-5.7-2.2-7.4-0.3
	c-0.8,1.1-1.5,2.7,0.2,6c0,0,0.9,1.8,3.3,3.6c2.4,1.8,3.3,3.9,3.3,3.9C95.6,15.6,95.9,15.6,96,15.2z"/>
<path class="st0" d="M113.3,15.2c0,0,0.4-1.5,3.9-4.3s6.4-7.2,1.9-10.3c-1.8-1-4-0.8-5.9,1.4c-1.7-2.9-5.7-2.2-7.4-0.3
	c-0.8,1.1-1.5,2.7,0.2,6c0,0,0.9,1.8,3.3,3.6c2.4,1.8,3.3,3.9,3.3,3.9C112.9,15.6,113.2,15.6,113.3,15.2z"/>
<path class="st0" d="M130.9,15.2c0,0,0.4-1.5,3.9-4.3c3.5-2.8,6.4-7.2,1.9-10.3c-1.8-1-4-0.8-5.9,1.4c-1.7-2.9-5.7-2.2-7.4-0.3
	c-0.8,1.1-1.5,2.7,0.2,6c0,0,0.9,1.8,3.3,3.6s3.3,3.9,3.3,3.9C130.5,15.6,130.8,15.6,130.9,15.2z"/>
<title>Asset 7</title>
<path class="st0" d="M148.5,15.2c0,0,0.4-1.5,3.9-4.3s6.4-7.2,1.9-10.3c-1.8-1-4-0.8-5.9,1.4c-1.7-2.9-5.7-2.2-7.4-0.3
	c-0.8,1.1-1.5,2.7,0.2,6c0,0,0.9,1.8,3.3,3.6s3.3,3.9,3.3,3.9C148.1,15.6,148.4,15.6,148.5,15.2z"/>
<path class="st0" d="M166.1,15.2c0,0,0.4-1.5,3.9-4.3c3.5-2.8,6.4-7.2,1.9-10.3c-1.8-1-4-0.8-5.9,1.4c-1.7-2.9-5.7-2.2-7.4-0.3
	c-0.8,1.1-1.5,2.7,0.2,6c0,0,0.9,1.8,3.3,3.6c2.4,1.8,3.3,3.9,3.3,3.9C165.7,15.6,166,15.6,166.1,15.2z"/>
<path class="st0" d="M183.4,15.2c0,0,0.4-1.5,3.9-4.3c3.5-2.8,6.4-7.2,1.9-10.3c-1.8-1-4-0.8-5.9,1.4c-1.7-2.9-5.7-2.2-7.4-0.3
	c-0.8,1.1-1.5,2.7,0.2,6c0,0,0.9,1.8,3.3,3.6c2.4,1.8,3.3,3.9,3.3,3.9C183,15.6,183.3,15.6,183.4,15.2z"/>
<path class="st0" d="M201,15.2c0,0,0.4-1.5,3.9-4.3c3.5-2.8,6.4-7.2,1.9-10.3c-1.8-1-4-0.8-5.9,1.4c-1.7-2.9-5.7-2.2-7.4-0.3
	c-0.8,1.1-1.5,2.7,0.2,6c0,0,0.9,1.8,3.3,3.6s3.3,3.9,3.3,3.9C200.6,15.6,200.9,15.6,201,15.2z"/>
<title>Asset 7</title>
<path class="st0" d="M8.8,34.3c0,0,0.4-1.5,3.9-4.3s6.4-7.2,1.9-10.3c-1.8-1-4-0.8-5.9,1.4c-1.7-2.9-5.7-2.2-7.4-0.3
	c-0.8,1.1-1.5,2.7,0.2,6c0,0,0.9,1.8,3.3,3.6s3.3,3.9,3.3,3.9C8.4,34.7,8.7,34.7,8.8,34.3z"/>
<path class="st0" d="M26.4,34.3c0,0,0.4-1.5,3.9-4.3s6.4-7.2,1.9-10.3c-1.8-1-4-0.8-5.9,1.4c-1.7-2.9-5.7-2.2-7.4-0.3
	c-0.8,1.1-1.5,2.7,0.2,6c0,0,0.9,1.8,3.3,3.6s3.3,3.9,3.3,3.9C26,34.7,26.3,34.7,26.4,34.3z"/>
<path class="st0" d="M43.7,34.3c0,0,0.4-1.5,3.9-4.3c3.5-2.8,6.4-7.2,1.9-10.3c-1.8-1-4-0.8-5.9,1.4c-1.7-2.9-5.7-2.2-7.4-0.3
	c-0.8,1.1-1.5,2.7,0.2,6c0,0,0.9,1.8,3.3,3.6c2.4,1.8,3.3,3.9,3.3,3.9C43.3,34.7,43.6,34.7,43.7,34.3z"/>
<path class="st0" d="M61.3,34.3c0,0,0.4-1.5,3.9-4.3s6.4-7.2,1.9-10.3c-1.8-1-4-0.8-5.9,1.4c-1.7-2.9-5.7-2.2-7.4-0.3
	c-0.8,1.1-1.5,2.7,0.2,6c0,0,0.9,1.8,3.3,3.6s3.3,3.9,3.3,3.9C60.9,34.7,61.2,34.7,61.3,34.3z"/>
<path class="st0" d="M78.9,34.3c0,0,0.4-1.5,3.9-4.3c3.5-2.8,6.4-7.2,1.9-10.3c-1.8-1-4-0.8-5.9,1.4c-1.7-2.9-5.7-2.2-7.4-0.3
	c-0.8,1.1-1.5,2.7,0.2,6c0,0,0.9,1.8,3.3,3.6s3.3,3.9,3.3,3.9C78.5,34.7,78.8,34.7,78.9,34.3z"/>
<path class="st0" d="M96.5,34.3c0,0,0.4-1.5,3.9-4.3s6.4-7.2,1.9-10.3c-1.8-1-4-0.8-5.9,1.4c-1.7-2.9-5.7-2.2-7.4-0.3
	c-0.8,1.1-1.5,2.7,0.2,6c0,0,0.9,1.8,3.3,3.6c2.4,1.8,3.3,3.9,3.3,3.9C96.1,34.7,96.3,34.7,96.5,34.3z"/>
<path class="st0" d="M113.8,34.3c0,0,0.4-1.5,3.9-4.3s6.4-7.2,1.9-10.3c-1.8-1-4-0.8-5.9,1.4c-1.7-2.9-5.7-2.2-7.4-0.3
	c-0.8,1.1-1.5,2.7,0.2,6c0,0,0.9,1.8,3.3,3.6c2.4,1.8,3.3,3.9,3.3,3.9C113.4,34.7,113.7,34.7,113.8,34.3z"/>
<path class="st0" d="M131.4,34.3c0,0,0.4-1.5,3.9-4.3c3.5-2.8,6.4-7.2,1.9-10.3c-1.8-1-4-0.8-5.9,1.4c-1.7-2.9-5.7-2.2-7.4-0.3
	c-0.8,1.1-1.5,2.7,0.2,6c0,0,0.9,1.8,3.3,3.6s3.3,3.9,3.3,3.9C131,34.7,131.2,34.7,131.4,34.3z"/>
<path class="st0" d="M149,34.3c0,0,0.4-1.5,3.9-4.3c3.5-2.8,6.4-7.2,1.9-10.3c-1.8-1-4-0.8-5.9,1.4c-1.7-2.9-5.7-2.2-7.4-0.3
	c-0.8,1.1-1.5,2.7,0.2,6c0,0,0.9,1.8,3.3,3.6s3.3,3.9,3.3,3.9C148.6,34.7,148.8,34.7,149,34.3z"/>
<path class="st0" d="M166.6,34.3c0,0,0.4-1.5,3.9-4.3s6.4-7.2,1.9-10.3c-1.8-1-4-0.8-5.9,1.4c-1.7-2.9-5.7-2.2-7.4-0.3
	c-0.8,1.1-1.5,2.7,0.2,6c0,0,0.9,1.8,3.3,3.6s3.3,3.9,3.3,3.9C166.2,34.7,166.4,34.7,166.6,34.3z"/>
<path class="st0" d="M183.9,34.3c0,0,0.4-1.5,3.9-4.3s6.4-7.2,1.9-10.3c-1.8-1-4-0.8-5.9,1.4c-1.7-2.9-5.7-2.2-7.4-0.3
	c-0.8,1.1-1.5,2.7,0.2,6c0,0,0.9,1.8,3.3,3.6s3.3,3.9,3.3,3.9C183.5,34.7,183.7,34.7,183.9,34.3z"/>
<path class="st0" d="M201.5,34.3c0,0,0.4-1.5,3.9-4.3c3.5-2.8,6.4-7.2,1.9-10.3c-1.8-1-4-0.8-5.9,1.4c-1.7-2.9-5.7-2.2-7.4-0.3
	c-0.8,1.1-1.5,2.7,0.2,6c0,0,0.9,1.8,3.3,3.6c2.4,1.8,3.3,3.9,3.3,3.9C201.1,34.7,201.3,34.7,201.5,34.3z"/>
<path class="st0" d="M9.3,53.5c0,0,0.4-1.5,3.9-4.3c3.5-2.8,6.4-7.2,1.9-10.3c-1.8-1-4-0.8-5.9,1.4C7.5,37.4,3.6,38,1.9,40
	c-0.8,1.1-1.5,2.7,0.2,6c0,0,0.9,1.8,3.3,3.6c2.4,1.8,3.3,3.9,3.3,3.9C8.9,53.9,9.1,53.9,9.3,53.5z"/>
<path class="st0" d="M26.9,53.5c0,0,0.4-1.5,3.9-4.3c3.5-2.8,6.4-7.2,1.9-10.3c-1.8-1-4-0.8-5.9,1.4c-1.7-2.9-5.7-2.2-7.4-0.3
	c-0.8,1.1-1.5,2.7,0.2,6c0,0,0.9,1.8,3.3,3.6c2.4,1.8,3.3,3.9,3.3,3.9C26.5,53.9,26.7,53.9,26.9,53.5z"/>
<path class="st0" d="M44.2,53.5c0,0,0.4-1.5,3.9-4.3c3.5-2.8,6.4-7.2,1.9-10.3c-1.8-1-4-0.8-5.9,1.4c-1.7-2.9-5.7-2.2-7.4-0.3
	c-0.8,1.1-1.5,2.7,0.2,6c0,0,0.9,1.8,3.3,3.6c2.4,1.8,3.3,3.9,3.3,3.9C43.8,53.9,44,53.9,44.2,53.5z"/>
<path class="st0" d="M61.8,53.5c0,0,0.4-1.5,3.9-4.3c3.5-2.8,6.4-7.2,1.9-10.3c-1.8-1-4-0.8-5.9,1.4C60,37.4,56.1,38,54.4,40
	c-0.8,1.1-1.5,2.7,0.2,6c0,0,0.9,1.8,3.3,3.6c2.4,1.8,3.3,3.9,3.3,3.9C61.4,53.9,61.6,53.9,61.8,53.5z"/>
<path class="st0" d="M79.4,53.5c0,0,0.4-1.5,3.9-4.3c3.5-2.8,6.4-7.2,1.9-10.3c-1.8-1-4-0.8-5.9,1.4C77.6,37.4,73.7,38,72,40
	c-0.8,1.1-1.5,2.7,0.2,6c0,0,0.9,1.8,3.3,3.6c2.4,1.8,3.3,3.9,3.3,3.9C79,53.9,79.2,53.9,79.4,53.5z"/>
<path class="st0" d="M97,53.5c0,0,0.4-1.5,3.9-4.3c3.5-2.8,6.4-7.2,1.9-10.3c-1.8-1-4-0.8-5.9,1.4c-1.7-2.9-5.7-2.2-7.4-0.3
	c-0.8,1.1-1.5,2.7,0.2,6c0,0,0.9,1.8,3.3,3.6c2.4,1.8,3.3,3.9,3.3,3.9C96.5,53.9,96.8,53.9,97,53.5z"/>
<path class="st0" d="M114.3,53.5c0,0,0.4-1.5,3.9-4.3c3.5-2.8,6.4-7.2,1.9-10.3c-1.8-1-4-0.8-5.9,1.4c-1.7-2.9-5.7-2.2-7.4-0.3
	c-0.8,1.1-1.5,2.7,0.2,6c0,0,0.9,1.8,3.3,3.6c2.4,1.8,3.3,3.9,3.3,3.9C113.9,53.9,114.1,53.9,114.3,53.5z"/>
<path class="st0" d="M113.8,71.5c0,0,0.4-1.5,3.9-4.3c3.5-2.8,6.4-7.2,1.9-10.3c-1.8-1-4-0.8-5.9,1.4c-1.7-2.9-5.7-2.2-7.4-0.3
	c-0.8,1.1-1.5,2.7,0.2,6c0,0,0.9,1.8,3.3,3.6c2.4,1.8,3.3,3.9,3.3,3.9C113.4,71.9,113.7,71.9,113.8,71.5z"/>
<path class="st0" d="M131.9,53.5c0,0,0.4-1.5,3.9-4.3c3.5-2.8,6.4-7.2,1.9-10.3c-1.8-1-4-0.8-5.9,1.4c-1.7-2.9-5.7-2.2-7.4-0.3
	c-0.8,1.1-1.5,2.7,0.2,6c0,0,0.9,1.8,3.3,3.6c2.4,1.8,3.3,3.9,3.3,3.9C131.5,53.9,131.7,53.9,131.9,53.5z"/>
<path class="st0" d="M149.5,53.5c0,0,0.4-1.5,3.9-4.3c3.5-2.8,6.4-7.2,1.9-10.3c-1.8-1-4-0.8-5.9,1.4c-1.7-2.9-5.7-2.2-7.4-0.3
	c-0.8,1.1-1.5,2.7,0.2,6c0,0,0.9,1.8,3.3,3.6c2.4,1.8,3.3,3.9,3.3,3.9C149,53.9,149.3,53.9,149.5,53.5z"/>
<path class="st0" d="M167,53.5c0,0,0.4-1.5,3.9-4.3c3.5-2.8,6.4-7.2,1.9-10.3c-1.8-1-4-0.8-5.9,1.4c-1.7-2.9-5.7-2.2-7.4-0.3
	c-0.8,1.1-1.5,2.7,0.2,6c0,0,0.9,1.8,3.3,3.6c2.4,1.8,3.3,3.9,3.3,3.9C166.6,53.9,166.9,53.9,167,53.5z"/>
<path class="st0" d="M184.4,53.5c0,0,0.4-1.5,3.9-4.3c3.5-2.8,6.4-7.2,1.9-10.3c-1.8-1-4-0.8-5.9,1.4c-1.7-2.9-5.7-2.2-7.4-0.3
	c-0.8,1.1-1.5,2.7,0.2,6c0,0,0.9,1.8,3.3,3.6c2.4,1.8,3.3,3.9,3.3,3.9C183.9,53.9,184.2,53.9,184.4,53.5z"/>
<path class="st0" d="M202,53.5c0,0,0.4-1.5,3.9-4.3c3.5-2.8,6.4-7.2,1.9-10.3c-1.8-1-4-0.8-5.9,1.4c-1.7-2.9-5.7-2.2-7.4-0.3
	c-0.8,1.1-1.5,2.7,0.2,6c0,0,0.9,1.8,3.3,3.6c2.4,1.8,3.3,3.9,3.3,3.9C201.5,53.9,201.8,53.9,202,53.5z"/>
<title>Asset 7</title>
</svg>
