<svg xmlns="http://www.w3.org/2000/svg" viewBox="0 0 408.75 56.75"><defs><style>.cls-1{fill:none;stroke:#000;stroke-linecap:round;stroke-linejoin:round;stroke-width:1.75px;}</style></defs><title>Asset 4</title><g id="Layer_2" data-name="Layer 2"><g id="heart_line" data-name="heart line"><polyline class="cls-1" points="0.88 24.88 100.54 24.88 105.91 11.88 110.2 41.88 112.35 24.88 116.64 24.88 119.86 7.88 127.38 39.88 133.82 24.88 140.26 24.88 141.33 21.88 144.55 31.88 146.7 24.88 150.99 32.88 157.43 7.88 160.65 46.88 163.87 20.88 167.09 24.88 185.34 24.88 189.64 13.88 196.08 40.88 202.52 0.88 207.88 25.88 213.25 20.88 220.76 50.88 229.35 6.88 239.01 51.88 240.09 24.88 257.26 24.88 258.33 47.88 262.63 22.88 268 34.88 271.21 27.88 274.44 38.88 277.66 33.88 280.88 38.88 286.24 15.88 292.68 55.88 294.83 24.88 302.34 24.88 307.71 24.88 309.86 32.88 313.08 21.88 324.89 49.88 332.4 8.88 339.91 34.88 343.13 30.88 348.5 50.88 351.72 14.88 354.94 24.88 367.82 24.88 372.12 8.88 380.7 34.88 383.92 21.88 393.58 51.88 402.17 9.88 402.17 9.88 407.88 24.88"/></g></g></svg>