<svg xmlns="http://www.w3.org/2000/svg" viewBox="0 0 1388.31 60.75"><defs><style>.cls-1{fill:none;stroke:#000;stroke-linecap:round;stroke-linejoin:round;stroke-width:1.75px;}</style></defs><title>Asset 1</title><g id="Layer_2" data-name="Layer 2"><g id="heart_line" data-name="heart line"><polyline class="cls-1" points="795.17 13.88 795.17 13.88 786.59 55.88 776.92 25.88 773.7 38.88 765.12 12.88 760.82 28.88 747.94 28.88 744.72 18.88 741.5 54.88 736.13 34.88 732.91 38.88 725.4 12.88 717.89 53.88 706.08 25.88 702.86 36.88 700.71 28.88 695.34 28.88 687.83 28.88 685.68 59.88 679.24 19.88 673.88 42.88 670.66 37.88 667.44 42.88 664.22 31.88 661 38.88 655.63 26.88 651.33 51.88 650.26 28.88 633.09 28.88 632.01 55.88 622.35 10.88 613.76 54.88 606.25 24.88 600.88 29.88 595.52 4.88 589.08 44.88 582.64 17.88 578.34 28.88 560.09 28.88 556.87 24.88 553.65 50.88 550.43 11.88 543.99 36.88 539.7 28.88 537.55 35.88 534.33 25.88 533.26 28.88 526.82 28.88 520.38 43.88 512.86 11.88 509.64 28.88 505.35 28.88 503.2 45.88 498.91 15.88 493.54 28.88 0.88 28.88"/><polyline class="cls-1" points="795.17 13.88 795.17 13.88 799.47 43.88 801.61 26.88 805.91 26.88 809.13 9.88 816.64 41.88 823.08 26.88 829.52 26.88 830.6 23.88 833.82 33.88 835.96 26.88 840.25 34.88 846.7 9.88 849.92 48.88 853.14 22.88 856.36 26.88 874.61 26.88 878.9 15.88 885.34 42.88 891.78 2.88 897.15 27.88 902.51 22.88 910.03 52.88 918.62 8.88 928.27 53.88 929.35 26.88 946.52 26.88 947.6 49.88 951.89 24.88 957.26 36.88 960.48 29.88 963.7 40.88 966.92 35.88 970.14 40.88 975.51 17.88 981.95 57.88 984.09 26.88 991.61 26.88 996.97 26.88 999.12 34.88 1002.34 23.88 1014.15 51.88 1021.66 10.88 1029.18 36.88 1032.4 32.88 1037.76 52.88 1040.98 16.88 1044.2 26.88 1057.09 26.88 1061.38 10.88 1069.97 36.88 1073.19 23.88 1082.85 53.88 1091.43 11.88"/><polyline class="cls-1" points="1091.17 11.88 1091.17 11.88 1095.47 41.88 1097.61 24.88 1101.91 24.88 1105.13 7.88 1112.64 39.88 1119.08 24.88 1125.52 24.88 1126.6 21.88 1129.82 31.88 1131.96 24.88 1136.26 32.88 1142.7 7.88 1145.92 46.88 1149.14 20.88 1152.36 24.88 1170.61 24.88 1174.9 13.88 1181.34 40.88 1187.78 0.88 1193.15 25.88 1198.51 20.88 1206.03 50.88 1214.62 6.88 1224.28 51.88 1225.35 24.88 1242.52 24.88 1243.6 47.88 1247.89 22.88 1253.26 34.88 1256.48 27.88 1259.7 38.88 1262.92 33.88 1266.14 38.88 1271.51 15.88 1277.95 55.88 1280.09 24.88 1287.61 24.88 1292.97 24.88 1295.12 32.88 1298.34 21.88 1310.15 49.88 1317.66 8.88 1325.18 34.88 1328.4 30.88 1333.76 50.88 1336.98 14.88 1340.2 24.88 1353.09 24.88 1357.38 8.88 1365.97 34.88 1369.19 21.88 1378.85 51.88 1387.43 9.88"/></g></g></svg>