<?xml version="1.0" encoding="utf-8"?>
<!-- Generator: Adobe Illustrator 21.1.0, SVG Export Plug-In . SVG Version: 6.00 Build 0)  -->
<svg version="1.1" id="Layer_1" xmlns="http://www.w3.org/2000/svg" xmlns:xlink="http://www.w3.org/1999/xlink" x="0px" y="0px"
	 viewBox="0 0 647.2 15.2" style="enable-background:new 0 0 647.2 15.2;" xml:space="preserve">
<style type="text/css">
	.st0{fill:#D41111;}
</style>
<title>Asset 7</title>
<path class="st0" d="M8.3,15.2c0,0,0.4-1.5,3.9-4.3s6.4-7.2,1.9-10.3c-1.8-1-4-0.8-5.9,1.4C6.6-0.9,2.6-0.3,0.9,1.7
	c-0.8,1.1-1.5,2.7,0.2,6c0,0,0.9,1.8,3.3,3.6s3.3,3.9,3.3,3.9C7.9,15.6,8.2,15.6,8.3,15.2z"/>
<path class="st0" d="M25.9,15.2c0,0,0.4-1.5,3.9-4.3s6.4-7.2,1.9-10.3c-1.8-1-4-0.8-5.9,1.4c-1.7-2.9-5.7-2.2-7.4-0.3
	c-0.8,1.1-1.5,2.7,0.2,6c0,0,0.9,1.8,3.3,3.6s3.3,3.9,3.3,3.9C25.5,15.6,25.8,15.6,25.9,15.2z"/>
<title>Asset 7</title>
<path class="st0" d="M43.2,15.2c0,0,0.4-1.5,3.9-4.3S53.5,3.7,49,0.6c-1.8-1-4-0.8-5.9,1.4c-1.7-2.9-5.7-2.2-7.4-0.3
	c-0.8,1.1-1.5,2.7,0.2,6c0,0,0.9,1.8,3.3,3.6s3.3,3.9,3.3,3.9C42.8,15.6,43.1,15.6,43.2,15.2z"/>
<path class="st0" d="M60.8,15.2c0,0,0.4-1.5,3.9-4.3c3.5-2.8,6.4-7.2,1.9-10.3c-1.8-1-4-0.8-5.9,1.4C59-0.9,55-0.2,53.3,1.7
	c-0.8,1.1-1.5,2.7,0.2,6c0,0,0.9,1.8,3.3,3.6c2.4,1.8,3.3,3.9,3.3,3.9C60.4,15.6,60.7,15.6,60.8,15.2z"/>
<title>Asset 7</title>
<path class="st0" d="M78.4,15.2c0,0,0.4-1.5,3.9-4.3s6.4-7.2,1.9-10.3c-1.8-1-4-0.8-5.9,1.4c-1.7-2.9-5.7-2.2-7.4-0.3
	c-0.8,1.1-1.5,2.7,0.2,6c0,0,0.9,1.8,3.3,3.6s3.3,3.9,3.3,3.9C78,15.6,78.3,15.6,78.4,15.2z"/>
<path class="st0" d="M96,15.2c0,0,0.4-1.5,3.9-4.3s6.4-7.2,1.9-10.3c-1.8-1-4-0.8-5.9,1.4c-1.7-2.9-5.7-2.2-7.4-0.3
	c-0.8,1.1-1.5,2.7,0.2,6c0,0,0.9,1.8,3.3,3.6s3.3,3.9,3.3,3.9C95.6,15.6,95.9,15.6,96,15.2z"/>
<path class="st0" d="M113.3,15.2c0,0,0.4-1.5,3.9-4.3s6.4-7.2,1.9-10.3c-1.8-1-4-0.8-5.9,1.4c-1.7-2.9-5.7-2.2-7.4-0.3
	c-0.8,1.1-1.5,2.7,0.2,6c0,0,0.9,1.8,3.3,3.6s3.3,3.9,3.3,3.9C112.9,15.6,113.2,15.6,113.3,15.2z"/>
<path class="st0" d="M130.9,15.2c0,0,0.4-1.5,3.9-4.3s6.4-7.2,1.9-10.3c-1.8-1-4-0.8-5.9,1.4c-1.7-2.9-5.7-2.2-7.4-0.3
	c-0.8,1.1-1.5,2.7,0.2,6c0,0,0.9,1.8,3.3,3.6s3.3,3.9,3.3,3.9C130.5,15.6,130.8,15.6,130.9,15.2z"/>
<title>Asset 7</title>
<path class="st0" d="M148.5,15.2c0,0,0.4-1.5,3.9-4.3s6.4-7.2,1.9-10.3c-1.8-1-4-0.8-5.9,1.4c-1.7-2.9-5.7-2.2-7.4-0.3
	c-0.8,1.1-1.5,2.7,0.2,6c0,0,0.9,1.8,3.3,3.6s3.3,3.9,3.3,3.9C148.1,15.6,148.4,15.6,148.5,15.2z"/>
<path class="st0" d="M166.1,15.2c0,0,0.4-1.5,3.9-4.3s6.4-7.2,1.9-10.3c-1.8-1-4-0.8-5.9,1.4c-1.7-2.9-5.7-2.2-7.4-0.3
	c-0.8,1.1-1.5,2.7,0.2,6c0,0,0.9,1.8,3.3,3.6c2.4,1.8,3.3,3.9,3.3,3.9C165.7,15.6,166,15.6,166.1,15.2z"/>
<path class="st0" d="M183.4,15.2c0,0,0.4-1.5,3.9-4.3s6.4-7.2,1.9-10.3c-1.8-1-4-0.8-5.9,1.4c-1.7-2.9-5.7-2.2-7.4-0.3
	c-0.8,1.1-1.5,2.7,0.2,6c0,0,0.9,1.8,3.3,3.6c2.4,1.8,3.3,3.9,3.3,3.9C183,15.6,183.3,15.6,183.4,15.2z"/>
<path class="st0" d="M201,15.2c0,0,0.4-1.5,3.9-4.3s6.4-7.2,1.9-10.3c-1.8-1-4-0.8-5.9,1.4c-1.7-2.9-5.7-2.2-7.4-0.3
	c-0.8,1.1-1.5,2.7,0.2,6c0,0,0.9,1.8,3.3,3.6s3.3,3.9,3.3,3.9C200.6,15.6,200.9,15.6,201,15.2z"/>
<title>Asset 7</title>
<path class="st0" d="M218.6,15.2c0,0,0.4-1.5,3.9-4.3s6.4-7.2,1.9-10.3c-1.8-1-4-0.8-5.9,1.4c-1.7-2.9-5.7-2.2-7.4-0.3
	c-0.8,1.1-1.5,2.7,0.2,6c0,0,0.9,1.8,3.3,3.6c2.4,1.8,3.3,3.9,3.3,3.9C218.2,15.6,218.5,15.6,218.6,15.2z"/>
<path class="st0" d="M236.2,15.2c0,0,0.4-1.5,3.9-4.3s6.4-7.2,1.9-10.3c-1.8-1-4-0.8-5.9,1.4c-1.7-2.9-5.7-2.2-7.4-0.3
	c-0.8,1.1-1.5,2.7,0.2,6c0,0,0.9,1.8,3.3,3.6c2.4,1.8,3.3,3.9,3.3,3.9C235.8,15.6,236.1,15.6,236.2,15.2z"/>
<path class="st0" d="M253.5,15.2c0,0,0.4-1.5,3.9-4.3c3.5-2.8,6.4-7.2,1.9-10.3c-1.8-1-4-0.8-5.9,1.4c-1.7-2.9-5.7-2.2-7.4-0.3
	c-0.8,1.1-1.5,2.7,0.2,6c0,0,0.9,1.8,3.3,3.6c2.4,1.8,3.3,3.9,3.3,3.9C253.1,15.6,253.4,15.6,253.5,15.2z"/>
<path class="st0" d="M271.1,15.2c0,0,0.4-1.5,3.9-4.3s6.4-7.2,1.9-10.3c-1.8-1-4-0.8-5.9,1.4c-1.7-2.9-5.7-2.2-7.4-0.3
	c-0.8,1.1-1.5,2.7,0.2,6c0,0,0.9,1.8,3.3,3.6c2.4,1.8,3.3,3.9,3.3,3.9C270.7,15.6,271,15.6,271.1,15.2z"/>
<path class="st0" d="M288.7,15.2c0,0,0.4-1.5,3.9-4.3s6.4-7.2,1.9-10.3c-1.8-1-4-0.8-5.9,1.4c-1.7-2.9-5.7-2.2-7.4-0.3
	c-0.8,1.1-1.5,2.7,0.2,6c0,0,0.9,1.8,3.3,3.6c2.4,1.8,3.3,3.9,3.3,3.9C288.3,15.6,288.6,15.6,288.7,15.2z"/>
<path class="st0" d="M306.3,15.2c0,0,0.4-1.5,3.9-4.3s6.4-7.2,1.9-10.3c-1.8-1-4-0.8-5.9,1.4c-1.7-2.9-5.7-2.2-7.4-0.3
	c-0.8,1.1-1.5,2.7,0.2,6c0,0,0.9,1.8,3.3,3.6c2.4,1.8,3.3,3.9,3.3,3.9C305.9,15.6,306.1,15.6,306.3,15.2z"/>
<path class="st0" d="M323.6,15.2c0,0,0.4-1.5,3.9-4.3s6.4-7.2,1.9-10.3c-1.8-1-4-0.8-5.9,1.4c-1.7-2.9-5.7-2.2-7.4-0.3
	c-0.8,1.1-1.5,2.7,0.2,6c0,0,0.9,1.8,3.3,3.6c2.4,1.8,3.3,3.9,3.3,3.9C323.2,15.6,323.5,15.6,323.6,15.2z"/>
<path class="st0" d="M341.2,15.2c0,0,0.4-1.5,3.9-4.3s6.4-7.2,1.9-10.3c-1.8-1-4-0.8-5.9,1.4c-1.7-2.9-5.7-2.2-7.4-0.3
	c-0.8,1.1-1.5,2.7,0.2,6c0,0,0.9,1.8,3.3,3.6c2.4,1.8,3.3,3.9,3.3,3.9C340.8,15.6,341,15.6,341.2,15.2z"/>
<path class="st0" d="M358.8,15.2c0,0,0.4-1.5,3.9-4.3s6.4-7.2,1.9-10.3c-1.8-1-4-0.8-5.9,1.4c-1.7-2.9-5.7-2.2-7.4-0.3
	c-0.8,1.1-1.5,2.7,0.2,6c0,0,0.9,1.8,3.3,3.6c2.4,1.8,3.3,3.9,3.3,3.9C358.4,15.6,358.6,15.6,358.8,15.2z"/>
<path class="st0" d="M376.4,15.2c0,0,0.4-1.5,3.9-4.3s6.4-7.2,1.9-10.3c-1.8-1-4-0.8-5.9,1.4c-1.7-2.9-5.7-2.2-7.4-0.3
	c-0.8,1.1-1.5,2.7,0.2,6c0,0,0.9,1.8,3.3,3.6c2.4,1.8,3.3,3.9,3.3,3.9C376,15.6,376.2,15.6,376.4,15.2z"/>
<path class="st0" d="M393.7,15.2c0,0,0.4-1.5,3.9-4.3s6.4-7.2,1.9-10.3c-1.8-1-4-0.8-5.9,1.4c-1.7-2.9-5.7-2.2-7.4-0.3
	c-0.8,1.1-1.5,2.7,0.2,6c0,0,0.9,1.8,3.3,3.6c2.4,1.8,3.3,3.9,3.3,3.9C393.3,15.6,393.5,15.6,393.7,15.2z"/>
<path class="st0" d="M411.3,15.2c0,0,0.4-1.5,3.9-4.3s6.4-7.2,1.9-10.3c-1.8-1-4-0.8-5.9,1.4c-1.7-2.9-5.7-2.2-7.4-0.3
	c-0.8,1.1-1.5,2.7,0.2,6c0,0,0.9,1.8,3.3,3.6c2.4,1.8,3.3,3.9,3.3,3.9C410.9,15.6,411.1,15.6,411.3,15.2z"/>
<path class="st0" d="M428.8,15.2c0,0,0.4-1.5,3.9-4.3s6.4-7.2,1.9-10.3c-1.8-1-4-0.8-5.9,1.4c-1.7-2.9-5.6-2.3-7.3-0.3
	c-0.8,1.1-1.5,2.7,0.2,6c0,0,0.9,1.8,3.3,3.6c2.4,1.8,3.3,3.9,3.3,3.9C428.4,15.6,428.6,15.6,428.8,15.2z"/>
<path class="st0" d="M446.4,15.2c0,0,0.4-1.5,3.9-4.3s6.4-7.2,1.9-10.3c-1.8-1-4-0.8-5.9,1.4c-1.7-2.9-5.7-2.2-7.4-0.3
	c-0.8,1.1-1.5,2.7,0.2,6c0,0,0.9,1.8,3.3,3.6c2.4,1.8,3.3,3.9,3.3,3.9C446,15.6,446.2,15.6,446.4,15.2z"/>
<path class="st0" d="M463.7,15.2c0,0,0.4-1.5,3.9-4.3s6.4-7.2,1.9-10.3c-1.8-1-4-0.8-5.9,1.4c-1.7-2.9-5.7-2.2-7.4-0.3
	c-0.8,1.1-1.5,2.7,0.2,6c0,0,0.9,1.8,3.3,3.6s3.3,3.9,3.3,3.9C463.3,15.6,463.5,15.6,463.7,15.2z"/>
<path class="st0" d="M481.3,15.2c0,0,0.4-1.5,3.9-4.3s6.4-7.2,1.9-10.3c-1.8-1-4-0.8-5.9,1.4c-1.7-2.9-5.6-2.3-7.3-0.3
	c-0.8,1.1-1.5,2.7,0.2,6c0,0,0.9,1.8,3.3,3.6c2.4,1.8,3.3,3.9,3.3,3.9C480.9,15.6,481.1,15.6,481.3,15.2z"/>
<path class="st0" d="M498.9,15.2c0,0,0.4-1.5,3.9-4.3s6.4-7.2,1.9-10.3c-1.8-1-4-0.8-5.9,1.4c-1.7-2.9-5.6-2.3-7.3-0.3
	c-0.8,1.1-1.5,2.7,0.2,6c0,0,0.9,1.8,3.3,3.6c2.4,1.8,3.3,3.9,3.3,3.9C498.5,15.6,498.7,15.6,498.9,15.2z"/>
<path class="st0" d="M516.5,15.2c0,0,0.4-1.5,3.9-4.3s6.4-7.2,1.9-10.3c-1.8-1-4-0.8-5.9,1.4c-1.7-2.9-5.7-2.2-7.4-0.3
	c-0.8,1.1-1.5,2.7,0.2,6c0,0,0.9,1.8,3.3,3.6c2.4,1.8,3.3,3.9,3.3,3.9C516,15.6,516.3,15.6,516.5,15.2z"/>
<path class="st0" d="M533.8,15.2c0,0,0.4-1.5,3.9-4.3s6.4-7.2,1.9-10.3c-1.8-1-4-0.8-5.9,1.4c-1.7-2.9-5.7-2.2-7.4-0.3
	c-0.8,1.1-1.5,2.7,0.2,6c0,0,0.9,1.8,3.3,3.6c2.4,1.8,3.3,3.9,3.3,3.9C533.4,15.6,533.6,15.6,533.8,15.2z"/>
<path class="st0" d="M639.1,15.2c0,0,0.4-1.5,3.9-4.3s6.4-7.2,1.9-10.3c-1.8-1-4-0.8-5.9,1.4c-1.7-2.9-5.7-2.2-7.4-0.3
	c-0.8,1.1-1.5,2.7,0.2,6c0,0,0.9,1.8,3.3,3.6c2.4,1.8,3.3,3.9,3.3,3.9C638.7,15.6,639,15.6,639.1,15.2z"/>
<path class="st0" d="M551.4,15.2c0,0,0.4-1.5,3.9-4.3s6.4-7.2,1.9-10.3c-1.8-1-4-0.8-5.9,1.4c-1.7-2.9-5.7-2.2-7.4-0.3
	c-0.8,1.1-1.5,2.7,0.2,6c0,0,0.9,1.8,3.3,3.6c2.4,1.8,3.3,3.9,3.3,3.9C551,15.6,551.2,15.6,551.4,15.2z"/>
<path class="st0" d="M569,15.2c0,0,0.4-1.5,3.9-4.3s6.4-7.2,1.9-10.3c-1.8-1-4-0.8-5.9,1.4c-1.7-2.9-5.7-2.2-7.4-0.3
	c-0.8,1.1-1.5,2.7,0.2,6c0,0,0.9,1.8,3.3,3.6s3.3,3.9,3.3,3.9C568.5,15.6,568.8,15.6,569,15.2z"/>
<path class="st0" d="M586.5,15.2c0,0,0.4-1.5,3.9-4.3s6.4-7.2,1.9-10.3c-1.8-1-4-0.8-5.9,1.4c-1.7-2.9-5.7-2.2-7.4-0.3
	c-0.8,1.1-1.5,2.7,0.2,6c0,0,0.9,1.8,3.3,3.6s3.3,3.9,3.3,3.9C586.1,15.6,586.4,15.6,586.5,15.2z"/>
<path class="st0" d="M603.9,15.2c0,0,0.4-1.5,3.9-4.3s6.4-7.2,1.9-10.3c-1.8-1-4-0.8-5.9,1.4c-1.7-2.9-5.7-2.2-7.4-0.3
	c-0.8,1.1-1.5,2.7,0.2,6c0,0,0.9,1.8,3.3,3.6c2.4,1.8,3.3,3.9,3.3,3.9C603.4,15.6,603.7,15.6,603.9,15.2z"/>
<path class="st0" d="M621.5,15.2c0,0,0.4-1.5,3.9-4.3s6.4-7.2,1.9-10.3c-1.8-1-4-0.8-5.9,1.4c-1.7-2.9-5.7-2.2-7.4-0.3
	c-0.8,1.1-1.5,2.7,0.2,6c0,0,0.9,1.8,3.3,3.6s3.3,3.9,3.3,3.9C621,15.6,621.3,15.6,621.5,15.2z"/>
<title>Asset 7</title>
</svg>
