<svg xmlns="http://www.w3.org/2000/svg" viewBox="0 0 160 240"><defs><style>.cls-1{fill:#3e3d3d;}.cls-2{fill:#d41111;}.cls-3{fill:#fafeff;}</style></defs><title>Asset 5</title><g id="Layer_2" data-name="Layer 2"><g id="hospital"><g id="hospital-2" data-name="hospital"><polygon class="cls-1" points="0 29 26 29 26 0 135 0 135 29 160 29 160 240 0 240 0 29"/></g><g id="cross"><polyline class="cls-2" points="73 19 73 10 85 10 85 20 95 20 95 31 85 31 85 41 73 41 73 31 63 31 63 20 73 20"/></g><g id="windows"><rect id="window" class="cls-3" x="103" y="59" width="28" height="28"/><rect id="window-2" data-name="window" class="cls-3" x="28" y="59" width="28" height="28"/><rect id="window-3" data-name="window" class="cls-3" x="28" y="59" width="28" height="28"/><rect id="window-4" data-name="window" class="cls-3" x="103" y="93" width="28" height="28"/><rect id="window-5" data-name="window" class="cls-3" x="28" y="93" width="28" height="28"/><rect id="window-6" data-name="window" class="cls-3" x="103" y="127" width="28" height="28"/><rect id="window-7" data-name="window" class="cls-3" x="28" y="127" width="28" height="28"/><rect id="window-8" data-name="window" class="cls-3" x="65" y="59" width="28" height="28"/><rect id="window-9" data-name="window" class="cls-3" x="65" y="93" width="28" height="28"/><rect id="window-10" data-name="window" class="cls-3" x="65" y="127" width="28" height="28"/></g><g id="door"><rect class="cls-3" x="47" y="183" width="32" height="51"/><rect class="cls-3" x="82" y="183" width="32" height="51"/></g></g></g></svg>