<?xml version="1.0" encoding="utf-8"?>
<!-- Generator: Adobe Illustrator 21.1.0, SVG Export Plug-In . SVG Version: 6.00 Build 0)  -->
<svg version="1.1" id="Layer_1" xmlns="http://www.w3.org/2000/svg" xmlns:xlink="http://www.w3.org/1999/xlink" x="0px" y="0px"
	 viewBox="0 0 85.1 80.5" style="enable-background:new 0 0 85.1 80.5;" xml:space="preserve">
<style type="text/css">
	.st0{fill:none;stroke:#D41111;stroke-width:5;stroke-miterlimit:10;}
	.st1{enable-background:new    ;}
	.st2{fill:#3E3D3D;}
</style>
<title>Asset 10</title>
<g id="Layer_2">
	<g id="Layer_12">
		<path class="st0" d="M41.2,2.5c-49.6,0-49.6,75.1,0,75.1"/>
		<path class="st0" d="M41.2,77.6c24.9,0,37.3-18.7,37.3-37.5c0-15-8-30-23.9-35.4"/>
		<g class="st1">
			<path class="st2" d="M18.2,31.6c1.2-1.3,2.8-2,4.8-2c3,0,5.1,1.3,6.2,4c0.6,1.5,1,3.5,1,6c0,2.4-0.3,4.4-0.9,6
				c-1.2,3.1-3.3,4.6-6.5,4.6c-1.5,0-2.8-0.4-4-1.3s-1.9-2.2-2-3.9h3.9c0.1,0.6,0.3,1.1,0.7,1.4c0.4,0.4,0.9,0.5,1.6,0.5
				c1.3,0,2.2-0.7,2.7-2.1c0.3-0.8,0.5-1.9,0.5-3.4c-0.4,0.4-0.7,0.8-1.1,1c-0.7,0.4-1.6,0.7-2.7,0.7c-1.6,0-3-0.5-4.2-1.6
				c-1.2-1.1-1.8-2.7-1.8-4.7C16.4,34.7,17,33,18.2,31.6z M24.8,39.5c0.9-0.6,1.3-1.6,1.3-3c0-1.1-0.3-2-0.8-2.7
				c-0.5-0.7-1.2-1-2.2-1c-0.7,0-1.2,0.2-1.7,0.6c-0.8,0.6-1.1,1.6-1.1,3c0,1.2,0.2,2.1,0.7,2.7s1.2,0.9,2.2,0.9
				C23.8,40,24.4,39.8,24.8,39.5z"/>
			<path class="st2" d="M45.9,45.4h-2.3v4.3h-3.8v-4.3h-7.9V42l7.3-12.1h4.4v12.4h2.3V45.4z M39.8,42.4v-8.6l-5,8.6H39.8z"/>
			<path class="st2" d="M56.2,38.6c-1,1-2.2,1.5-3.6,1.5c-1.4,0-2.6-0.5-3.6-1.5c-1-1-1.5-2.2-1.5-3.6s0.5-2.6,1.5-3.6
				c1-1,2.2-1.5,3.6-1.5s2.6,0.5,3.6,1.5c1,1,1.5,2.2,1.5,3.6S57.2,37.6,56.2,38.6z M54.1,36.6c0.4-0.4,0.6-0.9,0.6-1.5
				c0-0.6-0.2-1.1-0.6-1.5c-0.4-0.4-0.9-0.6-1.5-0.6c-0.6,0-1.1,0.2-1.5,0.6c-0.4,0.4-0.6,0.9-0.6,1.5c0,0.6,0.2,1.1,0.6,1.5
				c0.4,0.4,0.9,0.6,1.5,0.6C53.2,37.2,53.7,37,54.1,36.6z M63.7,29.8h2.1L54.7,50.2h-2.1L63.7,29.8z M69.5,48.6
				c-1,1-2.2,1.5-3.6,1.5c-1.4,0-2.6-0.5-3.6-1.5s-1.5-2.2-1.5-3.6c0-1.4,0.5-2.6,1.5-3.6c1-1,2.2-1.5,3.6-1.5
				c1.4,0,2.6,0.5,3.6,1.5c1,1,1.5,2.2,1.5,3.6C71,46.4,70.5,47.6,69.5,48.6z M67.5,43.5c-0.4-0.4-0.9-0.6-1.5-0.6
				c-0.6,0-1.1,0.2-1.5,0.6c-0.4,0.4-0.6,0.9-0.6,1.5c0,0.6,0.2,1.1,0.6,1.5c0.4,0.4,0.9,0.6,1.5,0.6c0.6,0,1.1-0.2,1.5-0.6
				c0.4-0.4,0.6-0.9,0.6-1.5C68.1,44.4,67.9,43.9,67.5,43.5z"/>
		</g>
	</g>
</g>
</svg>
