<svg xmlns="http://www.w3.org/2000/svg" viewBox="0 0 213.97 215.62"><defs><style>.cls-1{fill:#3e3d3d;}.cls-2{fill:#fff;}</style></defs><title>Asset 6</title><g id="Layer_2" data-name="Layer 2"><g id="hospital"><g id="Layer_21" data-name="Layer 21"><g id="people"><rect class="cls-1" x="4.77" y="198.92" width="4.34" height="14.49"/><path class="cls-1" d="M9.12,213.41a2.33,2.33,0,0,1-2.17,2.21,2.33,2.33,0,0,1-2.17-2.21Z"/><rect class="cls-1" x="10.09" y="199.88" width="4.34" height="13.53"/><circle class="cls-1" cx="9.48" cy="174.19" r="4.19"/><path class="cls-2" d="M17.61,177"/><path class="cls-1" d="M2.1,197.42a2.59,2.59,0,0,1-2.08,0s-.7-14.57,5.75-18a18.92,18.92,0,0,1,7.91,0s5.58,2.18,5.28,17.55a2.75,2.75,0,0,1-2.28,0s-.59-10.9-1.59-12.09-.66,15.37-.66,15.37l-9.64.1-.51-15.46S3.1,184.83,2.1,197.42Z"/><path class="cls-1" d="M13.4,179.49S19,181.67,18.67,197a2.75,2.75,0,0,1-2.28,0s-.59-10.9-1.59-12.09S10.77,178.93,13.4,179.49Z"/><path class="cls-1" d="M14.43,213.41a2.33,2.33,0,0,1-2.17,2.21,2.33,2.33,0,0,1-2.17-2.21Z"/></g><g id="people_copy" data-name="people copy"><rect class="cls-1" x="25.77" y="198.92" width="4.34" height="14.49"/><path class="cls-1" d="M30.12,213.41a2.33,2.33,0,0,1-2.17,2.21,2.33,2.33,0,0,1-2.17-2.21Z"/><rect class="cls-1" x="31.09" y="199.88" width="4.34" height="13.53"/><circle class="cls-1" cx="30.48" cy="174.19" r="4.19"/><path class="cls-2" d="M38.61,177"/><path class="cls-1" d="M23.1,197.42a2.59,2.59,0,0,1-2.08,0s-.7-14.57,5.75-18a18.92,18.92,0,0,1,7.91,0s5.58,2.18,5.28,17.55a2.75,2.75,0,0,1-2.28,0s-.59-10.9-1.59-12.09-.66,15.37-.66,15.37l-9.64.1-.51-15.46S24.1,184.83,23.1,197.42Z"/><path class="cls-1" d="M34.4,179.49S40,181.67,39.67,197a2.75,2.75,0,0,1-2.28,0s-.59-10.9-1.59-12.09S31.77,178.93,34.4,179.49Z"/><path class="cls-1" d="M35.43,213.41a2.17,2.17,0,1,1-4.34,0Z"/></g><g id="people_copy_2" data-name="people copy 2"><rect class="cls-1" x="47.77" y="198.92" width="4.34" height="14.49"/><path class="cls-1" d="M52.12,213.41a2.17,2.17,0,1,1-4.34,0Z"/><rect class="cls-1" x="53.09" y="199.88" width="4.34" height="13.53"/><circle class="cls-1" cx="52.48" cy="174.19" r="4.19"/><path class="cls-2" d="M60.61,177"/><path class="cls-1" d="M45.1,197.42a2.59,2.59,0,0,1-2.08,0s-.7-14.57,5.75-18a18.92,18.92,0,0,1,7.91,0s5.58,2.18,5.28,17.55a2.75,2.75,0,0,1-2.28,0s-.59-10.9-1.59-12.09-.66,15.37-.66,15.37l-9.64.1-.51-15.46S46.1,184.83,45.1,197.42Z"/><path class="cls-1" d="M56.4,179.49S62,181.67,61.67,197a2.75,2.75,0,0,1-2.28,0s-.59-10.9-1.59-12.09S53.77,178.93,56.4,179.49Z"/><path class="cls-1" d="M57.43,213.41a2.17,2.17,0,1,1-4.34,0Z"/></g><g id="people_copy_3" data-name="people copy 3"><rect class="cls-1" x="69.77" y="198.92" width="4.34" height="14.49"/><path class="cls-1" d="M74.12,213.41a2.17,2.17,0,1,1-4.34,0Z"/><rect class="cls-1" x="75.09" y="199.88" width="4.34" height="13.53"/><circle class="cls-1" cx="74.48" cy="174.19" r="4.19"/><path class="cls-2" d="M82.61,177"/><path class="cls-1" d="M67.1,197.42a2.59,2.59,0,0,1-2.08,0s-.7-14.57,5.75-18a18.92,18.92,0,0,1,7.91,0s5.58,2.18,5.28,17.55a2.75,2.75,0,0,1-2.28,0s-.59-10.9-1.59-12.09-.66,15.37-.66,15.37l-9.64.1-.51-15.46S68.1,184.83,67.1,197.42Z"/><path class="cls-1" d="M78.4,179.49S84,181.67,83.67,197a2.75,2.75,0,0,1-2.28,0s-.59-10.9-1.59-12.09S75.77,178.93,78.4,179.49Z"/><path class="cls-1" d="M79.43,213.41a2.17,2.17,0,1,1-4.34,0Z"/></g><g id="people_copy_4" data-name="people copy 4"><rect class="cls-1" x="91.77" y="198.92" width="4.34" height="14.49"/><path class="cls-1" d="M96.12,213.41a2.17,2.17,0,1,1-4.34,0Z"/><rect class="cls-1" x="97.09" y="199.88" width="4.34" height="13.53"/><circle class="cls-1" cx="96.48" cy="174.19" r="4.19"/><path class="cls-2" d="M104.61,177"/><path class="cls-1" d="M89.1,197.42a2.59,2.59,0,0,1-2.08,0s-.7-14.57,5.75-18a18.92,18.92,0,0,1,7.91,0s5.58,2.18,5.28,17.55a2.75,2.75,0,0,1-2.28,0s-.59-10.9-1.59-12.09-.66,15.37-.66,15.37l-9.64.1-.51-15.46S90.1,184.83,89.1,197.42Z"/><path class="cls-1" d="M100.4,179.49s5.58,2.18,5.28,17.55a2.75,2.75,0,0,1-2.28,0s-.59-10.9-1.59-12.09S97.77,178.93,100.4,179.49Z"/><path class="cls-1" d="M101.43,213.41a2.17,2.17,0,1,1-4.34,0Z"/></g><g id="people_copy_5" data-name="people copy 5"><rect class="cls-1" x="111.77" y="198.92" width="4.34" height="14.49"/><path class="cls-1" d="M116.12,213.41a2.17,2.17,0,1,1-4.34,0Z"/><rect class="cls-1" x="117.09" y="199.88" width="4.34" height="13.53"/><circle class="cls-1" cx="116.48" cy="174.19" r="4.19"/><path class="cls-2" d="M124.61,177"/><path class="cls-1" d="M109.1,197.42a2.59,2.59,0,0,1-2.08,0s-.7-14.57,5.75-18a18.92,18.92,0,0,1,7.91,0s5.58,2.18,5.28,17.55a2.75,2.75,0,0,1-2.28,0s-.59-10.9-1.59-12.09-.66,15.37-.66,15.37l-9.64.1-.51-15.46S110.1,184.83,109.1,197.42Z"/><path class="cls-1" d="M120.4,179.49s5.58,2.18,5.28,17.55a2.75,2.75,0,0,1-2.28,0s-.59-10.9-1.59-12.09S117.77,178.93,120.4,179.49Z"/><path class="cls-1" d="M121.43,213.41a2.17,2.17,0,1,1-4.34,0Z"/></g><g id="people_copy_6" data-name="people copy 6"><rect class="cls-1" x="133.77" y="198.92" width="4.34" height="14.49"/><path class="cls-1" d="M138.12,213.41a2.17,2.17,0,1,1-4.34,0Z"/><rect class="cls-1" x="139.09" y="199.88" width="4.34" height="13.53"/><circle class="cls-1" cx="138.48" cy="174.19" r="4.19"/><path class="cls-2" d="M146.61,177"/><path class="cls-1" d="M131.1,197.42a2.59,2.59,0,0,1-2.08,0s-.7-14.57,5.75-18a18.92,18.92,0,0,1,7.91,0s5.58,2.18,5.28,17.55a2.75,2.75,0,0,1-2.28,0s-.59-10.9-1.59-12.09-.66,15.37-.66,15.37l-9.64.1-.51-15.46S132.1,184.83,131.1,197.42Z"/><path class="cls-1" d="M142.4,179.49s5.58,2.18,5.28,17.55a2.75,2.75,0,0,1-2.28,0s-.59-10.9-1.59-12.09S139.77,178.93,142.4,179.49Z"/><path class="cls-1" d="M143.43,213.41a2.17,2.17,0,1,1-4.34,0Z"/></g><g id="people_copy_7" data-name="people copy 7"><rect class="cls-1" x="155.77" y="198.92" width="4.34" height="14.49"/><path class="cls-1" d="M160.12,213.41a2.17,2.17,0,1,1-4.34,0Z"/><rect class="cls-1" x="161.09" y="199.88" width="4.34" height="13.53"/><circle class="cls-1" cx="160.48" cy="174.19" r="4.19"/><path class="cls-2" d="M168.61,177"/><path class="cls-1" d="M153.1,197.42a2.59,2.59,0,0,1-2.08,0s-.7-14.57,5.75-18a18.92,18.92,0,0,1,7.91,0s5.58,2.18,5.28,17.55a2.75,2.75,0,0,1-2.28,0s-.59-10.9-1.59-12.09-.66,15.37-.66,15.37l-9.64.1-.51-15.46S154.1,184.83,153.1,197.42Z"/><path class="cls-1" d="M164.4,179.49s5.58,2.18,5.28,17.55a2.75,2.75,0,0,1-2.28,0s-.59-10.9-1.59-12.09S161.77,178.93,164.4,179.49Z"/><path class="cls-1" d="M165.43,213.41a2.17,2.17,0,1,1-4.34,0Z"/></g><g id="people_copy_8" data-name="people copy 8"><rect class="cls-1" x="177.77" y="198.92" width="4.34" height="14.49"/><path class="cls-1" d="M182.12,213.41a2.17,2.17,0,1,1-4.34,0Z"/><rect class="cls-1" x="183.09" y="199.88" width="4.34" height="13.53"/><circle class="cls-1" cx="182.48" cy="174.19" r="4.19"/><path class="cls-2" d="M190.61,177"/><path class="cls-1" d="M175.1,197.42a2.59,2.59,0,0,1-2.08,0s-.7-14.57,5.75-18a18.92,18.92,0,0,1,7.91,0s5.58,2.18,5.28,17.55a2.75,2.75,0,0,1-2.28,0s-.59-10.9-1.59-12.09-.66,15.37-.66,15.37l-9.64.1-.51-15.46S176.1,184.83,175.1,197.42Z"/><path class="cls-1" d="M186.4,179.49s5.58,2.18,5.28,17.55a2.75,2.75,0,0,1-2.28,0s-.59-10.9-1.59-12.09S183.77,178.93,186.4,179.49Z"/><path class="cls-1" d="M187.43,213.41a2.17,2.17,0,1,1-4.34,0Z"/></g><g id="people_copy_9" data-name="people copy 9"><rect class="cls-1" x="199.77" y="198.92" width="4.34" height="14.49"/><path class="cls-1" d="M204.12,213.41a2.17,2.17,0,1,1-4.34,0Z"/><rect class="cls-1" x="205.09" y="199.88" width="4.34" height="13.53"/><circle class="cls-1" cx="204.48" cy="174.19" r="4.19"/><path class="cls-2" d="M212.61,177"/><path class="cls-1" d="M197.1,197.42a2.59,2.59,0,0,1-2.08,0s-.7-14.57,5.75-18a18.92,18.92,0,0,1,7.91,0s5.58,2.18,5.28,17.55a2.75,2.75,0,0,1-2.28,0s-.59-10.9-1.59-12.09-.66,15.37-.66,15.37l-9.64.1-.51-15.46S198.1,184.83,197.1,197.42Z"/><path class="cls-1" d="M208.4,179.49s5.58,2.18,5.28,17.55a2.75,2.75,0,0,1-2.28,0s-.59-10.9-1.59-12.09S205.77,178.93,208.4,179.49Z"/><path class="cls-1" d="M209.43,213.41a2.17,2.17,0,1,1-4.34,0Z"/></g></g><g id="people_copy_10" data-name="people copy 10"><rect class="cls-1" x="199.77" y="144.92" width="4.34" height="14.49"/><path class="cls-1" d="M204.12,159.41a2.17,2.17,0,1,1-4.34,0Z"/><rect class="cls-1" x="205.09" y="145.88" width="4.34" height="13.53"/><circle class="cls-1" cx="204.48" cy="120.19" r="4.19"/><path class="cls-2" d="M212.61,123"/><path class="cls-1" d="M197.1,143.42a2.59,2.59,0,0,1-2.08,0s-.7-14.57,5.75-18a18.92,18.92,0,0,1,7.91,0s5.58,2.18,5.28,17.55a2.75,2.75,0,0,1-2.28,0s-.59-10.9-1.59-12.09-.66,15.37-.66,15.37l-9.64.1-.51-15.46S198.1,130.83,197.1,143.42Z"/><path class="cls-1" d="M208.4,125.49s5.58,2.18,5.28,17.55a2.75,2.75,0,0,1-2.28,0s-.59-10.9-1.59-12.09S205.77,124.93,208.4,125.49Z"/><path class="cls-1" d="M209.43,159.41a2.17,2.17,0,1,1-4.34,0Z"/></g><g id="Layer_21_copy" data-name="Layer 21 copy"><g id="people_copy_11" data-name="people copy 11"><rect class="cls-1" x="4.77" y="144.92" width="4.34" height="14.49"/><path class="cls-1" d="M9.12,159.41a2.33,2.33,0,0,1-2.17,2.21,2.33,2.33,0,0,1-2.17-2.21Z"/><rect class="cls-1" x="10.09" y="145.88" width="4.34" height="13.53"/><circle class="cls-1" cx="9.48" cy="120.19" r="4.19"/><path class="cls-2" d="M17.61,123"/><path class="cls-1" d="M2.1,143.42a2.59,2.59,0,0,1-2.08,0s-.7-14.57,5.75-18a18.92,18.92,0,0,1,7.91,0s5.58,2.18,5.28,17.55a2.75,2.75,0,0,1-2.28,0s-.59-10.9-1.59-12.09-.66,15.37-.66,15.37l-9.64.1-.51-15.46S3.1,130.83,2.1,143.42Z"/><path class="cls-1" d="M13.4,125.49S19,127.67,18.67,143a2.75,2.75,0,0,1-2.28,0s-.59-10.9-1.59-12.09S10.77,124.93,13.4,125.49Z"/><path class="cls-1" d="M14.43,159.41a2.33,2.33,0,0,1-2.17,2.21,2.33,2.33,0,0,1-2.17-2.21Z"/></g><g id="people_copy_11-2" data-name="people copy 11"><rect class="cls-1" x="25.77" y="144.92" width="4.34" height="14.49"/><path class="cls-1" d="M30.12,159.41a2.33,2.33,0,0,1-2.17,2.21,2.33,2.33,0,0,1-2.17-2.21Z"/><rect class="cls-1" x="31.09" y="145.88" width="4.34" height="13.53"/><circle class="cls-1" cx="30.48" cy="120.19" r="4.19"/><path class="cls-2" d="M38.61,123"/><path class="cls-1" d="M23.1,143.42a2.59,2.59,0,0,1-2.08,0s-.7-14.57,5.75-18a18.92,18.92,0,0,1,7.91,0s5.58,2.18,5.28,17.55a2.75,2.75,0,0,1-2.28,0s-.59-10.9-1.59-12.09-.66,15.37-.66,15.37l-9.64.1-.51-15.46S24.1,130.83,23.1,143.42Z"/><path class="cls-1" d="M34.4,125.49S40,127.67,39.67,143a2.75,2.75,0,0,1-2.28,0s-.59-10.9-1.59-12.09S31.77,124.93,34.4,125.49Z"/><path class="cls-1" d="M35.43,159.41a2.17,2.17,0,1,1-4.34,0Z"/></g><g id="people_copy_11-3" data-name="people copy 11"><rect class="cls-1" x="47.77" y="144.92" width="4.34" height="14.49"/><path class="cls-1" d="M52.12,159.41a2.17,2.17,0,1,1-4.34,0Z"/><rect class="cls-1" x="53.09" y="145.88" width="4.34" height="13.53"/><circle class="cls-1" cx="52.48" cy="120.19" r="4.19"/><path class="cls-2" d="M60.61,123"/><path class="cls-1" d="M45.1,143.42a2.59,2.59,0,0,1-2.08,0s-.7-14.57,5.75-18a18.92,18.92,0,0,1,7.91,0s5.58,2.18,5.28,17.55a2.75,2.75,0,0,1-2.28,0s-.59-10.9-1.59-12.09-.66,15.37-.66,15.37l-9.64.1-.51-15.46S46.1,130.83,45.1,143.42Z"/><path class="cls-1" d="M56.4,125.49S62,127.67,61.67,143a2.75,2.75,0,0,1-2.28,0s-.59-10.9-1.59-12.09S53.77,124.93,56.4,125.49Z"/><path class="cls-1" d="M57.43,159.41a2.17,2.17,0,1,1-4.34,0Z"/></g><g id="people_copy_11-4" data-name="people copy 11"><rect class="cls-1" x="69.77" y="144.92" width="4.34" height="14.49"/><path class="cls-1" d="M74.12,159.41a2.17,2.17,0,1,1-4.34,0Z"/><rect class="cls-1" x="75.09" y="145.88" width="4.34" height="13.53"/><circle class="cls-1" cx="74.48" cy="120.19" r="4.19"/><path class="cls-2" d="M82.61,123"/><path class="cls-1" d="M67.1,143.42a2.59,2.59,0,0,1-2.08,0s-.7-14.57,5.75-18a18.92,18.92,0,0,1,7.91,0s5.58,2.18,5.28,17.55a2.75,2.75,0,0,1-2.28,0s-.59-10.9-1.59-12.09-.66,15.37-.66,15.37l-9.64.1-.51-15.46S68.1,130.83,67.1,143.42Z"/><path class="cls-1" d="M78.4,125.49S84,127.67,83.67,143a2.75,2.75,0,0,1-2.28,0s-.59-10.9-1.59-12.09S75.77,124.93,78.4,125.49Z"/><path class="cls-1" d="M79.43,159.41a2.17,2.17,0,1,1-4.34,0Z"/></g><g id="people_copy_11-5" data-name="people copy 11"><rect class="cls-1" x="91.77" y="144.92" width="4.34" height="14.49"/><path class="cls-1" d="M96.12,159.41a2.17,2.17,0,1,1-4.34,0Z"/><rect class="cls-1" x="97.09" y="145.88" width="4.34" height="13.53"/><circle class="cls-1" cx="96.48" cy="120.19" r="4.19"/><path class="cls-2" d="M104.61,123"/><path class="cls-1" d="M89.1,143.42a2.59,2.59,0,0,1-2.08,0s-.7-14.57,5.75-18a18.92,18.92,0,0,1,7.91,0s5.58,2.18,5.28,17.55a2.75,2.75,0,0,1-2.28,0s-.59-10.9-1.59-12.09-.66,15.37-.66,15.37l-9.64.1-.51-15.46S90.1,130.83,89.1,143.42Z"/><path class="cls-1" d="M100.4,125.49s5.58,2.18,5.28,17.55a2.75,2.75,0,0,1-2.28,0s-.59-10.9-1.59-12.09S97.77,124.93,100.4,125.49Z"/><path class="cls-1" d="M101.43,159.41a2.17,2.17,0,1,1-4.34,0Z"/></g><g id="people_copy_11-6" data-name="people copy 11"><rect class="cls-1" x="111.77" y="144.92" width="4.34" height="14.49"/><path class="cls-1" d="M116.12,159.41a2.17,2.17,0,1,1-4.34,0Z"/><rect class="cls-1" x="117.09" y="145.88" width="4.34" height="13.53"/><circle class="cls-1" cx="116.48" cy="120.19" r="4.19"/><path class="cls-2" d="M124.61,123"/><path class="cls-1" d="M109.1,143.42a2.59,2.59,0,0,1-2.08,0s-.7-14.57,5.75-18a18.92,18.92,0,0,1,7.91,0s5.58,2.18,5.28,17.55a2.75,2.75,0,0,1-2.28,0s-.59-10.9-1.59-12.09-.66,15.37-.66,15.37l-9.64.1-.51-15.46S110.1,130.83,109.1,143.42Z"/><path class="cls-1" d="M120.4,125.49s5.58,2.18,5.28,17.55a2.75,2.75,0,0,1-2.28,0s-.59-10.9-1.59-12.09S117.77,124.93,120.4,125.49Z"/><path class="cls-1" d="M121.43,159.41a2.17,2.17,0,1,1-4.34,0Z"/></g><g id="people_copy_11-7" data-name="people copy 11"><rect class="cls-1" x="133.77" y="144.92" width="4.34" height="14.49"/><path class="cls-1" d="M138.12,159.41a2.17,2.17,0,1,1-4.34,0Z"/><rect class="cls-1" x="139.09" y="145.88" width="4.34" height="13.53"/><circle class="cls-1" cx="138.48" cy="120.19" r="4.19"/><path class="cls-2" d="M146.61,123"/><path class="cls-1" d="M131.1,143.42a2.59,2.59,0,0,1-2.08,0s-.7-14.57,5.75-18a18.92,18.92,0,0,1,7.91,0s5.58,2.18,5.28,17.55a2.75,2.75,0,0,1-2.28,0s-.59-10.9-1.59-12.09-.66,15.37-.66,15.37l-9.64.1-.51-15.46S132.1,130.83,131.1,143.42Z"/><path class="cls-1" d="M142.4,125.49s5.58,2.18,5.28,17.55a2.75,2.75,0,0,1-2.28,0s-.59-10.9-1.59-12.09S139.77,124.93,142.4,125.49Z"/><path class="cls-1" d="M143.43,159.41a2.17,2.17,0,1,1-4.34,0Z"/></g><g id="people_copy_11-8" data-name="people copy 11"><rect class="cls-1" x="155.77" y="144.92" width="4.34" height="14.49"/><path class="cls-1" d="M160.12,159.41a2.17,2.17,0,1,1-4.34,0Z"/><rect class="cls-1" x="161.09" y="145.88" width="4.34" height="13.53"/><circle class="cls-1" cx="160.48" cy="120.19" r="4.19"/><path class="cls-2" d="M168.61,123"/><path class="cls-1" d="M153.1,143.42a2.59,2.59,0,0,1-2.08,0s-.7-14.57,5.75-18a18.92,18.92,0,0,1,7.91,0s5.58,2.18,5.28,17.55a2.75,2.75,0,0,1-2.28,0s-.59-10.9-1.59-12.09-.66,15.37-.66,15.37l-9.64.1-.51-15.46S154.1,130.83,153.1,143.42Z"/><path class="cls-1" d="M164.4,125.49s5.58,2.18,5.28,17.55a2.75,2.75,0,0,1-2.28,0s-.59-10.9-1.59-12.09S161.77,124.93,164.4,125.49Z"/><path class="cls-1" d="M165.43,159.41a2.17,2.17,0,1,1-4.34,0Z"/></g><g id="people_copy_11-9" data-name="people copy 11"><rect class="cls-1" x="177.77" y="144.92" width="4.34" height="14.49"/><path class="cls-1" d="M182.12,159.41a2.17,2.17,0,1,1-4.34,0Z"/><rect class="cls-1" x="183.09" y="145.88" width="4.34" height="13.53"/><circle class="cls-1" cx="182.48" cy="120.19" r="4.19"/><path class="cls-2" d="M190.61,123"/><path class="cls-1" d="M175.1,143.42a2.59,2.59,0,0,1-2.08,0s-.7-14.57,5.75-18a18.92,18.92,0,0,1,7.91,0s5.58,2.18,5.28,17.55a2.75,2.75,0,0,1-2.28,0s-.59-10.9-1.59-12.09-.66,15.37-.66,15.37l-9.64.1-.51-15.46S176.1,130.83,175.1,143.42Z"/><path class="cls-1" d="M186.4,125.49s5.58,2.18,5.28,17.55a2.75,2.75,0,0,1-2.28,0s-.59-10.9-1.59-12.09S183.77,124.93,186.4,125.49Z"/><path class="cls-1" d="M187.43,159.41a2.17,2.17,0,1,1-4.34,0Z"/></g><g id="people_copy_11-10" data-name="people copy 11"><rect class="cls-1" x="199.77" y="144.92" width="4.34" height="14.49"/><path class="cls-1" d="M204.12,159.41a2.17,2.17,0,1,1-4.34,0Z"/><rect class="cls-1" x="205.09" y="145.88" width="4.34" height="13.53"/><circle class="cls-1" cx="204.48" cy="120.19" r="4.19"/><path class="cls-2" d="M212.61,123"/><path class="cls-1" d="M197.1,143.42a2.59,2.59,0,0,1-2.08,0s-.7-14.57,5.75-18a18.92,18.92,0,0,1,7.91,0s5.58,2.18,5.28,17.55a2.75,2.75,0,0,1-2.28,0s-.59-10.9-1.59-12.09-.66,15.37-.66,15.37l-9.64.1-.51-15.46S198.1,130.83,197.1,143.42Z"/><path class="cls-1" d="M208.4,125.49s5.58,2.18,5.28,17.55a2.75,2.75,0,0,1-2.28,0s-.59-10.9-1.59-12.09S205.77,124.93,208.4,125.49Z"/><path class="cls-1" d="M209.43,159.41a2.17,2.17,0,1,1-4.34,0Z"/></g></g><g id="people_copy_12" data-name="people copy 12"><rect class="cls-1" x="199.77" y="86.92" width="4.34" height="14.49"/><path class="cls-1" d="M204.12,101.41a2.17,2.17,0,1,1-4.34,0Z"/><rect class="cls-1" x="205.09" y="87.88" width="4.34" height="13.53"/><circle class="cls-1" cx="204.48" cy="62.19" r="4.19"/><path class="cls-2" d="M212.61,65"/><path class="cls-1" d="M197.1,85.42a2.59,2.59,0,0,1-2.08,0s-.7-14.57,5.75-18a18.92,18.92,0,0,1,7.91,0s5.58,2.18,5.28,17.55a2.75,2.75,0,0,1-2.28,0s-.59-10.9-1.59-12.09-.66,15.37-.66,15.37l-9.64.1-.51-15.46S198.1,72.83,197.1,85.42Z"/><path class="cls-1" d="M208.4,67.49S214,69.67,213.67,85a2.75,2.75,0,0,1-2.28,0s-.59-10.9-1.59-12.09S205.77,66.93,208.4,67.49Z"/><path class="cls-1" d="M209.43,101.41a2.17,2.17,0,1,1-4.34,0Z"/></g><g id="Layer_21_copy_2" data-name="Layer 21 copy 2"><g id="people_copy_13" data-name="people copy 13"><rect class="cls-1" x="4.77" y="86.92" width="4.34" height="14.49"/><path class="cls-1" d="M9.12,101.41a2.33,2.33,0,0,1-2.17,2.21,2.33,2.33,0,0,1-2.17-2.21Z"/><rect class="cls-1" x="10.09" y="87.88" width="4.34" height="13.53"/><circle class="cls-1" cx="9.48" cy="62.19" r="4.19"/><path class="cls-2" d="M17.61,65"/><path class="cls-1" d="M2.1,85.42a2.59,2.59,0,0,1-2.08,0s-.7-14.57,5.75-18a18.92,18.92,0,0,1,7.91,0S19.25,69.56,19,84.92a2.75,2.75,0,0,1-2.28,0S16.08,74,15.09,72.83s-.66,15.37-.66,15.37l-9.64.1L4.28,72.83S3.1,72.83,2.1,85.42Z"/><path class="cls-1" d="M13.4,67.49S19,69.67,18.67,85a2.75,2.75,0,0,1-2.28,0s-.59-10.9-1.59-12.09S10.77,66.93,13.4,67.49Z"/><path class="cls-1" d="M14.43,101.41a2.33,2.33,0,0,1-2.17,2.21,2.33,2.33,0,0,1-2.17-2.21Z"/></g><g id="people_copy_13-2" data-name="people copy 13"><rect class="cls-1" x="25.77" y="86.92" width="4.34" height="14.49"/><path class="cls-1" d="M30.12,101.41a2.33,2.33,0,0,1-2.17,2.21,2.33,2.33,0,0,1-2.17-2.21Z"/><rect class="cls-1" x="31.09" y="87.88" width="4.34" height="13.53"/><circle class="cls-1" cx="30.48" cy="62.19" r="4.19"/><path class="cls-2" d="M38.61,65"/><path class="cls-1" d="M23.1,85.42a2.59,2.59,0,0,1-2.08,0s-.7-14.57,5.75-18a18.92,18.92,0,0,1,7.91,0S40.25,69.56,40,84.92a2.75,2.75,0,0,1-2.28,0S37.08,74,36.09,72.83s-.66,15.37-.66,15.37l-9.64.1-.51-15.46S24.1,72.83,23.1,85.42Z"/><path class="cls-1" d="M34.4,67.49S40,69.67,39.67,85a2.75,2.75,0,0,1-2.28,0s-.59-10.9-1.59-12.09S31.77,66.93,34.4,67.49Z"/><path class="cls-1" d="M35.43,101.41a2.17,2.17,0,1,1-4.34,0Z"/></g><g id="people_copy_13-3" data-name="people copy 13"><rect class="cls-1" x="47.77" y="86.92" width="4.34" height="14.49"/><path class="cls-1" d="M52.12,101.41a2.17,2.17,0,1,1-4.34,0Z"/><rect class="cls-1" x="53.09" y="87.88" width="4.34" height="13.53"/><circle class="cls-1" cx="52.48" cy="62.19" r="4.19"/><path class="cls-2" d="M60.61,65"/><path class="cls-1" d="M45.1,85.42a2.59,2.59,0,0,1-2.08,0s-.7-14.57,5.75-18a18.92,18.92,0,0,1,7.91,0S62.25,69.56,62,84.92a2.75,2.75,0,0,1-2.28,0S59.08,74,58.09,72.83s-.66,15.37-.66,15.37l-9.64.1-.51-15.46S46.1,72.83,45.1,85.42Z"/><path class="cls-1" d="M56.4,67.49S62,69.67,61.67,85a2.75,2.75,0,0,1-2.28,0s-.59-10.9-1.59-12.09S53.77,66.93,56.4,67.49Z"/><path class="cls-1" d="M57.43,101.41a2.17,2.17,0,1,1-4.34,0Z"/></g><g id="people_copy_13-4" data-name="people copy 13"><rect class="cls-1" x="69.77" y="86.92" width="4.34" height="14.49"/><path class="cls-1" d="M74.12,101.41a2.17,2.17,0,1,1-4.34,0Z"/><rect class="cls-1" x="75.09" y="87.88" width="4.34" height="13.53"/><circle class="cls-1" cx="74.48" cy="62.19" r="4.19"/><path class="cls-2" d="M82.61,65"/><path class="cls-1" d="M67.1,85.42a2.59,2.59,0,0,1-2.08,0s-.7-14.57,5.75-18a18.92,18.92,0,0,1,7.91,0S84.25,69.56,84,84.92a2.75,2.75,0,0,1-2.28,0S81.08,74,80.09,72.83s-.66,15.37-.66,15.37l-9.64.1-.51-15.46S68.1,72.83,67.1,85.42Z"/><path class="cls-1" d="M78.4,67.49S84,69.67,83.67,85a2.75,2.75,0,0,1-2.28,0s-.59-10.9-1.59-12.09S75.77,66.93,78.4,67.49Z"/><path class="cls-1" d="M79.43,101.41a2.17,2.17,0,1,1-4.34,0Z"/></g><g id="people_copy_13-5" data-name="people copy 13"><rect class="cls-1" x="91.77" y="86.92" width="4.34" height="14.49"/><path class="cls-1" d="M96.12,101.41a2.17,2.17,0,1,1-4.34,0Z"/><rect class="cls-1" x="97.09" y="87.88" width="4.34" height="13.53"/><circle class="cls-1" cx="96.48" cy="62.19" r="4.19"/><path class="cls-2" d="M104.61,65"/><path class="cls-1" d="M89.1,85.42a2.59,2.59,0,0,1-2.08,0s-.7-14.57,5.75-18a18.92,18.92,0,0,1,7.91,0s5.58,2.18,5.28,17.55a2.75,2.75,0,0,1-2.28,0s-.59-10.9-1.59-12.09-.66,15.37-.66,15.37l-9.64.1-.51-15.46S90.1,72.83,89.1,85.42Z"/><path class="cls-1" d="M100.4,67.49S106,69.67,105.67,85a2.75,2.75,0,0,1-2.28,0s-.59-10.9-1.59-12.09S97.77,66.93,100.4,67.49Z"/><path class="cls-1" d="M101.43,101.41a2.17,2.17,0,1,1-4.34,0Z"/></g><g id="people_copy_13-6" data-name="people copy 13"><rect class="cls-1" x="111.77" y="86.92" width="4.34" height="14.49"/><path class="cls-1" d="M116.12,101.41a2.17,2.17,0,1,1-4.34,0Z"/><rect class="cls-1" x="117.09" y="87.88" width="4.34" height="13.53"/><circle class="cls-1" cx="116.48" cy="62.19" r="4.19"/><path class="cls-2" d="M124.61,65"/><path class="cls-1" d="M109.1,85.42a2.59,2.59,0,0,1-2.08,0s-.7-14.57,5.75-18a18.92,18.92,0,0,1,7.91,0s5.58,2.18,5.28,17.55a2.75,2.75,0,0,1-2.28,0s-.59-10.9-1.59-12.09-.66,15.37-.66,15.37l-9.64.1-.51-15.46S110.1,72.83,109.1,85.42Z"/><path class="cls-1" d="M120.4,67.49S126,69.67,125.67,85a2.75,2.75,0,0,1-2.28,0s-.59-10.9-1.59-12.09S117.77,66.93,120.4,67.49Z"/><path class="cls-1" d="M121.43,101.41a2.17,2.17,0,1,1-4.34,0Z"/></g><g id="people_copy_13-7" data-name="people copy 13"><rect class="cls-1" x="133.77" y="86.92" width="4.34" height="14.49"/><path class="cls-1" d="M138.12,101.41a2.17,2.17,0,1,1-4.34,0Z"/><rect class="cls-1" x="139.09" y="87.88" width="4.34" height="13.53"/><circle class="cls-1" cx="138.48" cy="62.19" r="4.19"/><path class="cls-2" d="M146.61,65"/><path class="cls-1" d="M131.1,85.42a2.59,2.59,0,0,1-2.08,0s-.7-14.57,5.75-18a18.92,18.92,0,0,1,7.91,0s5.58,2.18,5.28,17.55a2.75,2.75,0,0,1-2.28,0s-.59-10.9-1.59-12.09-.66,15.37-.66,15.37l-9.64.1-.51-15.46S132.1,72.83,131.1,85.42Z"/><path class="cls-1" d="M142.4,67.49S148,69.67,147.67,85a2.75,2.75,0,0,1-2.28,0s-.59-10.9-1.59-12.09S139.77,66.93,142.4,67.49Z"/><path class="cls-1" d="M143.43,101.41a2.17,2.17,0,1,1-4.34,0Z"/></g><g id="people_copy_13-8" data-name="people copy 13"><rect class="cls-1" x="155.77" y="86.92" width="4.34" height="14.49"/><path class="cls-1" d="M160.12,101.41a2.17,2.17,0,1,1-4.34,0Z"/><rect class="cls-1" x="161.09" y="87.88" width="4.34" height="13.53"/><circle class="cls-1" cx="160.48" cy="62.19" r="4.19"/><path class="cls-2" d="M168.61,65"/><path class="cls-1" d="M153.1,85.42a2.59,2.59,0,0,1-2.08,0s-.7-14.57,5.75-18a18.92,18.92,0,0,1,7.91,0s5.58,2.18,5.28,17.55a2.75,2.75,0,0,1-2.28,0s-.59-10.9-1.59-12.09-.66,15.37-.66,15.37l-9.64.1-.51-15.46S154.1,72.83,153.1,85.42Z"/><path class="cls-1" d="M164.4,67.49S170,69.67,169.67,85a2.75,2.75,0,0,1-2.28,0s-.59-10.9-1.59-12.09S161.77,66.93,164.4,67.49Z"/><path class="cls-1" d="M165.43,101.41a2.17,2.17,0,1,1-4.34,0Z"/></g><g id="people_copy_13-9" data-name="people copy 13"><rect class="cls-1" x="177.77" y="86.92" width="4.34" height="14.49"/><path class="cls-1" d="M182.12,101.41a2.17,2.17,0,1,1-4.34,0Z"/><rect class="cls-1" x="183.09" y="87.88" width="4.34" height="13.53"/><circle class="cls-1" cx="182.48" cy="62.19" r="4.19"/><path class="cls-2" d="M190.61,65"/><path class="cls-1" d="M175.1,85.42a2.59,2.59,0,0,1-2.08,0s-.7-14.57,5.75-18a18.92,18.92,0,0,1,7.91,0s5.58,2.18,5.28,17.55a2.75,2.75,0,0,1-2.28,0s-.59-10.9-1.59-12.09-.66,15.37-.66,15.37l-9.64.1-.51-15.46S176.1,72.83,175.1,85.42Z"/><path class="cls-1" d="M186.4,67.49S192,69.67,191.67,85a2.75,2.75,0,0,1-2.28,0s-.59-10.9-1.59-12.09S183.77,66.93,186.4,67.49Z"/><path class="cls-1" d="M187.43,101.41a2.17,2.17,0,1,1-4.34,0Z"/></g><g id="people_copy_13-10" data-name="people copy 13"><rect class="cls-1" x="199.77" y="86.92" width="4.34" height="14.49"/><path class="cls-1" d="M204.12,101.41a2.17,2.17,0,1,1-4.34,0Z"/><rect class="cls-1" x="205.09" y="87.88" width="4.34" height="13.53"/><circle class="cls-1" cx="204.48" cy="62.19" r="4.19"/><path class="cls-2" d="M212.61,65"/><path class="cls-1" d="M197.1,85.42a2.59,2.59,0,0,1-2.08,0s-.7-14.57,5.75-18a18.92,18.92,0,0,1,7.91,0s5.58,2.18,5.28,17.55a2.75,2.75,0,0,1-2.28,0s-.59-10.9-1.59-12.09-.66,15.37-.66,15.37l-9.64.1-.51-15.46S198.1,72.83,197.1,85.42Z"/><path class="cls-1" d="M208.4,67.49S214,69.67,213.67,85a2.75,2.75,0,0,1-2.28,0s-.59-10.9-1.59-12.09S205.77,66.93,208.4,67.49Z"/><path class="cls-1" d="M209.43,101.41a2.17,2.17,0,1,1-4.34,0Z"/></g></g><g id="people_copy_14" data-name="people copy 14"><rect class="cls-1" x="199.77" y="28.92" width="4.34" height="14.49"/><path class="cls-1" d="M204.12,43.41a2.17,2.17,0,1,1-4.34,0Z"/><rect class="cls-1" x="205.09" y="29.88" width="4.34" height="13.53"/><circle class="cls-1" cx="204.48" cy="4.19" r="4.19"/><path class="cls-2" d="M212.61,7"/><path class="cls-1" d="M197.1,27.42a2.59,2.59,0,0,1-2.08,0s-.7-14.57,5.75-18a18.92,18.92,0,0,1,7.91,0s5.58,2.18,5.28,17.55a2.75,2.75,0,0,1-2.28,0s-.59-10.9-1.59-12.09-.66,15.37-.66,15.37l-9.64.1-.51-15.46S198.1,14.83,197.1,27.42Z"/><path class="cls-1" d="M208.4,9.49S214,11.67,213.67,27a2.75,2.75,0,0,1-2.28,0s-.59-10.9-1.59-12.09S205.77,8.93,208.4,9.49Z"/><path class="cls-1" d="M209.43,43.41a2.17,2.17,0,1,1-4.34,0Z"/></g><g id="Layer_21_copy_3" data-name="Layer 21 copy 3"><g id="people_copy_15" data-name="people copy 15"><rect class="cls-1" x="4.77" y="28.92" width="4.34" height="14.49"/><path class="cls-1" d="M9.12,43.41a2.33,2.33,0,0,1-2.17,2.21,2.33,2.33,0,0,1-2.17-2.21Z"/><rect class="cls-1" x="10.09" y="29.88" width="4.34" height="13.53"/><circle class="cls-1" cx="9.48" cy="4.19" r="4.19"/><path class="cls-2" d="M17.61,7"/><path class="cls-1" d="M2.1,27.42a2.59,2.59,0,0,1-2.08,0s-.7-14.57,5.75-18a18.92,18.92,0,0,1,7.91,0S19.25,11.56,19,26.92a2.75,2.75,0,0,1-2.28,0S16.08,16,15.09,14.83s-.66,15.37-.66,15.37l-9.64.1L4.28,14.83S3.1,14.83,2.1,27.42Z"/><path class="cls-1" d="M13.4,9.49S19,11.67,18.67,27a2.75,2.75,0,0,1-2.28,0s-.59-10.9-1.59-12.09S10.77,8.93,13.4,9.49Z"/><path class="cls-1" d="M14.43,43.41a2.33,2.33,0,0,1-2.17,2.21,2.33,2.33,0,0,1-2.17-2.21Z"/></g><g id="people_copy_15-2" data-name="people copy 15"><rect class="cls-1" x="25.77" y="28.92" width="4.34" height="14.49"/><path class="cls-1" d="M30.12,43.41a2.33,2.33,0,0,1-2.17,2.21,2.33,2.33,0,0,1-2.17-2.21Z"/><rect class="cls-1" x="31.09" y="29.88" width="4.34" height="13.53"/><circle class="cls-1" cx="30.48" cy="4.19" r="4.19"/><path class="cls-2" d="M38.61,7"/><path class="cls-1" d="M23.1,27.42a2.59,2.59,0,0,1-2.08,0s-.7-14.57,5.75-18a18.92,18.92,0,0,1,7.91,0S40.25,11.56,40,26.92a2.75,2.75,0,0,1-2.28,0S37.08,16,36.09,14.83s-.66,15.37-.66,15.37l-9.64.1-.51-15.46S24.1,14.83,23.1,27.42Z"/><path class="cls-1" d="M34.4,9.49S40,11.67,39.67,27a2.75,2.75,0,0,1-2.28,0s-.59-10.9-1.59-12.09S31.77,8.93,34.4,9.49Z"/><path class="cls-1" d="M35.43,43.41a2.17,2.17,0,1,1-4.34,0Z"/></g><g id="people_copy_15-3" data-name="people copy 15"><rect class="cls-1" x="47.77" y="28.92" width="4.34" height="14.49"/><path class="cls-1" d="M52.12,43.41a2.17,2.17,0,1,1-4.34,0Z"/><rect class="cls-1" x="53.09" y="29.88" width="4.34" height="13.53"/><circle class="cls-1" cx="52.48" cy="4.19" r="4.19"/><path class="cls-2" d="M60.61,7"/><path class="cls-1" d="M45.1,27.42a2.59,2.59,0,0,1-2.08,0s-.7-14.57,5.75-18a18.92,18.92,0,0,1,7.91,0S62.25,11.56,62,26.92a2.75,2.75,0,0,1-2.28,0S59.08,16,58.09,14.83s-.66,15.37-.66,15.37l-9.64.1-.51-15.46S46.1,14.83,45.1,27.42Z"/><path class="cls-1" d="M56.4,9.49S62,11.67,61.67,27a2.75,2.75,0,0,1-2.28,0s-.59-10.9-1.59-12.09S53.77,8.93,56.4,9.49Z"/><path class="cls-1" d="M57.43,43.41a2.17,2.17,0,1,1-4.34,0Z"/></g><g id="people_copy_15-4" data-name="people copy 15"><rect class="cls-1" x="69.77" y="28.92" width="4.34" height="14.49"/><path class="cls-1" d="M74.12,43.41a2.17,2.17,0,1,1-4.34,0Z"/><rect class="cls-1" x="75.09" y="29.88" width="4.34" height="13.53"/><circle class="cls-1" cx="74.48" cy="4.19" r="4.19"/><path class="cls-2" d="M82.61,7"/><path class="cls-1" d="M67.1,27.42a2.59,2.59,0,0,1-2.08,0s-.7-14.57,5.75-18a18.92,18.92,0,0,1,7.91,0S84.25,11.56,84,26.92a2.75,2.75,0,0,1-2.28,0S81.08,16,80.09,14.83s-.66,15.37-.66,15.37l-9.64.1-.51-15.46S68.1,14.83,67.1,27.42Z"/><path class="cls-1" d="M78.4,9.49S84,11.67,83.67,27a2.75,2.75,0,0,1-2.28,0s-.59-10.9-1.59-12.09S75.77,8.93,78.4,9.49Z"/><path class="cls-1" d="M79.43,43.41a2.17,2.17,0,1,1-4.34,0Z"/></g><g id="people_copy_15-5" data-name="people copy 15"><rect class="cls-1" x="91.77" y="28.92" width="4.34" height="14.49"/><path class="cls-1" d="M96.12,43.41a2.17,2.17,0,1,1-4.34,0Z"/><rect class="cls-1" x="97.09" y="29.88" width="4.34" height="13.53"/><circle class="cls-1" cx="96.48" cy="4.19" r="4.19"/><path class="cls-2" d="M104.61,7"/><path class="cls-1" d="M89.1,27.42a2.59,2.59,0,0,1-2.08,0s-.7-14.57,5.75-18a18.92,18.92,0,0,1,7.91,0s5.58,2.18,5.28,17.55a2.75,2.75,0,0,1-2.28,0s-.59-10.9-1.59-12.09-.66,15.37-.66,15.37l-9.64.1-.51-15.46S90.1,14.83,89.1,27.42Z"/><path class="cls-1" d="M100.4,9.49S106,11.67,105.67,27a2.75,2.75,0,0,1-2.28,0s-.59-10.9-1.59-12.09S97.77,8.93,100.4,9.49Z"/><path class="cls-1" d="M101.43,43.41a2.17,2.17,0,1,1-4.34,0Z"/></g><g id="people_copy_15-6" data-name="people copy 15"><rect class="cls-1" x="111.77" y="28.92" width="4.34" height="14.49"/><path class="cls-1" d="M116.12,43.41a2.17,2.17,0,1,1-4.34,0Z"/><rect class="cls-1" x="117.09" y="29.88" width="4.34" height="13.53"/><circle class="cls-1" cx="116.48" cy="4.19" r="4.19"/><path class="cls-2" d="M124.61,7"/><path class="cls-1" d="M109.1,27.42a2.59,2.59,0,0,1-2.08,0s-.7-14.57,5.75-18a18.92,18.92,0,0,1,7.91,0s5.58,2.18,5.28,17.55a2.75,2.75,0,0,1-2.28,0s-.59-10.9-1.59-12.09-.66,15.37-.66,15.37l-9.64.1-.51-15.46S110.1,14.83,109.1,27.42Z"/><path class="cls-1" d="M120.4,9.49S126,11.67,125.67,27a2.75,2.75,0,0,1-2.28,0s-.59-10.9-1.59-12.09S117.77,8.93,120.4,9.49Z"/><path class="cls-1" d="M121.43,43.41a2.17,2.17,0,1,1-4.34,0Z"/></g><g id="people_copy_15-7" data-name="people copy 15"><rect class="cls-1" x="133.77" y="28.92" width="4.34" height="14.49"/><path class="cls-1" d="M138.12,43.41a2.17,2.17,0,1,1-4.34,0Z"/><rect class="cls-1" x="139.09" y="29.88" width="4.34" height="13.53"/><circle class="cls-1" cx="138.48" cy="4.19" r="4.19"/><path class="cls-2" d="M146.61,7"/><path class="cls-1" d="M131.1,27.42a2.59,2.59,0,0,1-2.08,0s-.7-14.57,5.75-18a18.92,18.92,0,0,1,7.91,0s5.58,2.18,5.28,17.55a2.75,2.75,0,0,1-2.28,0s-.59-10.9-1.59-12.09-.66,15.37-.66,15.37l-9.64.1-.51-15.46S132.1,14.83,131.1,27.42Z"/><path class="cls-1" d="M142.4,9.49S148,11.67,147.67,27a2.75,2.75,0,0,1-2.28,0s-.59-10.9-1.59-12.09S139.77,8.93,142.4,9.49Z"/><path class="cls-1" d="M143.43,43.41a2.17,2.17,0,1,1-4.34,0Z"/></g><g id="people_copy_15-8" data-name="people copy 15"><rect class="cls-1" x="155.77" y="28.92" width="4.34" height="14.49"/><path class="cls-1" d="M160.12,43.41a2.17,2.17,0,1,1-4.34,0Z"/><rect class="cls-1" x="161.09" y="29.88" width="4.34" height="13.53"/><circle class="cls-1" cx="160.48" cy="4.19" r="4.19"/><path class="cls-2" d="M168.61,7"/><path class="cls-1" d="M153.1,27.42a2.59,2.59,0,0,1-2.08,0s-.7-14.57,5.75-18a18.92,18.92,0,0,1,7.91,0s5.58,2.18,5.28,17.55a2.75,2.75,0,0,1-2.28,0s-.59-10.9-1.59-12.09-.66,15.37-.66,15.37l-9.64.1-.51-15.46S154.1,14.83,153.1,27.42Z"/><path class="cls-1" d="M164.4,9.49S170,11.67,169.67,27a2.75,2.75,0,0,1-2.28,0s-.59-10.9-1.59-12.09S161.77,8.93,164.4,9.49Z"/><path class="cls-1" d="M165.43,43.41a2.17,2.17,0,1,1-4.34,0Z"/></g><g id="people_copy_15-9" data-name="people copy 15"><rect class="cls-1" x="177.77" y="28.92" width="4.34" height="14.49"/><path class="cls-1" d="M182.12,43.41a2.17,2.17,0,1,1-4.34,0Z"/><rect class="cls-1" x="183.09" y="29.88" width="4.34" height="13.53"/><circle class="cls-1" cx="182.48" cy="4.19" r="4.19"/><path class="cls-2" d="M190.61,7"/><path class="cls-1" d="M175.1,27.42a2.59,2.59,0,0,1-2.08,0s-.7-14.57,5.75-18a18.92,18.92,0,0,1,7.91,0s5.58,2.18,5.28,17.55a2.75,2.75,0,0,1-2.28,0s-.59-10.9-1.59-12.09-.66,15.37-.66,15.37l-9.64.1-.51-15.46S176.1,14.83,175.1,27.42Z"/><path class="cls-1" d="M186.4,9.49S192,11.67,191.67,27a2.75,2.75,0,0,1-2.28,0s-.59-10.9-1.59-12.09S183.77,8.93,186.4,9.49Z"/><path class="cls-1" d="M187.43,43.41a2.17,2.17,0,1,1-4.34,0Z"/></g><g id="people_copy_15-10" data-name="people copy 15"><rect class="cls-1" x="199.77" y="28.92" width="4.34" height="14.49"/><path class="cls-1" d="M204.12,43.41a2.17,2.17,0,1,1-4.34,0Z"/><rect class="cls-1" x="205.09" y="29.88" width="4.34" height="13.53"/><circle class="cls-1" cx="204.48" cy="4.19" r="4.19"/><path class="cls-2" d="M212.61,7"/><path class="cls-1" d="M197.1,27.42a2.59,2.59,0,0,1-2.08,0s-.7-14.57,5.75-18a18.92,18.92,0,0,1,7.91,0s5.58,2.18,5.28,17.55a2.75,2.75,0,0,1-2.28,0s-.59-10.9-1.59-12.09-.66,15.37-.66,15.37l-9.64.1-.51-15.46S198.1,14.83,197.1,27.42Z"/><path class="cls-1" d="M208.4,9.49S214,11.67,213.67,27a2.75,2.75,0,0,1-2.28,0s-.59-10.9-1.59-12.09S205.77,8.93,208.4,9.49Z"/><path class="cls-1" d="M209.43,43.41a2.17,2.17,0,1,1-4.34,0Z"/></g></g></g></g></svg>