<?xml version="1.0" encoding="utf-8"?>
<!-- Generator: Adobe Illustrator 21.1.0, SVG Export Plug-In . SVG Version: 6.00 Build 0)  -->
<svg version="1.1" id="Layer_1" xmlns="http://www.w3.org/2000/svg" xmlns:xlink="http://www.w3.org/1999/xlink" x="0px" y="0px"
	 viewBox="0 0 430.4 97.2" style="enable-background:new 0 0 430.4 97.2;" xml:space="preserve">
<style type="text/css">
	<!--.st0{fill:#3E3D3D;}-->
	<!--.st1{fill:#FFFFFF;}-->
	.person{fill: #3E3D3D;}
</style>
<title>people-big</title>
	<g class="person">
		<rect x="4.8" y="28.9" class="st0" width="4.3" height="14.5"/>
		<path class="st0" d="M9.1,43.4c-0.1,1.2-1,2.1-2.2,2.2c-1.2-0.1-2.1-1-2.2-2.2H9.1z"/>
		<rect x="10.1" y="29.9" class="st0" width="4.3" height="13.5"/>
		<circle class="st0" cx="9.5" cy="4.2" r="4.2"/>
		<path class="st0" d="M2.1,27.4c-0.7,0.3-1.4,0.3-2.1,0c0,0-0.7-14.6,5.8-18c2.6-0.6,5.3-0.6,7.9,0c0,0,5.6,2.1,5.3,17.5
			c-0.7,0.3-1.6,0.3-2.3,0c0,0-0.6-10.9-1.6-12.1s-0.7,15.4-0.7,15.4l-9.6,0.1L4.3,14.8C4.3,14.8,3.1,14.8,2.1,27.4z"/>
		<path class="st0" d="M13.4,9.5c0,0,5.6,2.2,5.3,17.5c-0.7,0.3-1.6,0.3-2.3,0c0,0-0.6-10.9-1.6-12.1S10.8,8.9,13.4,9.5z"/>
		<path class="st0" d="M14.4,43.4c-0.1,1.2-1,2.1-2.2,2.2c-1.2-0.1-2.1-1-2.2-2.2H14.4z"/>
	</g>
	<g class="person">
		<rect x="25.8" y="28.9" class="st0" width="4.3" height="14.5"/>
		<path class="st0" d="M30.1,43.4c-0.1,1.2-1,2.1-2.2,2.2c-1.2-0.1-2.1-1-2.2-2.2H30.1z"/>
		<rect x="31.1" y="29.9" class="st0" width="4.3" height="13.5"/>
		<circle class="st0" cx="30.5" cy="4.2" r="4.2"/>
		<path class="st0" d="M23.1,27.4c-0.7,0.3-1.4,0.3-2.1,0c0,0-0.7-14.6,5.8-18c2.6-0.6,5.3-0.6,7.9,0c0,0,5.6,2.1,5.3,17.5
			c-0.7,0.3-1.6,0.3-2.3,0c0,0-0.6-10.9-1.6-12.1s-0.7,15.4-0.7,15.4l-9.6,0.1l-0.5-15.5C25.3,14.8,24.1,14.8,23.1,27.4z"/>
		<path class="st0" d="M34.4,9.5c0,0,5.6,2.2,5.3,17.5c-0.7,0.3-1.6,0.3-2.3,0c0,0-0.6-10.9-1.6-12.1S31.8,8.9,34.4,9.5z"/>
		<path class="st0" d="M35.4,43.4c0,1.2-1,2.2-2.2,2.2c-1.2,0-2.2-1-2.2-2.2H35.4z"/>
	</g>
	<g class="person">
		<rect x="47.8" y="28.9" class="st0" width="4.3" height="14.5"/>
		<path class="st0" d="M52.1,43.4c0,1.2-1,2.2-2.2,2.2s-2.2-1-2.2-2.2H52.1z"/>
		<rect x="53.1" y="29.9" class="st0" width="4.3" height="13.5"/>
		<circle class="st0" cx="52.5" cy="4.2" r="4.2"/>
		<path class="st0" d="M45.1,27.4c-0.7,0.3-1.4,0.3-2.1,0c0,0-0.7-14.6,5.8-18c2.6-0.6,5.3-0.6,7.9,0c0,0,5.6,2.1,5.3,17.5
			c-0.7,0.3-1.6,0.3-2.3,0c0,0-0.6-10.9-1.6-12.1s-0.7,15.4-0.7,15.4l-9.6,0.1l-0.5-15.5C47.3,14.8,46.1,14.8,45.1,27.4z"/>
		<path class="st0" d="M56.4,9.5c0,0,5.6,2.2,5.3,17.5c-0.7,0.3-1.6,0.3-2.3,0c0,0-0.6-10.9-1.6-12.1S53.8,8.9,56.4,9.5z"/>
		<path class="st0" d="M57.4,43.4c0,1.2-1,2.2-2.2,2.2s-2.2-1-2.2-2.2H57.4z"/>
	</g>
	<g class="person">
		<rect x="69.8" y="28.9" class="st0" width="4.3" height="14.5"/>
		<path class="st0" d="M74.1,43.4c0,1.2-1,2.2-2.2,2.2c-1.2,0-2.2-1-2.2-2.2H74.1z"/>
		<rect x="75.1" y="29.9" class="st0" width="4.3" height="13.5"/>
		<circle class="st0" cx="74.5" cy="4.2" r="4.2"/>
		<path class="st0" d="M67.1,27.4c-0.7,0.3-1.4,0.3-2.1,0c0,0-0.7-14.6,5.8-18c2.6-0.6,5.3-0.6,7.9,0c0,0,5.6,2.1,5.3,17.5
			c-0.7,0.3-1.6,0.3-2.3,0c0,0-0.6-10.9-1.6-12.1s-0.7,15.4-0.7,15.4l-9.6,0.1l-0.5-15.5C69.3,14.8,68.1,14.8,67.1,27.4z"/>
		<path class="st0" d="M78.4,9.5c0,0,5.6,2.2,5.3,17.5c-0.7,0.3-1.6,0.3-2.3,0c0,0-0.6-10.9-1.6-12.1S75.8,8.9,78.4,9.5z"/>
		<path class="st0" d="M79.4,43.4c0,1.2-1,2.2-2.2,2.2c-1.2,0-2.2-1-2.2-2.2H79.4z"/>
	</g>
	<g class="person">
		<rect x="91.8" y="28.9" class="st0" width="4.3" height="14.5"/>
		<path class="st0" d="M96.1,43.4c0,1.2-1,2.2-2.2,2.2c-1.2,0-2.2-1-2.2-2.2H96.1z"/>
		<rect x="97.1" y="29.9" class="st0" width="4.3" height="13.5"/>
		<circle class="st0" cx="96.5" cy="4.2" r="4.2"/>
		<path class="st1" d="M104.6,7"/>
		<path class="st0" d="M89.1,27.4c-0.7,0.3-1.4,0.3-2.1,0c0,0-0.7-14.6,5.8-18c2.6-0.6,5.3-0.6,7.9,0c0,0,5.6,2.2,5.3,17.5
			c-0.7,0.3-1.6,0.3-2.3,0c0,0-0.6-10.9-1.6-12.1s-0.7,15.4-0.7,15.4l-9.6,0.1l-0.5-15.5C91.3,14.9,90.1,14.8,89.1,27.4z"/>
		<path class="st0" d="M100.4,9.5c0,0,5.6,2.2,5.3,17.5c-0.7,0.3-1.6,0.3-2.3,0c0,0-0.6-10.9-1.6-12.1S97.8,8.9,100.4,9.5z"/>
		<path class="st0" d="M101.4,43.4c0,1.2-1,2.2-2.2,2.2c-1.2,0-2.2-1-2.2-2.2H101.4z"/>
	</g>
	<g class="person">
		<rect x="111.8" y="28.9" class="st0" width="4.3" height="14.5"/>
		<path class="st0" d="M116.1,43.4c0,1.2-1,2.2-2.2,2.2c-1.2,0-2.2-1-2.2-2.2H116.1z"/>
		<rect x="117.1" y="29.9" class="st0" width="4.3" height="13.5"/>
		<circle class="st0" cx="116.5" cy="4.2" r="4.2"/>
		<path class="st0" d="M109.1,27.4c-0.7,0.3-1.4,0.3-2.1,0c0,0-0.7-14.6,5.8-18c2.6-0.6,5.3-0.6,7.9,0c0,0,5.6,2.2,5.3,17.5
			c-0.7,0.3-1.6,0.3-2.3,0c0,0-0.6-10.9-1.6-12.1s-0.7,15.4-0.7,15.4l-9.6,0.1l-0.5-15.5C111.3,14.9,110.1,14.8,109.1,27.4z"/>
		<path class="st0" d="M120.4,9.5c0,0,5.6,2.2,5.3,17.5c-0.7,0.3-1.6,0.3-2.3,0c0,0-0.6-10.9-1.6-12.1S117.8,8.9,120.4,9.5z"/>
		<path class="st0" d="M121.4,43.4c0,1.2-1,2.2-2.2,2.2c-1.2,0-2.2-1-2.2-2.2H121.4z"/>
	</g>
	<g class="person">
		<rect x="133.8" y="28.9" class="st0" width="4.3" height="14.5"/>
		<path class="st0" d="M138.1,43.4c0,1.2-1,2.2-2.2,2.2c-1.2,0-2.2-1-2.2-2.2c0,0,0,0,0,0H138.1z"/>
		<rect x="139.1" y="29.9" class="st0" width="4.3" height="13.5"/>
		<circle class="st0" cx="138.5" cy="4.2" r="4.2"/>
		<path class="st0" d="M131.1,27.4c-0.7,0.3-1.4,0.3-2.1,0c0,0-0.7-14.6,5.8-18c2.6-0.6,5.3-0.6,7.9,0c0,0,5.6,2.2,5.3,17.5
			c-0.7,0.3-1.6,0.3-2.3,0c0,0-0.6-10.9-1.6-12.1s-0.7,15.4-0.7,15.4l-9.6,0.1l-0.5-15.5C133.3,14.9,132.1,14.8,131.1,27.4z"/>
		<path class="st0" d="M142.4,9.5c0,0,5.6,2.2,5.3,17.5c-0.7,0.3-1.6,0.3-2.3,0c0,0-0.6-10.9-1.6-12.1S139.8,8.9,142.4,9.5z"/>
		<path class="st0" d="M143.4,43.4c0,1.2-1,2.2-2.2,2.2c-1.2,0-2.2-1-2.2-2.2c0,0,0,0,0,0H143.4z"/>
	</g>
	<g class="person">
	<rect x="155.8" y="28.9" class="st0" width="4.3" height="14.5"/>
	<path class="st0" d="M160.1,43.4c0,1.2-1,2.2-2.2,2.2c-1.2,0-2.2-1-2.2-2.2c0,0,0,0,0,0H160.1z"/>
	<rect x="161.1" y="29.9" class="st0" width="4.3" height="13.5"/>
	<circle class="st0" cx="160.5" cy="4.2" r="4.2"/>
	<path class="st0" d="M153.1,27.4c-0.7,0.3-1.4,0.3-2.1,0c0,0-0.7-14.6,5.8-18c2.6-0.6,5.3-0.6,7.9,0c0,0,5.6,2.2,5.3,17.5
		c-0.7,0.3-1.6,0.3-2.3,0c0,0-0.6-10.9-1.6-12.1s-0.7,15.4-0.7,15.4l-9.6,0.1l-0.5-15.5C155.3,14.9,154.1,14.8,153.1,27.4z"/>
	<path class="st0" d="M164.4,9.5c0,0,5.6,2.2,5.3,17.5c-0.7,0.3-1.6,0.3-2.3,0c0,0-0.6-10.9-1.6-12.1S161.8,8.9,164.4,9.5z"/>
	<path class="st0" d="M165.4,43.4c0,1.2-1,2.2-2.2,2.2c-1.2,0-2.2-1-2.2-2.2c0,0,0,0,0,0H165.4z"/>
	</g>
	<g class="person">
		<rect x="177.8" y="28.9" class="st0" width="4.3" height="14.5"/>
		<path class="st0" d="M182.1,43.4c0,1.2-1,2.2-2.2,2.2c-1.2,0-2.2-1-2.2-2.2c0,0,0,0,0,0H182.1z"/>
		<rect x="183.1" y="29.9" class="st0" width="4.3" height="13.5"/>
		<circle class="st0" cx="182.5" cy="4.2" r="4.2"/>
		<path class="st0" d="M175.1,27.4c-0.7,0.3-1.4,0.3-2.1,0c0,0-0.7-14.6,5.8-18c2.6-0.6,5.3-0.6,7.9,0c0,0,5.6,2.2,5.3,17.5
			c-0.7,0.3-1.6,0.3-2.3,0c0,0-0.6-10.9-1.6-12.1s-0.7,15.4-0.7,15.4l-9.6,0.1l-0.5-15.5C177.3,14.9,176.1,14.8,175.1,27.4z"/>
		<path class="st0" d="M186.4,9.5c0,0,5.6,2.2,5.3,17.5c-0.7,0.3-1.6,0.3-2.3,0c0,0-0.6-10.9-1.6-12.1S183.8,8.9,186.4,9.5z"/>
		<path class="st0" d="M187.4,43.4c0,1.2-1,2.2-2.2,2.2c-1.2,0-2.2-1-2.2-2.2c0,0,0,0,0,0H187.4z"/>
	</g>
	<g class="person">
		<rect x="199.8" y="28.9" class="st0" width="4.3" height="14.5"/>
		<path class="st0" d="M204.1,43.4c0,1.2-1,2.2-2.2,2.2c-1.2,0-2.2-1-2.2-2.2c0,0,0,0,0,0H204.1z"/>
		<rect x="205.1" y="29.9" class="st0" width="4.3" height="13.5"/>
		<circle class="st0" cx="204.5" cy="4.2" r="4.2"/>
		<path class="st0" d="M197.1,27.4c-0.7,0.3-1.4,0.3-2.1,0c0,0-0.7-14.6,5.8-18c2.6-0.6,5.3-0.6,7.9,0c0,0,5.6,2.2,5.3,17.5
			c-0.7,0.3-1.6,0.3-2.3,0c0,0-0.6-10.9-1.6-12.1s-0.7,15.4-0.7,15.4l-9.6,0.1l-0.5-15.5C199.3,14.9,198.1,14.8,197.1,27.4z"/>
		<path class="st0" d="M208.4,9.5c0,0,5.6,2.2,5.3,17.5c-0.7,0.3-1.6,0.3-2.3,0c0,0-0.6-10.9-1.6-12.1S205.8,8.9,208.4,9.5z"/>
		<path class="st0" d="M209.4,43.4c0,1.2-1,2.2-2.2,2.2c-1.2,0-2.2-1-2.2-2.2c0,0,0,0,0,0H209.4z"/>
	</g>
	<g class="person">
		<rect x="220.6" y="28.9" class="st0" width="4.3" height="14.5"/>
		<path class="st0" d="M225,43.4c0,1.2-1,2.2-2.2,2.2c-1.2,0-2.2-1-2.2-2.2c0,0,0,0,0,0H225z"/>
		<rect x="225.9" y="29.9" class="st0" width="4.3" height="13.5"/>
		<circle class="st0" cx="225.3" cy="4.2" r="4.2"/>
		<path class="st0" d="M217.9,27.4c-0.7,0.3-1.4,0.3-2.1,0c0,0-0.7-14.6,5.8-18c2.6-0.6,5.3-0.6,7.9,0c0,0,5.6,2.1,5.3,17.5
			c-0.7,0.3-1.6,0.3-2.3,0c0,0-0.6-10.9-1.6-12.1s-0.7,15.4-0.7,15.4l-9.6,0.1l-0.5-15.5C220.1,14.8,218.9,14.8,217.9,27.4z"/>
		<path class="st0" d="M229.2,9.5c0,0,5.6,2.2,5.3,17.5c-0.7,0.3-1.6,0.3-2.3,0c0,0-0.6-10.9-1.6-12.1S226.6,8.9,229.2,9.5z"/>
		<path class="st0" d="M230.3,43.4c0,1.2-1,2.2-2.2,2.2c-1.2,0-2.2-1-2.2-2.2c0,0,0,0,0,0H230.3z"/>
	</g>
	<g class="person">
		<rect x="241.6" y="28.9" class="st0" width="4.3" height="14.5"/>
		<path class="st0" d="M246,43.4c0,1.2-1,2.2-2.2,2.2c-1.2,0-2.2-1-2.2-2.2c0,0,0,0,0,0H246z"/>
		<rect x="246.9" y="29.9" class="st0" width="4.3" height="13.5"/>
		<circle class="st0" cx="246.3" cy="4.2" r="4.2"/>
		<path class="st0" d="M238.9,27.4c-0.7,0.3-1.4,0.3-2.1,0c0,0-0.7-14.6,5.8-18c2.6-0.6,5.3-0.6,7.9,0c0,0,5.6,2.1,5.3,17.5
			c-0.7,0.3-1.6,0.3-2.3,0c0,0-0.6-10.9-1.6-12.1s-0.7,15.4-0.7,15.4l-9.6,0.1l-0.5-15.5C241.1,14.8,239.9,14.8,238.9,27.4z"/>
		<path class="st0" d="M250.2,9.5c0,0,5.6,2.2,5.3,17.5c-0.7,0.3-1.6,0.3-2.3,0c0,0-0.6-10.9-1.6-12.1S247.6,8.9,250.2,9.5z"/>
		<path class="st0" d="M251.3,43.4c0,1.2-1,2.2-2.2,2.2c-1.2,0-2.2-1-2.2-2.2c0,0,0,0,0,0H251.3z"/>
	</g>
	<g class="person">
		<rect x="263.6" y="28.9" class="st0" width="4.3" height="14.5"/>
		<path class="st0" d="M268,43.4c0,1.2-1,2.2-2.2,2.2c-1.2,0-2.2-1-2.2-2.2H268z"/>
		<rect x="268.9" y="29.9" class="st0" width="4.3" height="13.5"/>
		<circle class="st0" cx="268.3" cy="4.2" r="4.2"/>
		<path class="st0" d="M260.9,27.4c-0.7,0.3-1.4,0.3-2.1,0c0,0-0.7-14.6,5.8-18c2.6-0.6,5.3-0.6,7.9,0c0,0,5.6,2.1,5.3,17.5
			c-0.7,0.3-1.6,0.3-2.3,0c0,0-0.6-10.9-1.6-12.1s-0.7,15.4-0.7,15.4l-9.6,0.1l-0.5-15.5C263.1,14.8,261.9,14.8,260.9,27.4z"/>
		<path class="st0" d="M272.2,9.5c0,0,5.6,2.2,5.3,17.5c-0.7,0.3-1.6,0.3-2.3,0c0,0-0.6-10.9-1.6-12.1S269.6,8.9,272.2,9.5z"/>
		<path class="st0" d="M273.3,43.4c0,1.2-1,2.2-2.2,2.2c-1.2,0-2.2-1-2.2-2.2H273.3z"/>
	</g>
	<g class="person">
		<rect x="285.6" y="28.9" class="st0" width="4.3" height="14.5"/>
		<path class="st0" d="M290,43.4c0,1.2-1,2.2-2.2,2.2c-1.2,0-2.2-1-2.2-2.2H290z"/>
		<rect x="290.9" y="29.9" class="st0" width="4.3" height="13.5"/>
		<circle class="st0" cx="290.3" cy="4.2" r="4.2"/>
		<path class="st0" d="M282.9,27.4c-0.7,0.3-1.4,0.3-2.1,0c0,0-0.7-14.6,5.8-18c2.6-0.6,5.3-0.6,7.9,0c0,0,5.6,2.1,5.3,17.5
			c-0.7,0.3-1.6,0.3-2.3,0c0,0-0.6-10.9-1.6-12.1s-0.7,15.4-0.7,15.4l-9.6,0.1l-0.5-15.5C285.1,14.8,283.9,14.8,282.9,27.4z"/>
		<path class="st0" d="M294.2,9.5c0,0,5.6,2.2,5.3,17.5c-0.7,0.3-1.6,0.3-2.3,0c0,0-0.6-10.9-1.6-12.1S291.6,8.9,294.2,9.5z"/>
		<path class="st0" d="M295.3,43.4c0,1.2-1,2.2-2.2,2.2c-1.2,0-2.2-1-2.2-2.2H295.3z"/>
	</g>
	<g class="person">
		<rect x="307.6" y="28.9" class="st0" width="4.3" height="14.5"/>
		<path class="st0" d="M312,43.4c0,1.2-1,2.2-2.2,2.2c-1.2,0-2.2-1-2.2-2.2H312z"/>
		<rect x="312.9" y="29.9" class="st0" width="4.3" height="13.5"/>
		<circle class="st0" cx="312.3" cy="4.2" r="4.2"/>
		<path class="st0" d="M304.9,27.4c-0.7,0.3-1.4,0.3-2.1,0c0,0-0.7-14.6,5.8-18c2.6-0.6,5.3-0.6,7.9,0c0,0,5.6,2.2,5.3,17.6
			c-0.7,0.3-1.6,0.3-2.3,0c0,0-0.6-10.9-1.6-12.1s-0.7,15.4-0.7,15.4l-9.6,0.1l-0.5-15.5C307.1,14.9,305.9,14.8,304.9,27.4z"/>
		<path class="st0" d="M316.2,9.5c0,0,5.6,2.2,5.3,17.5c-0.7,0.3-1.6,0.3-2.3,0c0,0-0.6-10.9-1.6-12.1S313.6,8.9,316.2,9.5z"/>
		<path class="st0" d="M317.3,43.4c0,1.2-1,2.2-2.2,2.2c-1.2,0-2.2-1-2.2-2.2H317.3z"/>
	</g>
	<g class="person">
		<rect x="327.6" y="28.9" class="st0" width="4.3" height="14.5"/>
		<path class="st0" d="M332,43.4c0,1.2-1,2.2-2.2,2.2c-1.2,0-2.2-1-2.2-2.2H332z"/>
		<rect x="332.9" y="29.9" class="st0" width="4.3" height="13.5"/>
		<circle class="st0" cx="332.3" cy="4.2" r="4.2"/>
		<path class="st0" d="M324.9,27.4c-0.7,0.3-1.4,0.3-2.1,0c0,0-0.7-14.6,5.8-18c2.6-0.6,5.3-0.6,7.9,0c0,0,5.6,2.2,5.3,17.6
			c-0.7,0.3-1.6,0.3-2.3,0c0,0-0.6-10.9-1.6-12.1s-0.7,15.4-0.7,15.4l-9.6,0.1l-0.5-15.5C327.1,14.9,325.9,14.8,324.9,27.4z"/>
		<path class="st0" d="M336.2,9.5c0,0,5.6,2.2,5.3,17.5c-0.7,0.3-1.6,0.3-2.3,0c0,0-0.6-10.9-1.6-12.1S333.6,8.9,336.2,9.5z"/>
		<path class="st0" d="M337.3,43.4c0,1.2-1,2.2-2.2,2.2c-1.2,0-2.2-1-2.2-2.2H337.3z"/>
	</g>
	<g class="person">
		<rect x="349.6" y="28.9" class="st0" width="4.3" height="14.5"/>
		<path class="st0" d="M354,43.4c0,1.2-1,2.2-2.2,2.2c-1.2,0-2.2-1-2.2-2.2H354z"/>
		<rect x="354.9" y="29.9" class="st0" width="4.3" height="13.5"/>
		<circle class="st0" cx="354.3" cy="4.2" r="4.2"/>
		<path class="st0" d="M346.9,27.4c-0.7,0.3-1.4,0.3-2.1,0c0,0-0.7-14.6,5.8-18c2.6-0.6,5.3-0.6,7.9,0c0,0,5.6,2.2,5.3,17.6
			c-0.7,0.3-1.6,0.3-2.3,0c0,0-0.6-10.9-1.6-12.1s-0.7,15.4-0.7,15.4l-9.6,0.1l-0.5-15.5C349.1,14.9,347.9,14.8,346.9,27.4z"/>
		<path class="st0" d="M358.2,9.5c0,0,5.6,2.2,5.3,17.5c-0.7,0.3-1.6,0.3-2.3,0c0,0-0.6-10.9-1.6-12.1S355.6,8.9,358.2,9.5z"/>
		<path class="st0" d="M359.3,43.4c0,1.2-1,2.2-2.2,2.2c-1.2,0-2.2-1-2.2-2.2H359.3z"/>
	</g>
	<g class="person">
		<rect x="371.6" y="28.9" class="st0" width="4.3" height="14.5"/>
		<path class="st0" d="M376,43.4c0,1.2-1,2.2-2.2,2.2c-1.2,0-2.2-1-2.2-2.2H376z"/>
		<rect x="376.9" y="29.9" class="st0" width="4.3" height="13.5"/>
		<circle class="st0" cx="376.3" cy="4.2" r="4.2"/>
		<path class="st0" d="M368.9,27.4c-0.7,0.3-1.4,0.3-2.1,0c0,0-0.7-14.6,5.8-18c2.6-0.6,5.3-0.6,7.9,0c0,0,5.6,2.2,5.3,17.6
			c-0.7,0.3-1.6,0.3-2.3,0c0,0-0.6-10.9-1.6-12.1s-0.7,15.4-0.7,15.4l-9.6,0.1l-0.5-15.5C371.1,14.9,369.9,14.8,368.9,27.4z"/>
		<path class="st0" d="M380.2,9.5c0,0,5.6,2.2,5.3,17.5c-0.7,0.3-1.6,0.3-2.3,0c0,0-0.6-10.9-1.6-12.1S377.6,8.9,380.2,9.5z"/>
		<path class="st0" d="M381.3,43.4c0,1.2-1,2.2-2.2,2.2c-1.2,0-2.2-1-2.2-2.2H381.3z"/>
	</g>
	<g class="person">
	<rect x="393.6" y="28.9" class="st0" width="4.3" height="14.5"/>
	<path class="st0" d="M398,43.4c0,1.2-1,2.2-2.2,2.2c-1.2,0-2.2-1-2.2-2.2H398z"/>
	<rect x="398.9" y="29.9" class="st0" width="4.3" height="13.5"/>
	<circle class="st0" cx="398.3" cy="4.2" r="4.2"/>
	<path class="st0" d="M390.9,27.4c-0.7,0.3-1.4,0.3-2.1,0c0,0-0.7-14.6,5.8-18c2.6-0.6,5.3-0.6,7.9,0c0,0,5.6,2.2,5.3,17.6
		c-0.7,0.3-1.6,0.3-2.3,0c0,0-0.6-10.9-1.6-12.1s-0.7,15.4-0.7,15.4l-9.6,0.1l-0.5-15.5C393.1,14.9,391.9,14.8,390.9,27.4z"/>
	<path class="st0" d="M402.2,9.5c0,0,5.6,2.2,5.3,17.5c-0.7,0.3-1.6,0.3-2.3,0c0,0-0.6-10.9-1.6-12.1S399.6,8.9,402.2,9.5z"/>
	<path class="st0" d="M403.3,43.4c0,1.2-1,2.2-2.2,2.2c-1.2,0-2.2-1-2.2-2.2H403.3z"/>
</g>
<g class="person">
	<rect x="415.6" y="28.9" class="st0" width="4.3" height="14.5"/>
	<path class="st0" d="M420,43.4c0,1.2-1,2.2-2.2,2.2c-1.2,0-2.2-1-2.2-2.2H420z"/>
	<rect x="420.9" y="29.9" class="st0" width="4.3" height="13.5"/>
	<circle class="st0" cx="420.3" cy="4.2" r="4.2"/>
	<path class="st0" d="M412.9,27.4c-0.7,0.3-1.4,0.3-2.1,0c0,0-0.7-14.6,5.8-18c2.6-0.6,5.3-0.6,7.9,0c0,0,5.6,2.2,5.3,17.6
		c-0.7,0.3-1.6,0.3-2.3,0c0,0-0.6-10.9-1.6-12.1s-0.7,15.4-0.7,15.4l-9.6,0.1l-0.5-15.5C415.1,14.9,413.9,14.8,412.9,27.4z"/>
	<path class="st0" d="M424.2,9.5c0,0,5.6,2.2,5.3,17.5c-0.7,0.3-1.6,0.3-2.3,0c0,0-0.6-10.9-1.6-12.1S421.6,8.9,424.2,9.5z"/>
	<path class="st0" d="M425.3,43.4c0,1.2-1,2.2-2.2,2.2c-1.2,0-2.2-1-2.2-2.2H425.3z"/>
</g>
	<!---->
	<g class="person">
		<rect x="416.1" y="80.4" class="st0" width="4.3" height="14.5"/>
		<path class="st0" d="M420.5,94.9c0,1.2-1,2.2-2.2,2.2c-1.2,0-2.2-1-2.2-2.2H420.5z"/>
		<rect x="421.5" y="81.4" class="st0" width="4.3" height="13.5"/>
		<circle class="st0" cx="420.8" cy="55.7" r="4.2"/>
		<path class="st0" d="M413.5,78.9c-0.7,0.3-1.4,0.3-2.1,0c0,0-0.7-14.6,5.8-18c2.6-0.6,5.3-0.6,7.9,0c0,0,5.6,2.2,5.3,17.5
			c-0.7,0.3-1.6,0.3-2.3,0c0,0-0.6-10.9-1.6-12.1s-0.7,15.4-0.7,15.4l-9.6,0.1l-0.5-15.5C415.6,66.4,414.5,66.3,413.5,78.9z"/>
		<path class="st0" d="M424.8,61c0,0,5.6,2.2,5.3,17.5c-0.7,0.3-1.6,0.3-2.3,0c0,0-0.6-10.9-1.6-12.1S422.1,60.4,424.8,61z"/>
		<path class="st0" d="M425.8,94.9c0,1.2-1,2.2-2.2,2.2c-1.2,0-2.2-1-2.2-2.2H425.8z"/>
	</g>
	<g class="person">
		<rect x="394.1" y="80.4" class="st0" width="4.3" height="14.5"/>
		<path class="st0" d="M398.5,94.9c0,1.2-1,2.2-2.2,2.2c-1.2,0-2.2-1-2.2-2.2H398.5z"/>
		<rect x="399.5" y="81.4" class="st0" width="4.3" height="13.5"/>
		<circle class="st0" cx="398.8" cy="55.7" r="4.2"/>
		<path class="st0" d="M391.5,78.9c-0.7,0.3-1.4,0.3-2.1,0c0,0-0.7-14.6,5.8-18c2.6-0.6,5.3-0.6,7.9,0c0,0,5.6,2.2,5.3,17.5
			c-0.7,0.3-1.6,0.3-2.3,0c0,0-0.6-10.9-1.6-12.1s-0.7,15.4-0.7,15.4l-9.6,0.1l-0.5-15.5C393.6,66.4,392.5,66.3,391.5,78.9z"/>
		<path class="st0" d="M402.8,61c0,0,5.6,2.2,5.3,17.5c-0.7,0.3-1.6,0.3-2.3,0c0,0-0.6-10.9-1.6-12.1S400.1,60.4,402.8,61z"/>
		<path class="st0" d="M403.8,94.9c0,1.2-1,2.2-2.2,2.2c-1.2,0-2.2-1-2.2-2.2H403.8z"/>
	</g>
	<g class="person">
		<rect x="372.1" y="80.4" class="st0" width="4.3" height="14.5"/>
		<path class="st0" d="M376.5,94.9c0,1.2-1,2.2-2.2,2.2c-1.2,0-2.2-1-2.2-2.2H376.5z"/>
		<rect x="377.5" y="81.4" class="st0" width="4.3" height="13.5"/>
		<circle class="st0" cx="376.8" cy="55.7" r="4.2"/>
		<path class="st0" d="M369.5,78.9c-0.7,0.3-1.4,0.3-2.1,0c0,0-0.7-14.6,5.8-18c2.6-0.6,5.3-0.6,7.9,0c0,0,5.6,2.2,5.3,17.5
			c-0.7,0.3-1.6,0.3-2.3,0c0,0-0.6-10.9-1.6-12.1s-0.7,15.4-0.7,15.4l-9.6,0.1l-0.5-15.5C371.6,66.4,370.5,66.3,369.5,78.9z"/>
		<path class="st0" d="M380.8,61c0,0,5.6,2.2,5.3,17.5c-0.7,0.3-1.6,0.3-2.3,0c0,0-0.6-10.9-1.6-12.1S378.1,60.4,380.8,61z"/>
		<path class="st0" d="M381.8,94.9c0,1.2-1,2.2-2.2,2.2c-1.2,0-2.2-1-2.2-2.2H381.8z"/>
	</g>
	<g class="person">
		<rect x="350.1" y="80.4" class="st0" width="4.3" height="14.5"/>
		<path class="st0" d="M354.5,94.9c0,1.2-1,2.2-2.2,2.2c-1.2,0-2.2-1-2.2-2.2H354.5z"/>
		<rect x="355.5" y="81.4" class="st0" width="4.3" height="13.5"/>
		<circle class="st0" cx="354.8" cy="55.7" r="4.2"/>
		<path class="st0" d="M347.5,78.9c-0.7,0.3-1.4,0.3-2.1,0c0,0-0.7-14.6,5.8-18c2.6-0.6,5.3-0.6,7.9,0c0,0,5.6,2.2,5.3,17.5
			c-0.7,0.3-1.6,0.3-2.3,0c0,0-0.6-10.9-1.6-12.1s-0.7,15.4-0.7,15.4l-9.6,0.1l-0.5-15.5C349.6,66.4,348.5,66.3,347.5,78.9z"/>
		<path class="st0" d="M358.8,61c0,0,5.6,2.2,5.3,17.5c-0.7,0.3-1.6,0.3-2.3,0c0,0-0.6-10.9-1.6-12.1S356.1,60.4,358.8,61z"/>
		<path class="st0" d="M359.8,94.9c0,1.2-1,2.2-2.2,2.2c-1.2,0-2.2-1-2.2-2.2H359.8z"/>
	</g>
	<g class="person">
		<rect x="328.1" y="80.4" class="st0" width="4.3" height="14.5"/>
		<path class="st0" d="M332.5,94.9c0,1.2-1,2.2-2.2,2.2c-1.2,0-2.2-1-2.2-2.2H332.5z"/>
		<rect x="333.5" y="81.4" class="st0" width="4.3" height="13.5"/>
		<circle class="st0" cx="332.8" cy="55.7" r="4.2"/>
		<path class="st0" d="M325.5,78.9c-0.7,0.3-1.4,0.3-2.1,0c0,0-0.7-14.6,5.8-18c2.6-0.6,5.3-0.6,7.9,0c0,0,5.6,2.2,5.3,17.5
			c-0.7,0.3-1.6,0.3-2.3,0c0,0-0.6-10.9-1.6-12.1s-0.7,15.4-0.7,15.4l-9.6,0.1l-0.5-15.5C327.6,66.4,326.5,66.3,325.5,78.9z"/>
		<path class="st0" d="M336.8,61c0,0,5.6,2.2,5.3,17.5c-0.7,0.3-1.6,0.3-2.3,0c0,0-0.6-10.9-1.6-12.1S334.1,60.4,336.8,61z"/>
		<path class="st0" d="M337.8,94.9c0,1.2-1,2.2-2.2,2.2c-1.2,0-2.2-1-2.2-2.2H337.8z"/>
	</g>
	<g class="person">
		<rect x="308.1" y="80.4" class="st0" width="4.3" height="14.5"/>
		<path class="st0" d="M312.5,94.9c0,1.2-1,2.2-2.2,2.2c-1.2,0-2.2-1-2.2-2.2H312.5z"/>
		<rect x="313.5" y="81.4" class="st0" width="4.3" height="13.5"/>
		<circle class="st0" cx="312.8" cy="55.7" r="4.2"/>
		<path class="st0" d="M305.5,78.9c-0.7,0.3-1.4,0.3-2.1,0c0,0-0.7-14.6,5.8-18c2.6-0.6,5.3-0.6,7.9,0c0,0,5.6,2.2,5.3,17.5
			c-0.7,0.3-1.6,0.3-2.3,0c0,0-0.6-10.9-1.6-12.1s-0.7,15.4-0.7,15.4l-9.6,0.1l-0.5-15.5C307.6,66.4,306.5,66.3,305.5,78.9z"/>
		<path class="st0" d="M316.8,61c0,0,5.6,2.2,5.3,17.5c-0.7,0.3-1.6,0.3-2.3,0c0,0-0.6-10.9-1.6-12.1S314.1,60.4,316.8,61z"/>
		<path class="st0" d="M317.8,94.9c0,1.2-1,2.2-2.2,2.2c-1.2,0-2.2-1-2.2-2.2H317.8z"/>
	</g>
	<g class="person">
		<rect x="286.1" y="80.4" class="st0" width="4.3" height="14.5"/>
		<path class="st0" d="M290.5,94.9c0,1.2-1,2.2-2.2,2.2c-1.2,0-2.2-1-2.2-2.2H290.5z"/>
		<rect x="291.5" y="81.4" class="st0" width="4.3" height="13.5"/>
		<circle class="st0" cx="290.8" cy="55.7" r="4.2"/>
		<path class="st0" d="M283.5,78.9c-0.7,0.3-1.4,0.3-2.1,0c0,0-0.7-14.6,5.8-18c2.6-0.6,5.3-0.6,7.9,0c0,0,5.6,2.1,5.3,17.5
			c-0.7,0.3-1.6,0.3-2.3,0c0,0-0.6-10.9-1.6-12.1s-0.7,15.4-0.7,15.4l-9.6,0.1l-0.5-15.5C285.6,66.4,284.5,66.3,283.5,78.9z"/>
		<path class="st0" d="M294.8,61c0,0,5.6,2.2,5.3,17.5c-0.7,0.3-1.6,0.3-2.3,0c0,0-0.6-10.9-1.6-12.1S292.1,60.4,294.8,61z"/>
		<path class="st0" d="M295.8,94.9c0,1.2-1,2.2-2.2,2.2c-1.2,0-2.2-1-2.2-2.2H295.8z"/>
	</g>
	<g class="person">
		<rect x="264.1" y="80.4" class="st0" width="4.3" height="14.5"/>
		<path class="st0" d="M268.5,94.9c0,1.2-1,2.2-2.2,2.2c-1.2,0-2.2-1-2.2-2.2H268.5z"/>
		<rect x="269.5" y="81.4" class="st0" width="4.3" height="13.5"/>
		<circle class="st0" cx="268.8" cy="55.7" r="4.2"/>
		<path class="st0" d="M261.5,78.9c-0.7,0.3-1.4,0.3-2.1,0c0,0-0.7-14.6,5.8-18c2.6-0.6,5.3-0.6,7.9,0c0,0,5.6,2.1,5.3,17.5
			c-0.7,0.3-1.6,0.3-2.3,0c0,0-0.6-10.9-1.6-12.1s-0.7,15.4-0.7,15.4l-9.6,0.1l-0.5-15.5C263.6,66.4,262.5,66.3,261.5,78.9z"/>
		<path class="st0" d="M272.8,61c0,0,5.6,2.2,5.3,17.5c-0.7,0.3-1.6,0.3-2.3,0c0,0-0.6-10.9-1.6-12.1S270.1,60.4,272.8,61z"/>
		<path class="st0" d="M273.8,94.9c0,1.2-1,2.2-2.2,2.2c-1.2,0-2.2-1-2.2-2.2H273.8z"/>
	</g>
	<g class="person">
		<rect x="242.7" y="80.5" class="st0" width="4.3" height="14.5"/>
		<path class="st0" d="M247,95c0,1.2-1,2.2-2.2,2.2c-1.2,0-2.2-1-2.2-2.2H247z"/>
		<rect x="248" y="81.5" class="st0" width="4.3" height="13.5"/>
		<circle class="st0" cx="247.4" cy="55.8" r="4.2"/>
		<path class="st0" d="M240,79c-0.7,0.3-1.4,0.3-2.1,0c0,0-0.7-14.6,5.8-18c2.6-0.6,5.3-0.6,7.9,0c0,0,5.6,2.1,5.3,17.5
			c-0.7,0.3-1.6,0.3-2.3,0c0,0-0.6-10.9-1.6-12.1s-0.7,15.4-0.7,15.4l-9.6,0.1l-0.5-15.5C242.2,66.5,241,66.5,240,79z"/>
		<path class="st0" d="M251.3,61.1c0,0,5.6,2.2,5.3,17.5c-0.7,0.3-1.6,0.3-2.3,0c0,0-0.6-10.9-1.6-12.1S248.7,60.6,251.3,61.1z"/>
		<path class="st0" d="M252.3,95c0,1.2-1,2.2-2.2,2.2c-1.2,0-2.2-1-2.2-2.2c0,0,0,0,0,0H252.3z"/>
	</g>
	<g class="person">
		<rect x="221.7" y="80.5" class="st0" width="4.3" height="14.5"/>
		<path class="st0" d="M226,95c0,1.2-1,2.2-2.2,2.2c-1.2,0-2.2-1-2.2-2.2H226z"/>
		<rect x="227" y="81.5" class="st0" width="4.3" height="13.5"/>
		<circle class="st0" cx="226.4" cy="55.8" r="4.2"/>
		<path class="st0" d="M219,79c-0.7,0.3-1.4,0.3-2.1,0c0,0-0.7-14.6,5.8-18c2.6-0.6,5.3-0.6,7.9,0c0,0,5.6,2.1,5.3,17.5
			c-0.7,0.3-1.6,0.3-2.3,0c0,0-0.6-10.9-1.6-12.1s-0.7,15.4-0.7,15.4l-9.6,0.1l-0.5-15.5C221.2,66.5,220,66.5,219,79z"/>
		<path class="st0" d="M230.3,61.1c0,0,5.6,2.2,5.3,17.5c-0.7,0.3-1.6,0.3-2.3,0c0,0-0.6-10.9-1.6-12.1S227.7,60.6,230.3,61.1z"/>
		<path class="st0" d="M231.3,95c0,1.2-1,2.2-2.2,2.2c-1.2,0-2.2-1-2.2-2.2c0,0,0,0,0,0H231.3z"/>
	</g>
	<g class="person">
		<rect x="200.8" y="80.5" class="st0" width="4.3" height="14.5"/>
		<path class="st0" d="M205.2,95c0,1.2-1,2.2-2.2,2.2c-1.2,0-2.2-1-2.2-2.2c0,0,0,0,0,0H205.2z"/>
		<rect x="206.2" y="81.5" class="st0" width="4.3" height="13.5"/>
		<circle class="st0" cx="205.5" cy="55.8" r="4.2"/>
		<path class="st0" d="M198.2,79c-0.7,0.3-1.4,0.3-2.1,0c0,0-0.7-14.6,5.8-18c2.6-0.6,5.3-0.6,7.9,0c0,0,5.6,2.2,5.3,17.5
			c-0.7,0.3-1.6,0.3-2.3,0c0,0-0.6-10.9-1.6-12.1s-0.7,15.4-0.7,15.4l-9.6,0.1l-0.5-15.5C200.3,66.5,199.2,66.5,198.2,79z"/>
		<path class="st0" d="M209.5,61.1c0,0,5.6,2.2,5.3,17.5c-0.7,0.3-1.6,0.3-2.3,0c0,0-0.6-10.9-1.6-12.1S206.8,60.6,209.5,61.1z"/>
		<path class="st0" d="M210.5,95c0,1.2-1,2.2-2.2,2.2c-1.2,0-2.2-1-2.2-2.2H210.5z"/>
	</g>
	<g class="person">
		<rect x="178.8" y="80.5" class="st0" width="4.3" height="14.5"/>
		<path class="st0" d="M183.2,95c0,1.2-1,2.2-2.2,2.2c-1.2,0-2.2-1-2.2-2.2c0,0,0,0,0,0H183.2z"/>
		<rect x="184.2" y="81.5" class="st0" width="4.3" height="13.5"/>
		<circle class="st0" cx="183.5" cy="55.8" r="4.2"/>
		<path class="st0" d="M176.2,79c-0.7,0.3-1.4,0.3-2.1,0c0,0-0.7-14.6,5.8-18c2.6-0.6,5.3-0.6,7.9,0c0,0,5.6,2.2,5.3,17.5
			c-0.7,0.3-1.6,0.3-2.3,0c0,0-0.6-10.9-1.6-12.1s-0.7,15.4-0.7,15.4l-9.6,0.1l-0.5-15.5C178.3,66.5,177.2,66.5,176.2,79z"/>
		<path class="st0" d="M187.5,61.1c0,0,5.6,2.2,5.3,17.5c-0.7,0.3-1.6,0.3-2.3,0c0,0-0.6-10.9-1.6-12.1S184.8,60.6,187.5,61.1z"/>
		<path class="st0" d="M188.5,95c0,1.2-1,2.2-2.2,2.2c-1.2,0-2.2-1-2.2-2.2H188.5z"/>
	</g>
	<g class="person">
		<rect x="156.8" y="80.5" class="st0" width="4.3" height="14.5"/>
		<path class="st0" d="M161.2,95c0,1.2-1,2.2-2.2,2.2c-1.2,0-2.2-1-2.2-2.2c0,0,0,0,0,0H161.2z"/>
		<rect x="162.2" y="81.5" class="st0" width="4.3" height="13.5"/>
		<circle class="st0" cx="161.5" cy="55.8" r="4.2"/>
		<path class="st0" d="M154.2,79c-0.7,0.3-1.4,0.3-2.1,0c0,0-0.7-14.6,5.8-18c2.6-0.6,5.3-0.6,7.9,0c0,0,5.6,2.2,5.3,17.5
			c-0.7,0.3-1.6,0.3-2.3,0c0,0-0.6-10.9-1.6-12.1s-0.7,15.4-0.7,15.4l-9.6,0.1l-0.5-15.5C156.3,66.5,155.2,66.5,154.2,79z"/>
		<path class="st0" d="M165.5,61.1c0,0,5.6,2.2,5.3,17.5c-0.7,0.3-1.6,0.3-2.3,0c0,0-0.6-10.9-1.6-12.1S162.8,60.6,165.5,61.1z"/>
		<path class="st0" d="M166.5,95c0,1.2-1,2.2-2.2,2.2c-1.2,0-2.2-1-2.2-2.2H166.5z"/>
	</g>
	<g class="person">
		<rect x="134.8" y="80.5" class="st0" width="4.3" height="14.5"/>
		<path class="st0" d="M139.2,95c0,1.2-1,2.2-2.2,2.2c-1.2,0-2.2-1-2.2-2.2c0,0,0,0,0,0H139.2z"/>
		<rect x="140.2" y="81.5" class="st0" width="4.3" height="13.5"/>
		<circle class="st0" cx="139.5" cy="55.8" r="4.2"/>
		<path class="st0" d="M132.2,79c-0.7,0.3-1.4,0.3-2.1,0c0,0-0.7-14.6,5.8-18c2.6-0.6,5.3-0.6,7.9,0c0,0,5.6,2.2,5.3,17.5
			c-0.7,0.3-1.6,0.3-2.3,0c0,0-0.6-10.9-1.6-12.1s-0.7,15.4-0.7,15.4l-9.6,0.1l-0.5-15.5C134.3,66.5,133.2,66.5,132.2,79z"/>
		<path class="st0" d="M143.5,61.1c0,0,5.6,2.2,5.3,17.5c-0.7,0.3-1.6,0.3-2.3,0c0,0-0.6-10.9-1.6-12.1S140.8,60.6,143.5,61.1z"/>
		<path class="st0" d="M144.5,95c0,1.2-1,2.2-2.2,2.2c-1.2,0-2.2-1-2.2-2.2H144.5z"/>
	</g>
	<g class="person">
		<rect x="112.8" y="80.5" class="st0" width="4.3" height="14.5"/>
		<path class="st0" d="M117.2,95c0,1.2-1,2.2-2.2,2.2c-1.2,0-2.2-1-2.2-2.2H117.2z"/>
		<rect x="118.2" y="81.5" class="st0" width="4.3" height="13.5"/>
		<circle class="st0" cx="117.5" cy="55.8" r="4.2"/>
		<path class="st0" d="M110.2,79c-0.7,0.3-1.4,0.3-2.1,0c0,0-0.7-14.6,5.8-18c2.6-0.6,5.3-0.6,7.9,0c0,0,5.6,2.2,5.3,17.5
			c-0.7,0.3-1.6,0.3-2.3,0c0,0-0.6-10.9-1.6-12.1s-0.7,15.4-0.7,15.4l-9.6,0.1l-0.5-15.5C112.3,66.5,111.2,66.5,110.2,79z"/>
		<path class="st0" d="M121.5,61.1c0,0,5.6,2.2,5.3,17.5c-0.7,0.3-1.6,0.3-2.3,0c0,0-0.6-10.9-1.6-12.1S118.8,60.6,121.5,61.1z"/>
		<path class="st0" d="M122.5,95c0,1.2-1,2.2-2.2,2.2c-1.2,0-2.2-1-2.2-2.2H122.5z"/>
	</g>
	<g class="person">
		<rect x="92.8" y="80.5" class="st0" width="4.3" height="14.5"/>
		<path class="st0" d="M97.2,95c0,1.2-1,2.2-2.2,2.2c-1.2,0-2.2-1-2.2-2.2H97.2z"/>
		<rect x="98.2" y="81.5" class="st0" width="4.3" height="13.5"/>
		<circle class="st0" cx="97.5" cy="55.8" r="4.2"/>
		<path class="st0" d="M90.2,79c-0.7,0.3-1.4,0.3-2.1,0c0,0-0.7-14.6,5.8-18c2.6-0.6,5.3-0.6,7.9,0c0,0,5.6,2.2,5.3,17.5
			c-0.7,0.3-1.6,0.3-2.3,0c0,0-0.6-10.9-1.6-12.1s-0.7,15.4-0.7,15.4L92.9,82l-0.5-15.5C92.3,66.5,91.2,66.5,90.2,79z"/>
		<path class="st0" d="M101.5,61.1c0,0,5.6,2.2,5.3,17.5c-0.7,0.3-1.6,0.3-2.3,0c0,0-0.6-10.9-1.6-12.1S98.8,60.6,101.5,61.1z"/>
		<path class="st0" d="M102.5,95c0,1.2-1,2.2-2.2,2.2c-1.2,0-2.2-1-2.2-2.2H102.5z"/>
	</g>
	<g class="person">
		<rect x="70.8" y="80.5" class="st0" width="4.3" height="14.5"/>
		<path class="st0" d="M75.2,95c0,1.2-1,2.2-2.2,2.2c-1.2,0-2.2-1-2.2-2.2H75.2z"/>
		<rect x="76.2" y="81.5" class="st0" width="4.3" height="13.5"/>
		<circle class="st0" cx="75.5" cy="55.8" r="4.2"/>
		<path class="st0" d="M68.2,79c-0.7,0.3-1.4,0.3-2.1,0c0,0-0.7-14.6,5.8-18c2.6-0.6,5.3-0.6,7.9,0c0,0,5.6,2.1,5.3,17.5
			c-0.7,0.3-1.6,0.3-2.3,0c0,0-0.6-10.9-1.6-12.1s-0.7,15.4-0.7,15.4l-9.6,0.1l-0.5-15.5C70.3,66.5,69.2,66.5,68.2,79z"/>
		<path class="st0" d="M79.5,61.1c0,0,5.6,2.2,5.3,17.5c-0.7,0.3-1.6,0.3-2.3,0c0,0-0.6-10.9-1.6-12.1S76.8,60.6,79.5,61.1z"/>
		<path class="st0" d="M80.5,95c0,1.2-1,2.2-2.2,2.2c-1.2,0-2.2-1-2.2-2.2H80.5z"/>
	</g>
	<g class="person"> 
		<rect x="48.8" y="80.5" class="st0" width="4.3" height="14.5"/>
		<path class="st0" d="M53.2,95c0,1.2-1,2.2-2.2,2.2s-2.2-1-2.2-2.2H53.2z"/>
		<rect x="54.2" y="81.5" class="st0" width="4.3" height="13.5"/>
		<circle class="st0" cx="53.5" cy="55.8" r="4.2"/>
		<path class="st0" d="M46.2,79c-0.7,0.3-1.4,0.3-2.1,0c0,0-0.7-14.6,5.8-18c2.6-0.6,5.3-0.6,7.9,0c0,0,5.6,2.1,5.3,17.5
			c-0.7,0.3-1.6,0.3-2.3,0c0,0-0.6-10.9-1.6-12.1s-0.7,15.4-0.7,15.4l-9.6,0.1l-0.5-15.5C48.3,66.5,47.2,66.5,46.2,79z"/>
		<path class="st0" d="M57.5,61.1c0,0,5.6,2.2,5.3,17.5c-0.7,0.3-1.6,0.3-2.3,0c0,0-0.6-10.9-1.6-12.1S54.8,60.6,57.5,61.1z"/>
		<path class="st0" d="M58.5,95c0,1.2-1,2.2-2.2,2.2s-2.2-1-2.2-2.2H58.5z"/>
	</g>
	<g class="person">
		<rect x="26.8" y="80.5" class="st0" width="4.3" height="14.5"/>
		<path class="st0" d="M31.2,95c-0.1,1.2-1,2.1-2.2,2.2c-1.2-0.1-2.1-1-2.2-2.2H31.2z"/>
		<rect x="32.2" y="81.5" class="st0" width="4.3" height="13.5"/>
		<circle class="st0" cx="31.5" cy="55.8" r="4.2"/>
		<path class="st0" d="M24.2,79c-0.7,0.3-1.4,0.3-2.1,0c0,0-0.7-14.6,5.8-18c2.6-0.6,5.3-0.6,7.9,0c0,0,5.6,2.1,5.3,17.5
			c-0.7,0.3-1.6,0.3-2.3,0c0,0-0.6-10.9-1.6-12.1s-0.7,15.4-0.7,15.4l-9.6,0.1l-0.5-15.5C26.3,66.5,25.2,66.5,24.2,79z"/>
		<path class="st0" d="M35.5,61.1c0,0,5.6,2.2,5.3,17.5c-0.7,0.3-1.6,0.3-2.3,0c0,0-0.6-10.9-1.6-12.1S32.8,60.6,35.5,61.1z"/>
		<path class="st0" d="M36.5,95c0,1.2-1,2.2-2.2,2.2s-2.2-1-2.2-2.2H36.5z"/>
	</g>
	<g class="person">
		<rect x="5.8" y="80.5" class="st0" width="4.3" height="14.5"/>
		<path class="st0" d="M10.2,95c-0.1,1.2-1,2.1-2.2,2.2c-1.2-0.1-2.1-1-2.2-2.2H10.2z"/>
		<rect x="11.2" y="81.5" class="st0" width="4.3" height="13.5"/>
		<circle class="st0" cx="10.5" cy="55.8" r="4.2"/>
		<path class="st0" d="M3.2,79c-0.7,0.3-1.4,0.3-2.1,0c0,0-0.7-14.6,5.8-18c2.6-0.6,5.3-0.6,7.9,0c0,0,5.6,2.1,5.3,17.5
			c-0.7,0.3-1.6,0.3-2.3,0c0,0-0.6-10.9-1.6-12.1s-0.7,15.4-0.7,15.4l-9.6,0.1L5.3,66.5C5.3,66.5,4.2,66.5,3.2,79z"/>
		<path class="st0" d="M14.5,61.1c0,0,5.6,2.2,5.3,17.5c-0.7,0.3-1.6,0.3-2.3,0c0,0-0.6-10.9-1.6-12.1S11.8,60.6,14.5,61.1z"/>
		<path class="st0" d="M15.5,95c-0.1,1.2-1,2.1-2.2,2.2c-1.2-0.1-2.1-1-2.2-2.2H15.5z"/>
	</g>


</svg>
