<?xml version="1.0" encoding="utf-8"?>
<!-- Generator: Adobe Illustrator 21.1.0, SVG Export Plug-In . SVG Version: 6.00 Build 0)  -->
<svg version="1.1" id="Layer_1" xmlns="http://www.w3.org/2000/svg" xmlns:xlink="http://www.w3.org/1999/xlink" x="0px" y="0px"
	 viewBox="0 0 214 215.6" style="enable-background:new 0 0 214 215.6;" xml:space="preserve">
<style type="text/css">
	.person{fill: #3E3D3D;}
</style>
<g class="person">
	<rect x="4.8" y="28.9" class="st0" width="4.3" height="14.5"/>
	<path class="st0" d="M9.1,43.4c-0.1,1.2-1,2.1-2.2,2.2c-1.2-0.1-2.1-1-2.2-2.2H9.1z"/>
	<rect x="10.1" y="29.9" class="st0" width="4.3" height="13.5"/>
	<circle class="st0" cx="9.5" cy="4.2" r="4.2"/>
	<path class="st1" d="M17.6,7"/>
	<path class="st0" d="M2.1,27.4c-0.7,0.3-1.4,0.3-2.1,0c0,0-0.7-14.6,5.8-18c2.6-0.6,5.3-0.6,7.9,0c0,0,5.6,2.1,5.3,17.5
		c-0.7,0.3-1.6,0.3-2.3,0c0,0-0.6-10.9-1.6-12.1s-0.7,15.4-0.7,15.4l-9.6,0.1L4.3,14.8C4.3,14.8,3.1,14.8,2.1,27.4z"/>
	<path class="st0" d="M13.4,9.5c0,0,5.6,2.2,5.3,17.5c-0.7,0.3-1.6,0.3-2.3,0c0,0-0.6-10.9-1.6-12.1S10.8,8.9,13.4,9.5z"/>
	<path class="st0" d="M14.4,43.4c-0.1,1.2-1,2.1-2.2,2.2c-1.2-0.1-2.1-1-2.2-2.2H14.4z"/>
</g>
<g class="person">
	<rect x="25.8" y="28.9" class="st0" width="4.3" height="14.5"/>
	<path class="st0" d="M30.1,43.4c-0.1,1.2-1,2.1-2.2,2.2c-1.2-0.1-2.1-1-2.2-2.2H30.1z"/>
	<rect x="31.1" y="29.9" class="st0" width="4.3" height="13.5"/>
	<circle class="st0" cx="30.5" cy="4.2" r="4.2"/>
	<path class="st1" d="M38.6,7"/>
	<path class="st0" d="M23.1,27.4c-0.7,0.3-1.4,0.3-2.1,0c0,0-0.7-14.6,5.8-18c2.6-0.6,5.3-0.6,7.9,0c0,0,5.6,2.1,5.3,17.5
		c-0.7,0.3-1.6,0.3-2.3,0c0,0-0.6-10.9-1.6-12.1s-0.7,15.4-0.7,15.4l-9.6,0.1l-0.5-15.5C25.3,14.8,24.1,14.8,23.1,27.4z"/>
	<path class="st0" d="M34.4,9.5c0,0,5.6,2.2,5.3,17.5c-0.7,0.3-1.6,0.3-2.3,0c0,0-0.6-10.9-1.6-12.1S31.8,8.9,34.4,9.5z"/>
	<path class="st0" d="M35.4,43.4c0,1.2-1,2.2-2.2,2.2c-1.2,0-2.2-1-2.2-2.2c0,0,0,0,0,0H35.4z"/>
</g>
<g class="person">
	<rect x="47.8" y="28.9" class="st0" width="4.3" height="14.5"/>
	<path class="st0" d="M52.1,43.4c0,1.2-1,2.2-2.2,2.2c-1.2,0-2.2-1-2.2-2.2c0,0,0,0,0,0H52.1z"/>
	<rect x="53.1" y="29.9" class="st0" width="4.3" height="13.5"/>
	<circle class="st0" cx="52.5" cy="4.2" r="4.2"/>
	<path class="st1" d="M60.6,7"/>
	<path class="st0" d="M45.1,27.4c-0.7,0.3-1.4,0.3-2.1,0c0,0-0.7-14.6,5.8-18c2.6-0.6,5.3-0.6,7.9,0c0,0,5.6,2.1,5.3,17.5
		c-0.7,0.3-1.6,0.3-2.3,0c0,0-0.6-10.9-1.6-12.1s-0.7,15.4-0.7,15.4l-9.6,0.1l-0.5-15.5C47.3,14.8,46.1,14.8,45.1,27.4z"/>
	<path class="st0" d="M56.4,9.5c0,0,5.6,2.2,5.3,17.5c-0.7,0.3-1.6,0.3-2.3,0c0,0-0.6-10.9-1.6-12.1S53.8,8.9,56.4,9.5z"/>
	<path class="st0" d="M57.4,43.4c0,1.2-1,2.2-2.2,2.2c-1.2,0-2.2-1-2.2-2.2c0,0,0,0,0,0H57.4z"/>
</g>
<g class="person">
	<rect x="69.8" y="28.9" class="st0" width="4.3" height="14.5"/>
	<path class="st0" d="M74.1,43.4c0,1.2-1,2.2-2.2,2.2c-1.2,0-2.2-1-2.2-2.2H74.1z"/>
	<rect x="75.1" y="29.9" class="st0" width="4.3" height="13.5"/>
	<circle class="st0" cx="74.5" cy="4.2" r="4.2"/>
	<path class="st1" d="M82.6,7"/>
	<path class="st0" d="M67.1,27.4c-0.7,0.3-1.4,0.3-2.1,0c0,0-0.7-14.6,5.8-18c2.6-0.6,5.3-0.6,7.9,0c0,0,5.6,2.1,5.3,17.5
		c-0.7,0.3-1.6,0.3-2.3,0c0,0-0.6-10.9-1.6-12.1s-0.7,15.4-0.7,15.4l-9.6,0.1l-0.5-15.5C69.3,14.8,68.1,14.8,67.1,27.4z"/>
	<path class="st0" d="M78.4,9.5c0,0,5.6,2.2,5.3,17.5c-0.7,0.3-1.6,0.3-2.3,0c0,0-0.6-10.9-1.6-12.1S75.8,8.9,78.4,9.5z"/>
	<path class="st0" d="M79.4,43.4c0,1.2-1,2.2-2.2,2.2c-1.2,0-2.2-1-2.2-2.2H79.4z"/>
</g>
<g class="person">
	<rect x="91.8" y="28.9" class="st0" width="4.3" height="14.5"/>
	<path class="st0" d="M96.1,43.4c0,1.2-1,2.2-2.2,2.2c-1.2,0-2.2-1-2.2-2.2H96.1z"/>
	<rect x="97.1" y="29.9" class="st0" width="4.3" height="13.5"/>
	<circle class="st0" cx="96.5" cy="4.2" r="4.2"/>
	<path class="st1" d="M104.6,7"/>
	<path class="st0" d="M89.1,27.4c-0.7,0.3-1.4,0.3-2.1,0c0,0-0.7-14.6,5.8-18c2.6-0.6,5.3-0.6,7.9,0c0,0,5.6,2.2,5.3,17.5
		c-0.7,0.3-1.6,0.3-2.3,0c0,0-0.6-10.9-1.6-12.1s-0.7,15.4-0.7,15.4l-9.6,0.1l-0.5-15.5C91.3,14.9,90.1,14.8,89.1,27.4z"/>
	<path class="st0" d="M100.4,9.5c0,0,5.6,2.2,5.3,17.5c-0.7,0.3-1.6,0.3-2.3,0c0,0-0.6-10.9-1.6-12.1S97.8,8.9,100.4,9.5z"/>
	<path class="st0" d="M101.4,43.4c0,1.2-1,2.2-2.2,2.2c-1.2,0-2.2-1-2.2-2.2H101.4z"/>
</g>
<g class="person">
	<rect x="111.8" y="28.9" class="st0" width="4.3" height="14.5"/>
	<path class="st0" d="M116.1,43.4c0,1.2-1,2.2-2.2,2.2c-1.2,0-2.2-1-2.2-2.2H116.1z"/>
	<rect x="117.1" y="29.9" class="st0" width="4.3" height="13.5"/>
	<circle class="st0" cx="116.5" cy="4.2" r="4.2"/>
	<path class="st1" d="M124.6,7"/>
	<path class="st0" d="M109.1,27.4c-0.7,0.3-1.4,0.3-2.1,0c0,0-0.7-14.6,5.8-18c2.6-0.6,5.3-0.6,7.9,0c0,0,5.6,2.2,5.3,17.5
		c-0.7,0.3-1.6,0.3-2.3,0c0,0-0.6-10.9-1.6-12.1s-0.7,15.4-0.7,15.4l-9.6,0.1l-0.5-15.5C111.3,14.9,110.1,14.8,109.1,27.4z"/>
	<path class="st0" d="M120.4,9.5c0,0,5.6,2.2,5.3,17.5c-0.7,0.3-1.6,0.3-2.3,0c0,0-0.6-10.9-1.6-12.1S117.8,8.9,120.4,9.5z"/>
	<path class="st0" d="M121.4,43.4c0,1.2-1,2.2-2.2,2.2c-1.2,0-2.2-1-2.2-2.2H121.4z"/>
</g>
<g class="person">
	<rect x="133.8" y="28.9" class="st0" width="4.3" height="14.5"/>
	<path class="st0" d="M138.1,43.4c0,1.2-1,2.2-2.2,2.2c-1.2,0-2.2-1-2.2-2.2c0,0,0,0,0,0H138.1z"/>
	<rect x="139.1" y="29.9" class="st0" width="4.3" height="13.5"/>
	<circle class="st0" cx="138.5" cy="4.2" r="4.2"/>
	<path class="st1" d="M146.6,7"/>
	<path class="st0" d="M131.1,27.4c-0.7,0.3-1.4,0.3-2.1,0c0,0-0.7-14.6,5.8-18c2.6-0.6,5.3-0.6,7.9,0c0,0,5.6,2.2,5.3,17.5
		c-0.7,0.3-1.6,0.3-2.3,0c0,0-0.6-10.9-1.6-12.1s-0.7,15.4-0.7,15.4l-9.6,0.1l-0.5-15.5C133.3,14.9,132.1,14.8,131.1,27.4z"/>
	<path class="st0" d="M142.4,9.5c0,0,5.6,2.2,5.3,17.5c-0.7,0.3-1.6,0.3-2.3,0c0,0-0.6-10.9-1.6-12.1S139.8,8.9,142.4,9.5z"/>
	<path class="st0" d="M143.4,43.4c0,1.2-1,2.2-2.2,2.2c-1.2,0-2.2-1-2.2-2.2c0,0,0,0,0,0H143.4z"/>
</g>
<g class="person">
	<rect x="155.8" y="28.9" class="st0" width="4.3" height="14.5"/>
	<path class="st0" d="M160.1,43.4c0,1.2-1,2.2-2.2,2.2c-1.2,0-2.2-1-2.2-2.2c0,0,0,0,0,0H160.1z"/>
	<rect x="161.1" y="29.9" class="st0" width="4.3" height="13.5"/>
	<circle class="st0" cx="160.5" cy="4.2" r="4.2"/>
	<path class="st1" d="M168.6,7"/>
	<path class="st0" d="M153.1,27.4c-0.7,0.3-1.4,0.3-2.1,0c0,0-0.7-14.6,5.8-18c2.6-0.6,5.3-0.6,7.9,0c0,0,5.6,2.2,5.3,17.5
		c-0.7,0.3-1.6,0.3-2.3,0c0,0-0.6-10.9-1.6-12.1s-0.7,15.4-0.7,15.4l-9.6,0.1l-0.5-15.5C155.3,14.9,154.1,14.8,153.1,27.4z"/>
	<path class="st0" d="M164.4,9.5c0,0,5.6,2.2,5.3,17.5c-0.7,0.3-1.6,0.3-2.3,0c0,0-0.6-10.9-1.6-12.1S161.8,8.9,164.4,9.5z"/>
	<path class="st0" d="M165.4,43.4c0,1.2-1,2.2-2.2,2.2c-1.2,0-2.2-1-2.2-2.2c0,0,0,0,0,0H165.4z"/>
</g>
<g class="person">
	<rect x="177.8" y="28.9" class="st0" width="4.3" height="14.5"/>
	<path class="st0" d="M182.1,43.4c0,1.2-1,2.2-2.2,2.2c-1.2,0-2.2-1-2.2-2.2c0,0,0,0,0,0H182.1z"/>
	<rect x="183.1" y="29.9" class="st0" width="4.3" height="13.5"/>
	<circle class="st0" cx="182.5" cy="4.2" r="4.2"/>
	<path class="st1" d="M190.6,7"/>
	<path class="st0" d="M175.1,27.4c-0.7,0.3-1.4,0.3-2.1,0c0,0-0.7-14.6,5.8-18c2.6-0.6,5.3-0.6,7.9,0c0,0,5.6,2.2,5.3,17.5
		c-0.7,0.3-1.6,0.3-2.3,0c0,0-0.6-10.9-1.6-12.1s-0.7,15.4-0.7,15.4l-9.6,0.1l-0.5-15.5C177.3,14.9,176.1,14.8,175.1,27.4z"/>
	<path class="st0" d="M186.4,9.5c0,0,5.6,2.2,5.3,17.5c-0.7,0.3-1.6,0.3-2.3,0c0,0-0.6-10.9-1.6-12.1S183.8,8.9,186.4,9.5z"/>
	<path class="st0" d="M187.4,43.4c0,1.2-1,2.2-2.2,2.2c-1.2,0-2.2-1-2.2-2.2c0,0,0,0,0,0H187.4z"/>
</g>
<g class="person">
	<rect x="199.8" y="28.9" class="st0" width="4.3" height="14.5"/>
	<path class="st0" d="M204.1,43.4c0,1.2-1,2.2-2.2,2.2c-1.2,0-2.2-1-2.2-2.2c0,0,0,0,0,0H204.1z"/>
	<rect x="205.1" y="29.9" class="st0" width="4.3" height="13.5"/>
	<circle class="st0" cx="204.5" cy="4.2" r="4.2"/>
	<path class="st1" d="M212.6,7"/>
	<path class="st0" d="M197.1,27.4c-0.7,0.3-1.4,0.3-2.1,0c0,0-0.7-14.6,5.8-18c2.6-0.6,5.3-0.6,7.9,0c0,0,5.6,2.2,5.3,17.5
		c-0.7,0.3-1.6,0.3-2.3,0c0,0-0.6-10.9-1.6-12.1s-0.7,15.4-0.7,15.4l-9.6,0.1l-0.5-15.5C199.3,14.9,198.1,14.8,197.1,27.4z"/>
	<path class="st0" d="M208.4,9.5c0,0,5.6,2.2,5.3,17.5c-0.7,0.3-1.6,0.3-2.3,0c0,0-0.6-10.9-1.6-12.1S205.8,8.9,208.4,9.5z"/>
	<path class="st0" d="M209.4,43.4c0,1.2-1,2.2-2.2,2.2c-1.2,0-2.2-1-2.2-2.2c0,0,0,0,0,0H209.4z"/>
</g>
<g class="person">
	<rect x="199.8" y="86.9" class="st0" width="4.3" height="14.5"/>
	<path class="st0" d="M204.1,101.4c0,1.2-1,2.2-2.2,2.2s-2.2-1-2.2-2.2c0,0,0,0,0,0H204.1z"/>
	<rect x="205.1" y="87.9" class="st0" width="4.3" height="13.5"/>
	<circle class="st0" cx="204.5" cy="62.2" r="4.2"/>
	<path class="st1" d="M212.6,65"/>
	<path class="st0" d="M197.1,85.4c-0.7,0.3-1.4,0.3-2.1,0c0,0-0.7-14.6,5.8-18c2.6-0.6,5.3-0.6,7.9,0c0,0,5.6,2.2,5.3,17.6
		c-0.7,0.3-1.6,0.3-2.3,0c0,0-0.6-10.9-1.6-12.1s-0.7,15.4-0.7,15.4l-9.6,0.1l-0.5-15.5C199.3,72.9,198.1,72.8,197.1,85.4z"/>
	<path class="st0" d="M208.4,67.5c0,0,5.6,2.2,5.3,17.5c-0.7,0.3-1.6,0.3-2.3,0c0,0-0.6-10.9-1.6-12.1S205.8,66.9,208.4,67.5z"/>
	<path class="st0" d="M209.4,101.4c0,1.2-1,2.2-2.2,2.2s-2.2-1-2.2-2.2c0,0,0,0,0,0H209.4z"/>
</g>
<g class="person">
	<rect x="177.8" y="86.9" class="st0" width="4.3" height="14.5"/>
	<path class="st0" d="M182.1,101.4c0,1.2-1,2.2-2.2,2.2s-2.2-1-2.2-2.2c0,0,0,0,0,0H182.1z"/>
	<rect x="183.1" y="87.9" class="st0" width="4.3" height="13.5"/>
	<circle class="st0" cx="182.5" cy="62.2" r="4.2"/>
	<path class="st1" d="M190.6,65"/>
	<path class="st0" d="M175.1,85.4c-0.7,0.3-1.4,0.3-2.1,0c0,0-0.7-14.6,5.8-18c2.6-0.6,5.3-0.6,7.9,0c0,0,5.6,2.2,5.3,17.6
		c-0.7,0.3-1.6,0.3-2.3,0c0,0-0.6-10.9-1.6-12.1s-0.7,15.4-0.7,15.4l-9.6,0.1l-0.5-15.5C177.3,72.9,176.1,72.8,175.1,85.4z"/>
	<path class="st0" d="M186.4,67.5c0,0,5.6,2.2,5.3,17.5c-0.7,0.3-1.6,0.3-2.3,0c0,0-0.6-10.9-1.6-12.1S183.8,66.9,186.4,67.5z"/>
	<path class="st0" d="M187.4,101.4c0,1.2-1,2.2-2.2,2.2s-2.2-1-2.2-2.2c0,0,0,0,0,0H187.4z"/>
</g>
<g class="person">
	<rect x="155.8" y="86.9" class="st0" width="4.3" height="14.5"/>
	<path class="st0" d="M160.1,101.4c0,1.2-1,2.2-2.2,2.2s-2.2-1-2.2-2.2c0,0,0,0,0,0H160.1z"/>
	<rect x="161.1" y="87.9" class="st0" width="4.3" height="13.5"/>
	<circle class="st0" cx="160.5" cy="62.2" r="4.2"/>
	<path class="st1" d="M168.6,65"/>
	<path class="st0" d="M153.1,85.4c-0.7,0.3-1.4,0.3-2.1,0c0,0-0.7-14.6,5.8-18c2.6-0.6,5.3-0.6,7.9,0c0,0,5.6,2.2,5.3,17.6
		c-0.7,0.3-1.6,0.3-2.3,0c0,0-0.6-10.9-1.6-12.1s-0.7,15.4-0.7,15.4l-9.6,0.1l-0.5-15.5C155.3,72.9,154.1,72.8,153.1,85.4z"/>
	<path class="st0" d="M164.4,67.5c0,0,5.6,2.2,5.3,17.5c-0.7,0.3-1.6,0.3-2.3,0c0,0-0.6-10.9-1.6-12.1S161.8,66.9,164.4,67.5z"/>
	<path class="st0" d="M165.4,101.4c0,1.2-1,2.2-2.2,2.2s-2.2-1-2.2-2.2c0,0,0,0,0,0H165.4z"/>
</g>
<g class="person">
	<rect x="133.8" y="86.9" class="st0" width="4.3" height="14.5"/>
	<path class="st0" d="M138.1,101.4c0,1.2-1,2.2-2.2,2.2s-2.2-1-2.2-2.2c0,0,0,0,0,0H138.1z"/>
	<rect x="139.1" y="87.9" class="st0" width="4.3" height="13.5"/>
	<circle class="st0" cx="138.5" cy="62.2" r="4.2"/>
	<path class="st1" d="M146.6,65"/>
	<path class="st0" d="M131.1,85.4c-0.7,0.3-1.4,0.3-2.1,0c0,0-0.7-14.6,5.8-18c2.6-0.6,5.3-0.6,7.9,0c0,0,5.6,2.2,5.3,17.6
		c-0.7,0.3-1.6,0.3-2.3,0c0,0-0.6-10.9-1.6-12.1s-0.7,15.4-0.7,15.4l-9.6,0.1l-0.5-15.5C133.3,72.9,132.1,72.8,131.1,85.4z"/>
	<path class="st0" d="M142.4,67.5c0,0,5.6,2.2,5.3,17.5c-0.7,0.3-1.6,0.3-2.3,0c0,0-0.6-10.9-1.6-12.1S139.8,66.9,142.4,67.5z"/>
	<path class="st0" d="M143.4,101.4c0,1.2-1,2.2-2.2,2.2s-2.2-1-2.2-2.2c0,0,0,0,0,0H143.4z"/>
</g>
<g class="person">
	<rect x="111.8" y="86.9" class="st0" width="4.3" height="14.5"/>
	<path class="st0" d="M116.1,101.4c0,1.2-1,2.2-2.2,2.2c-1.2,0-2.2-1-2.2-2.2H116.1z"/>
	<rect x="117.1" y="87.9" class="st0" width="4.3" height="13.5"/>
	<circle class="st0" cx="116.5" cy="62.2" r="4.2"/>
	<path class="st1" d="M124.6,65"/>
	<path class="st0" d="M109.1,85.4c-0.7,0.3-1.4,0.3-2.1,0c0,0-0.7-14.6,5.8-18c2.6-0.6,5.3-0.6,7.9,0c0,0,5.6,2.2,5.3,17.6
		c-0.7,0.3-1.6,0.3-2.3,0c0,0-0.6-10.9-1.6-12.1s-0.7,15.4-0.7,15.4l-9.6,0.1l-0.5-15.5C111.3,72.9,110.1,72.8,109.1,85.4z"/>
	<path class="st0" d="M120.4,67.5c0,0,5.6,2.2,5.3,17.5c-0.7,0.3-1.6,0.3-2.3,0c0,0-0.6-10.9-1.6-12.1S117.8,66.9,120.4,67.5z"/>
	<path class="st0" d="M121.4,101.4c0,1.2-1,2.2-2.2,2.2c-1.2,0-2.2-1-2.2-2.2H121.4z"/>
</g>
<g class="person">
	<rect x="91.8" y="86.9" class="st0" width="4.3" height="14.5"/>
	<path class="st0" d="M96.1,101.4c0,1.2-1,2.2-2.2,2.2c-1.2,0-2.2-1-2.2-2.2H96.1z"/>
	<rect x="97.1" y="87.9" class="st0" width="4.3" height="13.5"/>
	<circle class="st0" cx="96.5" cy="62.2" r="4.2"/>
	<path class="st1" d="M104.6,65"/>
	<path class="st0" d="M89.1,85.4c-0.7,0.3-1.4,0.3-2.1,0c0,0-0.7-14.6,5.8-18c2.6-0.6,5.3-0.6,7.9,0c0,0,5.6,2.2,5.3,17.6
		c-0.7,0.3-1.6,0.3-2.3,0c0,0-0.6-10.9-1.6-12.1s-0.7,15.4-0.7,15.4l-9.6,0.1l-0.5-15.5C91.3,72.9,90.1,72.8,89.1,85.4z"/>
	<path class="st0" d="M100.4,67.5c0,0,5.6,2.2,5.3,17.5c-0.7,0.3-1.6,0.3-2.3,0c0,0-0.6-10.9-1.6-12.1S97.8,66.9,100.4,67.5z"/>
	<path class="st0" d="M101.4,101.4c0,1.2-1,2.2-2.2,2.2c-1.2,0-2.2-1-2.2-2.2H101.4z"/>
</g>
<g class="person">
	<rect x="69.8" y="86.9" class="st0" width="4.3" height="14.5"/>
	<path class="st0" d="M74.1,101.4c0,1.2-1,2.2-2.2,2.2c-1.2,0-2.2-1-2.2-2.2H74.1z"/>
	<rect x="75.1" y="87.9" class="st0" width="4.3" height="13.5"/>
	<circle class="st0" cx="74.5" cy="62.2" r="4.2"/>
	<path class="st1" d="M82.6,65"/>
	<path class="st0" d="M67.1,85.4c-0.7,0.3-1.4,0.3-2.1,0c0,0-0.7-14.6,5.8-18c2.6-0.6,5.3-0.6,7.9,0c0,0,5.6,2.1,5.3,17.5
		c-0.7,0.3-1.6,0.3-2.3,0c0,0-0.6-10.9-1.6-12.1s-0.7,15.4-0.7,15.4l-9.6,0.1l-0.5-15.5C69.3,72.8,68.1,72.8,67.1,85.4z"/>
	<path class="st0" d="M78.4,67.5c0,0,5.6,2.2,5.3,17.5c-0.7,0.3-1.6,0.3-2.3,0c0,0-0.6-10.9-1.6-12.1S75.8,66.9,78.4,67.5z"/>
	<path class="st0" d="M79.4,101.4c0,1.2-1,2.2-2.2,2.2c-1.2,0-2.2-1-2.2-2.2H79.4z"/>
</g>
<g class="person">
	<rect x="47.8" y="86.9" class="st0" width="4.3" height="14.5"/>
	<path class="st0" d="M52.1,101.4c0,1.2-1,2.2-2.2,2.2c-1.2,0-2.2-1-2.2-2.2c0,0,0,0,0,0H52.1z"/>
	<rect x="53.1" y="87.9" class="st0" width="4.3" height="13.5"/>
	<circle class="st0" cx="52.5" cy="62.2" r="4.2"/>
	<path class="st1" d="M60.6,65"/>
	<path class="st0" d="M45.1,85.4c-0.7,0.3-1.4,0.3-2.1,0c0,0-0.7-14.6,5.8-18c2.6-0.6,5.3-0.6,7.9,0c0,0,5.6,2.1,5.3,17.5
		c-0.7,0.3-1.6,0.3-2.3,0c0,0-0.6-10.9-1.6-12.1s-0.7,15.4-0.7,15.4l-9.6,0.1l-0.5-15.5C47.3,72.8,46.1,72.8,45.1,85.4z"/>
	<path class="st0" d="M56.4,67.5c0,0,5.6,2.2,5.3,17.5c-0.7,0.3-1.6,0.3-2.3,0c0,0-0.6-10.9-1.6-12.1S53.8,66.9,56.4,67.5z"/>
	<path class="st0" d="M57.4,101.4c0,1.2-1,2.2-2.2,2.2c-1.2,0-2.2-1-2.2-2.2c0,0,0,0,0,0H57.4z"/>
</g>
<g class="person">
	<rect x="25.8" y="86.9" class="st0" width="4.3" height="14.5"/>
	<path class="st0" d="M30.1,101.4c-0.1,1.2-1,2.1-2.2,2.2c-1.2-0.1-2.1-1-2.2-2.2H30.1z"/>
	<rect x="31.1" y="87.9" class="st0" width="4.3" height="13.5"/>
	<circle class="st0" cx="30.5" cy="62.2" r="4.2"/>
	<path class="st1" d="M38.6,65"/>
	<path class="st0" d="M23.1,85.4c-0.7,0.3-1.4,0.3-2.1,0c0,0-0.7-14.6,5.8-18c2.6-0.6,5.3-0.6,7.9,0c0,0,5.6,2.1,5.3,17.5
		c-0.7,0.3-1.6,0.3-2.3,0c0,0-0.6-10.9-1.6-12.1s-0.7,15.4-0.7,15.4l-9.6,0.1l-0.5-15.5C25.3,72.8,24.1,72.8,23.1,85.4z"/>
	<path class="st0" d="M34.4,67.5c0,0,5.6,2.2,5.3,17.5c-0.7,0.3-1.6,0.3-2.3,0c0,0-0.6-10.9-1.6-12.1S31.8,66.9,34.4,67.5z"/>
	<path class="st0" d="M35.4,101.4c0,1.2-1,2.2-2.2,2.2c-1.2,0-2.2-1-2.2-2.2c0,0,0,0,0,0H35.4z"/>
</g>
<g class="person">
	<rect x="4.8" y="86.9" class="st0" width="4.3" height="14.5"/>
	<path class="st0" d="M9.1,101.4c-0.1,1.2-1,2.1-2.2,2.2c-1.2-0.1-2.1-1-2.2-2.2H9.1z"/>
	<rect x="10.1" y="87.9" class="st0" width="4.3" height="13.5"/>
	<circle class="st0" cx="9.5" cy="62.2" r="4.2"/>
	<path class="st1" d="M17.6,65"/>
	<path class="st0" d="M2.1,85.4c-0.7,0.3-1.4,0.3-2.1,0c0,0-0.7-14.6,5.8-18c2.6-0.6,5.3-0.6,7.9,0c0,0,5.6,2.1,5.3,17.5
		c-0.7,0.3-1.6,0.3-2.3,0c0,0-0.6-10.9-1.6-12.1s-0.7,15.4-0.7,15.4l-9.6,0.1L4.3,72.8C4.3,72.8,3.1,72.8,2.1,85.4z"/>
	<path class="st0" d="M13.4,67.5c0,0,5.6,2.2,5.3,17.5c-0.7,0.3-1.6,0.3-2.3,0c0,0-0.6-10.9-1.6-12.1S10.8,66.9,13.4,67.5z"/>
	<path class="st0" d="M14.4,101.4c-0.1,1.2-1,2.1-2.2,2.2c-1.2-0.1-2.1-1-2.2-2.2H14.4z"/>
</g>
<g class="person">
	<rect x="4.8" y="144.9" class="st0" width="4.3" height="14.5"/>
	<path class="st0" d="M9.1,159.4c-0.1,1.2-1,2.1-2.2,2.2c-1.2-0.1-2.1-1-2.2-2.2H9.1z"/>
	<rect x="10.1" y="145.9" class="st0" width="4.3" height="13.5"/>
	<circle class="st0" cx="9.5" cy="120.2" r="4.2"/>
	<path class="st1" d="M17.6,123"/>
	<path class="st0" d="M2.1,143.4c-0.7,0.3-1.4,0.3-2.1,0c0,0-0.7-14.6,5.8-18c2.6-0.6,5.3-0.6,7.9,0c0,0,5.6,2.2,5.3,17.6
		c-0.7,0.3-1.6,0.3-2.3,0c0,0-0.6-10.9-1.6-12.1s-0.7,15.4-0.7,15.4l-9.6,0.1l-0.5-15.5C4.3,130.9,3.1,130.8,2.1,143.4z"/>
	<path class="st0" d="M13.4,125.5c0,0,5.6,2.2,5.3,17.5c-0.7,0.3-1.6,0.3-2.3,0c0,0-0.6-10.9-1.6-12.1S10.8,124.9,13.4,125.5z"/>
	<path class="st0" d="M14.4,159.4c-0.1,1.2-1,2.1-2.2,2.2c-1.2-0.1-2.1-1-2.2-2.2H14.4z"/>
</g>
<g class="person">
	<rect x="25.8" y="144.9" class="st0" width="4.3" height="14.5"/>
	<path class="st0" d="M30.1,159.4c-0.1,1.2-1,2.1-2.2,2.2c-1.2-0.1-2.1-1-2.2-2.2H30.1z"/>
	<rect x="31.1" y="145.9" class="st0" width="4.3" height="13.5"/>
	<circle class="st0" cx="30.5" cy="120.2" r="4.2"/>
	<path class="st1" d="M38.6,123"/>
	<path class="st0" d="M23.1,143.4c-0.7,0.3-1.4,0.3-2.1,0c0,0-0.7-14.6,5.8-18c2.6-0.6,5.3-0.6,7.9,0c0,0,5.6,2.2,5.3,17.6
		c-0.7,0.3-1.6,0.3-2.3,0c0,0-0.6-10.9-1.6-12.1s-0.7,15.4-0.7,15.4l-9.6,0.1l-0.5-15.5C25.3,130.9,24.1,130.8,23.1,143.4z"/>
	<path class="st0" d="M34.4,125.5c0,0,5.6,2.2,5.3,17.5c-0.7,0.3-1.6,0.3-2.3,0c0,0-0.6-10.9-1.6-12.1S31.8,124.9,34.4,125.5z"/>
	<path class="st0" d="M35.4,159.4c0,1.2-1,2.2-2.2,2.2c-1.2,0-2.2-1-2.2-2.2c0,0,0,0,0,0H35.4z"/>
</g>
<g class="person">
	<rect x="47.8" y="144.9" class="st0" width="4.3" height="14.5"/>
	<path class="st0" d="M52.1,159.4c0,1.2-1,2.2-2.2,2.2c-1.2,0-2.2-1-2.2-2.2c0,0,0,0,0,0H52.1z"/>
	<rect x="53.1" y="145.9" class="st0" width="4.3" height="13.5"/>
	<circle class="st0" cx="52.5" cy="120.2" r="4.2"/>
	<path class="st1" d="M60.6,123"/>
	<path class="st0" d="M45.1,143.4c-0.7,0.3-1.4,0.3-2.1,0c0,0-0.7-14.6,5.8-18c2.6-0.6,5.3-0.6,7.9,0c0,0,5.6,2.2,5.3,17.6
		c-0.7,0.3-1.6,0.3-2.3,0c0,0-0.6-10.9-1.6-12.1s-0.7,15.4-0.7,15.4l-9.6,0.1l-0.5-15.5C47.3,130.9,46.1,130.8,45.1,143.4z"/>
	<path class="st0" d="M56.4,125.5c0,0,5.6,2.2,5.3,17.5c-0.7,0.3-1.6,0.3-2.3,0c0,0-0.6-10.9-1.6-12.1S53.8,124.9,56.4,125.5z"/>
	<path class="st0" d="M57.4,159.4c0,1.2-1,2.2-2.2,2.2c-1.2,0-2.2-1-2.2-2.2c0,0,0,0,0,0H57.4z"/>
</g>
<g class="person">
	<rect x="69.8" y="144.9" class="st0" width="4.3" height="14.5"/>
	<path class="st0" d="M74.1,159.4c0,1.2-1,2.2-2.2,2.2c-1.2,0-2.2-1-2.2-2.2H74.1z"/>
	<rect x="75.1" y="145.9" class="st0" width="4.3" height="13.5"/>
	<circle class="st0" cx="74.5" cy="120.2" r="4.2"/>
	<path class="st1" d="M82.6,123"/>
	<path class="st0" d="M67.1,143.4c-0.7,0.3-1.4,0.3-2.1,0c0,0-0.7-14.6,5.8-18c2.6-0.6,5.3-0.6,7.9,0c0,0,5.6,2.2,5.3,17.6
		c-0.7,0.3-1.6,0.3-2.3,0c0,0-0.6-10.9-1.6-12.1s-0.7,15.4-0.7,15.4l-9.6,0.1l-0.5-15.5C69.3,130.9,68.1,130.8,67.1,143.4z"/>
	<path class="st0" d="M78.4,125.5c0,0,5.6,2.2,5.3,17.5c-0.7,0.3-1.6,0.3-2.3,0c0,0-0.6-10.9-1.6-12.1S75.8,124.9,78.4,125.5z"/>
	<path class="st0" d="M79.4,159.4c0,1.2-1,2.2-2.2,2.2c-1.2,0-2.2-1-2.2-2.2H79.4z"/>
</g>
<g class="person">
	<rect x="111.8" y="144.9" class="st0" width="4.3" height="14.5"/>
	<path class="st0" d="M116.1,159.4c0,1.2-1,2.2-2.2,2.2c-1.2,0-2.2-1-2.2-2.2H116.1z"/>
	<rect x="117.1" y="145.9" class="st0" width="4.3" height="13.5"/>
	<circle class="st0" cx="116.5" cy="120.2" r="4.2"/>
	<path class="st1" d="M124.6,123"/>
	<path class="st0" d="M109.1,143.4c-0.7,0.3-1.4,0.3-2.1,0c0,0-0.7-14.6,5.8-18c2.6-0.6,5.3-0.6,7.9,0c0,0,5.6,2.2,5.3,17.6
		c-0.7,0.3-1.6,0.3-2.3,0c0,0-0.6-10.9-1.6-12.1s-0.7,15.4-0.7,15.4l-9.6,0.1l-0.5-15.5C111.3,130.9,110.1,130.8,109.1,143.4z"/>
	<path class="st0" d="M120.4,125.5c0,0,5.6,2.2,5.3,17.5c-0.7,0.3-1.6,0.3-2.3,0c0,0-0.6-10.9-1.6-12.1S117.8,124.9,120.4,125.5z"/>
	<path class="st0" d="M121.4,159.4c0,1.2-1,2.2-2.2,2.2c-1.2,0-2.2-1-2.2-2.2H121.4z"/>
</g>
<g class="person">
	<rect x="133.8" y="144.9" class="st0" width="4.3" height="14.5"/>
	<path class="st0" d="M138.1,159.4c0,1.2-1,2.2-2.2,2.2s-2.2-1-2.2-2.2c0,0,0,0,0,0H138.1z"/>
	<rect x="139.1" y="145.9" class="st0" width="4.3" height="13.5"/>
	<circle class="st0" cx="138.5" cy="120.2" r="4.2"/>
	<path class="st1" d="M146.6,123"/>
	<path class="st0" d="M131.1,143.4c-0.7,0.3-1.4,0.3-2.1,0c0,0-0.7-14.6,5.8-18c2.6-0.6,5.3-0.6,7.9,0c0,0,5.6,2.2,5.3,17.6
		c-0.7,0.3-1.6,0.3-2.3,0c0,0-0.6-10.9-1.6-12.1s-0.7,15.4-0.7,15.4l-9.6,0.1l-0.5-15.5C133.3,130.9,132.1,130.8,131.1,143.4z"/>
	<path class="st0" d="M142.4,125.5c0,0,5.6,2.2,5.3,17.5c-0.7,0.3-1.6,0.3-2.3,0c0,0-0.6-10.9-1.6-12.1S139.8,124.9,142.4,125.5z"/>
	<path class="st0" d="M143.4,159.4c0,1.2-1,2.2-2.2,2.2s-2.2-1-2.2-2.2c0,0,0,0,0,0H143.4z"/>
</g>
<g class="person">
	<rect x="155.8" y="144.9" class="st0" width="4.3" height="14.5"/>
	<path class="st0" d="M160.1,159.4c0,1.2-1,2.2-2.2,2.2s-2.2-1-2.2-2.2c0,0,0,0,0,0H160.1z"/>
	<rect x="161.1" y="145.9" class="st0" width="4.3" height="13.5"/>
	<circle class="st0" cx="160.5" cy="120.2" r="4.2"/>
	<path class="st1" d="M168.6,123"/>
	<path class="st0" d="M153.1,143.4c-0.7,0.3-1.4,0.3-2.1,0c0,0-0.7-14.6,5.8-18c2.6-0.6,5.3-0.6,7.9,0c0,0,5.6,2.2,5.3,17.6
		c-0.7,0.3-1.6,0.3-2.3,0c0,0-0.6-10.9-1.6-12.1s-0.7,15.4-0.7,15.4l-9.6,0.1l-0.5-15.5C155.3,130.9,154.1,130.8,153.1,143.4z"/>
	<path class="st0" d="M164.4,125.5c0,0,5.6,2.2,5.3,17.5c-0.7,0.3-1.6,0.3-2.3,0c0,0-0.6-10.9-1.6-12.1S161.8,124.9,164.4,125.5z"/>
	<path class="st0" d="M165.4,159.4c0,1.2-1,2.2-2.2,2.2s-2.2-1-2.2-2.2c0,0,0,0,0,0H165.4z"/>
</g>
<g class="person">
	<rect x="177.8" y="144.9" class="st0" width="4.3" height="14.5"/>
	<path class="st0" d="M182.1,159.4c0,1.2-1,2.2-2.2,2.2s-2.2-1-2.2-2.2c0,0,0,0,0,0H182.1z"/>
	<rect x="183.1" y="145.9" class="st0" width="4.3" height="13.5"/>
	<circle class="st0" cx="182.5" cy="120.2" r="4.2"/>
	<path class="st1" d="M190.6,123"/>
	<path class="st0" d="M175.1,143.4c-0.7,0.3-1.4,0.3-2.1,0c0,0-0.7-14.6,5.8-18c2.6-0.6,5.3-0.6,7.9,0c0,0,5.6,2.2,5.3,17.6
		c-0.7,0.3-1.6,0.3-2.3,0c0,0-0.6-10.9-1.6-12.1s-0.7,15.4-0.7,15.4l-9.6,0.1l-0.5-15.5C177.3,130.9,176.1,130.8,175.1,143.4z"/>
	<path class="st0" d="M186.4,125.5c0,0,5.6,2.2,5.3,17.5c-0.7,0.3-1.6,0.3-2.3,0c0,0-0.6-10.9-1.6-12.1S183.8,124.9,186.4,125.5z"/>
	<path class="st0" d="M187.4,159.4c0,1.2-1,2.2-2.2,2.2s-2.2-1-2.2-2.2c0,0,0,0,0,0H187.4z"/>
</g>
<g class="person">
	<rect x="199.8" y="144.9" class="st0" width="4.3" height="14.5"/>
	<path class="st0" d="M204.1,159.4c0,1.2-1,2.2-2.2,2.2s-2.2-1-2.2-2.2c0,0,0,0,0,0H204.1z"/>
	<rect x="205.1" y="145.9" class="st0" width="4.3" height="13.5"/>
	<circle class="st0" cx="204.5" cy="120.2" r="4.2"/>
	<path class="st1" d="M212.6,123"/>
	<path class="st0" d="M197.1,143.4c-0.7,0.3-1.4,0.3-2.1,0c0,0-0.7-14.6,5.8-18c2.6-0.6,5.3-0.6,7.9,0c0,0,5.6,2.2,5.3,17.6
		c-0.7,0.3-1.6,0.3-2.3,0c0,0-0.6-10.9-1.6-12.1s-0.7,15.4-0.7,15.4l-9.6,0.1l-0.5-15.5C199.3,130.9,198.1,130.8,197.1,143.4z"/>
	<path class="st0" d="M208.4,125.5c0,0,5.6,2.2,5.3,17.5c-0.7,0.3-1.6,0.3-2.3,0c0,0-0.6-10.9-1.6-12.1S205.8,124.9,208.4,125.5z"/>
	<path class="st0" d="M209.4,159.4c0,1.2-1,2.2-2.2,2.2s-2.2-1-2.2-2.2c0,0,0,0,0,0H209.4z"/>
</g>
<g class="person">
	<rect x="199.8" y="198.9" class="st0" width="4.3" height="14.5"/>
	<path class="st0" d="M204.1,213.4c0,1.2-1,2.2-2.2,2.2s-2.2-1-2.2-2.2c0,0,0,0,0,0H204.1z"/>
	<rect x="205.1" y="199.9" class="st0" width="4.3" height="13.5"/>
	<circle class="st0" cx="204.5" cy="174.2" r="4.2"/>
	<path class="st1" d="M212.6,177"/>
	<path class="st0" d="M197.1,197.4c-0.7,0.3-1.4,0.3-2.1,0c0,0-0.7-14.6,5.8-18c2.6-0.6,5.3-0.6,7.9,0c0,0,5.6,2.2,5.3,17.6
		c-0.7,0.3-1.6,0.3-2.3,0c0,0-0.6-10.9-1.6-12.1s-0.7,15.4-0.7,15.4l-9.6,0.1l-0.5-15.5C199.3,184.9,198.1,184.8,197.1,197.4z"/>
	<path class="st0" d="M208.4,179.5c0,0,5.6,2.2,5.3,17.6c-0.7,0.3-1.6,0.3-2.3,0c0,0-0.6-10.9-1.6-12.1S205.8,178.9,208.4,179.5z"/>
	<path class="st0" d="M209.4,213.4c0,1.2-1,2.2-2.2,2.2s-2.2-1-2.2-2.2c0,0,0,0,0,0H209.4z"/>
</g>
<g class="person">
	<rect x="177.8" y="198.9" class="st0" width="4.3" height="14.5"/>
	<path class="st0" d="M182.1,213.4c0,1.2-1,2.2-2.2,2.2s-2.2-1-2.2-2.2c0,0,0,0,0,0H182.1z"/>
	<rect x="183.1" y="199.9" class="st0" width="4.3" height="13.5"/>
	<circle class="st0" cx="182.5" cy="174.2" r="4.2"/>
	<path class="st1" d="M190.6,177"/>
	<path class="st0" d="M175.1,197.4c-0.7,0.3-1.4,0.3-2.1,0c0,0-0.7-14.6,5.8-18c2.6-0.6,5.3-0.6,7.9,0c0,0,5.6,2.2,5.3,17.6
		c-0.7,0.3-1.6,0.3-2.3,0c0,0-0.6-10.9-1.6-12.1s-0.7,15.4-0.7,15.4l-9.6,0.1l-0.5-15.5C177.3,184.9,176.1,184.8,175.1,197.4z"/>
	<path class="st0" d="M186.4,179.5c0,0,5.6,2.2,5.3,17.6c-0.7,0.3-1.6,0.3-2.3,0c0,0-0.6-10.9-1.6-12.1S183.8,178.9,186.4,179.5z"/>
	<path class="st0" d="M187.4,213.4c0,1.2-1,2.2-2.2,2.2s-2.2-1-2.2-2.2c0,0,0,0,0,0H187.4z"/>
</g>
<g class="person">
	<rect x="155.8" y="198.9" class="st0" width="4.3" height="14.5"/>
	<path class="st0" d="M160.1,213.4c0,1.2-1,2.2-2.2,2.2s-2.2-1-2.2-2.2c0,0,0,0,0,0H160.1z"/>
	<rect x="161.1" y="199.9" class="st0" width="4.3" height="13.5"/>
	<circle class="st0" cx="160.5" cy="174.2" r="4.2"/>
	<path class="st1" d="M168.6,177"/>
	<path class="st0" d="M153.1,197.4c-0.7,0.3-1.4,0.3-2.1,0c0,0-0.7-14.6,5.8-18c2.6-0.6,5.3-0.6,7.9,0c0,0,5.6,2.2,5.3,17.6
		c-0.7,0.3-1.6,0.3-2.3,0c0,0-0.6-10.9-1.6-12.1s-0.7,15.4-0.7,15.4l-9.6,0.1l-0.5-15.5C155.3,184.9,154.1,184.8,153.1,197.4z"/>
	<path class="st0" d="M164.4,179.5c0,0,5.6,2.2,5.3,17.6c-0.7,0.3-1.6,0.3-2.3,0c0,0-0.6-10.9-1.6-12.1S161.8,178.9,164.4,179.5z"/>
	<path class="st0" d="M165.4,213.4c0,1.2-1,2.2-2.2,2.2s-2.2-1-2.2-2.2c0,0,0,0,0,0H165.4z"/>
</g>
<g class="person">
	<rect x="133.8" y="198.9" class="st0" width="4.3" height="14.5"/>
	<path class="st0" d="M138.1,213.4c0,1.2-1,2.2-2.2,2.2s-2.2-1-2.2-2.2c0,0,0,0,0,0H138.1z"/>
	<rect x="139.1" y="199.9" class="st0" width="4.3" height="13.5"/>
	<circle class="st0" cx="138.5" cy="174.2" r="4.2"/>
	<path class="st1" d="M146.6,177"/>
	<path class="st0" d="M131.1,197.4c-0.7,0.3-1.4,0.3-2.1,0c0,0-0.7-14.6,5.8-18c2.6-0.6,5.3-0.6,7.9,0c0,0,5.6,2.2,5.3,17.6
		c-0.7,0.3-1.6,0.3-2.3,0c0,0-0.6-10.9-1.6-12.1s-0.7,15.4-0.7,15.4l-9.6,0.1l-0.5-15.5C133.3,184.9,132.1,184.8,131.1,197.4z"/>
	<path class="st0" d="M142.4,179.5c0,0,5.6,2.2,5.3,17.6c-0.7,0.3-1.6,0.3-2.3,0c0,0-0.6-10.9-1.6-12.1S139.8,178.9,142.4,179.5z"/>
	<path class="st0" d="M143.4,213.4c0,1.2-1,2.2-2.2,2.2s-2.2-1-2.2-2.2c0,0,0,0,0,0H143.4z"/>
</g>
<g class="person">
	<rect x="111.8" y="198.9" class="st0" width="4.3" height="14.5"/>
	<path class="st0" d="M116.1,213.4c0,1.2-1,2.2-2.2,2.2c-1.2,0-2.2-1-2.2-2.2H116.1z"/>
	<rect x="117.1" y="199.9" class="st0" width="4.3" height="13.5"/>
	<circle class="st0" cx="116.5" cy="174.2" r="4.2"/>
	<path class="st1" d="M124.6,177"/>
	<path class="st0" d="M109.1,197.4c-0.7,0.3-1.4,0.3-2.1,0c0,0-0.7-14.6,5.8-18c2.6-0.6,5.3-0.6,7.9,0c0,0,5.6,2.2,5.3,17.6
		c-0.7,0.3-1.6,0.3-2.3,0c0,0-0.6-10.9-1.6-12.1s-0.7,15.4-0.7,15.4l-9.6,0.1l-0.5-15.5C111.3,184.9,110.1,184.8,109.1,197.4z"/>
	<path class="st0" d="M120.4,179.5c0,0,5.6,2.2,5.3,17.6c-0.7,0.3-1.6,0.3-2.3,0c0,0-0.6-10.9-1.6-12.1S117.8,178.9,120.4,179.5z"/>
	<path class="st0" d="M121.4,213.4c0,1.2-1,2.2-2.2,2.2c-1.2,0-2.2-1-2.2-2.2H121.4z"/>
</g>
<g class="person">
	<rect x="91.8" y="198.9" class="st0" width="4.3" height="14.5"/>
	<path class="st0" d="M96.1,213.4c0,1.2-1,2.2-2.2,2.2c-1.2,0-2.2-1-2.2-2.2H96.1z"/>
	<rect x="97.1" y="199.9" class="st0" width="4.3" height="13.5"/>
	<circle class="st0" cx="96.5" cy="174.2" r="4.2"/>
	<path class="st1" d="M104.6,177"/>
	<path class="st0" d="M89.1,197.4c-0.7,0.3-1.4,0.3-2.1,0c0,0-0.7-14.6,5.8-18c2.6-0.6,5.3-0.6,7.9,0c0,0,5.6,2.2,5.3,17.6
		c-0.7,0.3-1.6,0.3-2.3,0c0,0-0.6-10.9-1.6-12.1s-0.7,15.4-0.7,15.4l-9.6,0.1l-0.5-15.5C91.3,184.9,90.1,184.8,89.1,197.4z"/>
	<path class="st0" d="M100.4,179.5c0,0,5.6,2.2,5.3,17.6c-0.7,0.3-1.6,0.3-2.3,0c0,0-0.6-10.9-1.6-12.1S97.8,178.9,100.4,179.5z"/>
	<path class="st0" d="M101.4,213.4c0,1.2-1,2.2-2.2,2.2c-1.2,0-2.2-1-2.2-2.2H101.4z"/>
</g>
<g class="person">
	<rect x="69.8" y="198.9" class="st0" width="4.3" height="14.5"/>
	<path class="st0" d="M74.1,213.4c0,1.2-1,2.2-2.2,2.2c-1.2,0-2.2-1-2.2-2.2H74.1z"/>
	<rect x="75.1" y="199.9" class="st0" width="4.3" height="13.5"/>
	<circle class="st0" cx="74.5" cy="174.2" r="4.2"/>
	<path class="st1" d="M82.6,177"/>
	<path class="st0" d="M67.1,197.4c-0.7,0.3-1.4,0.3-2.1,0c0,0-0.7-14.6,5.8-18c2.6-0.6,5.3-0.6,7.9,0c0,0,5.6,2.2,5.3,17.6
		c-0.7,0.3-1.6,0.3-2.3,0c0,0-0.6-10.9-1.6-12.1s-0.7,15.4-0.7,15.4l-9.6,0.1l-0.5-15.5C69.3,184.9,68.1,184.8,67.1,197.4z"/>
	<path class="st0" d="M78.4,179.5c0,0,5.6,2.2,5.3,17.5c-0.7,0.3-1.6,0.3-2.3,0c0,0-0.6-10.9-1.6-12.1S75.8,178.9,78.4,179.5z"/>
	<path class="st0" d="M79.4,213.4c0,1.2-1,2.2-2.2,2.2c-1.2,0-2.2-1-2.2-2.2H79.4z"/>
</g>
<g class="person">
	<rect x="47.8" y="198.9" class="st0" width="4.3" height="14.5"/>
	<path class="st0" d="M52.1,213.4c0,1.2-1,2.2-2.2,2.2c-1.2,0-2.2-1-2.2-2.2c0,0,0,0,0,0H52.1z"/>
	<rect x="53.1" y="199.9" class="st0" width="4.3" height="13.5"/>
	<circle class="st0" cx="52.5" cy="174.2" r="4.2"/>
	<path class="st1" d="M60.6,177"/>
	<path class="st0" d="M45.1,197.4c-0.7,0.3-1.4,0.3-2.1,0c0,0-0.7-14.6,5.8-18c2.6-0.6,5.3-0.6,7.9,0c0,0,5.6,2.2,5.3,17.6
		c-0.7,0.3-1.6,0.3-2.3,0c0,0-0.6-10.9-1.6-12.1s-0.7,15.4-0.7,15.4l-9.6,0.1l-0.5-15.5C47.3,184.9,46.1,184.8,45.1,197.4z"/>
	<path class="st0" d="M56.4,179.5c0,0,5.6,2.2,5.3,17.5c-0.7,0.3-1.6,0.3-2.3,0c0,0-0.6-10.9-1.6-12.1S53.8,178.9,56.4,179.5z"/>
	<path class="st0" d="M57.4,213.4c0,1.2-1,2.2-2.2,2.2c-1.2,0-2.2-1-2.2-2.2c0,0,0,0,0,0H57.4z"/>
</g>
<g class="person">
	<rect x="25.8" y="198.9" class="st0" width="4.3" height="14.5"/>
	<path class="st0" d="M30.1,213.4c-0.1,1.2-1,2.1-2.2,2.2c-1.2-0.1-2.1-1-2.2-2.2H30.1z"/>
	<rect x="31.1" y="199.9" class="st0" width="4.3" height="13.5"/>
	<circle class="st0" cx="30.5" cy="174.2" r="4.2"/>
	<path class="st1" d="M38.6,177"/>
	<path class="st0" d="M23.1,197.4c-0.7,0.3-1.4,0.3-2.1,0c0,0-0.7-14.6,5.8-18c2.6-0.6,5.3-0.6,7.9,0c0,0,5.6,2.2,5.3,17.6
		c-0.7,0.3-1.6,0.3-2.3,0c0,0-0.6-10.9-1.6-12.1s-0.7,15.4-0.7,15.4l-9.6,0.1l-0.5-15.5C25.3,184.9,24.1,184.8,23.1,197.4z"/>
	<path class="st0" d="M34.4,179.5c0,0,5.6,2.2,5.3,17.5c-0.7,0.3-1.6,0.3-2.3,0c0,0-0.6-10.9-1.6-12.1S31.8,178.9,34.4,179.5z"/>
	<path class="st0" d="M35.4,213.4c0,1.2-1,2.2-2.2,2.2c-1.2,0-2.2-1-2.2-2.2c0,0,0,0,0,0H35.4z"/>
</g>
<g class="person">
	<rect x="4.8" y="198.9" class="st0" width="4.3" height="14.5"/>
	<path class="st0" d="M9.1,213.4c-0.1,1.2-1,2.1-2.2,2.2c-1.2-0.1-2.1-1-2.2-2.2H9.1z"/>
	<rect x="10.1" y="199.9" class="st0" width="4.3" height="13.5"/>
	<circle class="st0" cx="9.5" cy="174.2" r="4.2"/>
	<path class="st1" d="M17.6,177"/>
	<path class="st0" d="M2.1,197.4c-0.7,0.3-1.4,0.3-2.1,0c0,0-0.7-14.6,5.8-18c2.6-0.6,5.3-0.6,7.9,0c0,0,5.6,2.2,5.3,17.6
		c-0.7,0.3-1.6,0.3-2.3,0c0,0-0.6-10.9-1.6-12.1s-0.7,15.4-0.7,15.4l-9.6,0.1l-0.5-15.5C4.3,184.9,3.1,184.8,2.1,197.4z"/>
	<path class="st0" d="M13.4,179.5c0,0,5.6,2.2,5.3,17.5c-0.7,0.3-1.6,0.3-2.3,0c0,0-0.6-10.9-1.6-12.1S10.8,178.9,13.4,179.5z"/>
	<path class="st0" d="M14.4,213.4c-0.1,1.2-1,2.1-2.2,2.2c-1.2-0.1-2.1-1-2.2-2.2H14.4z"/>
</g>
<g class="person">
	<rect x="91.8" y="144.9" class="st0" width="4.3" height="14.5"/>
	<path class="st0" d="M96.1,159.4c0,1.2-1,2.2-2.2,2.2c-1.2,0-2.2-1-2.2-2.2H96.1z"/>
	<rect x="97.1" y="145.9" class="st0" width="4.3" height="13.5"/>
	<circle class="st0" cx="96.5" cy="120.2" r="4.2"/>
	<path class="st1" d="M104.6,123"/>
	<path class="st0" d="M89.1,143.4c-0.7,0.3-1.4,0.3-2.1,0c0,0-0.7-14.6,5.8-18c2.6-0.6,5.3-0.6,7.9,0c0,0,5.6,2.2,5.3,17.6
		c-0.7,0.3-1.6,0.3-2.3,0c0,0-0.6-10.9-1.6-12.1s-0.7,15.4-0.7,15.4l-9.6,0.1l-0.5-15.5C91.3,130.9,90.1,130.8,89.1,143.4z"/>
	<path class="st0" d="M100.4,125.5c0,0,5.6,2.2,5.3,17.5c-0.7,0.3-1.6,0.3-2.3,0c0,0-0.6-10.9-1.6-12.1S97.8,124.9,100.4,125.5z"/>
	<path class="st0" d="M101.4,159.4c0,1.2-1,2.2-2.2,2.2c-1.2,0-2.2-1-2.2-2.2H101.4z"/>
</g>


</svg>
