<?xml version="1.0" encoding="utf-8"?>
<!-- Generator: Adobe Illustrator 21.1.0, SVG Export Plug-In . SVG Version: 6.00 Build 0)  -->
<svg version="1.1" id="Layer_1" xmlns="http://www.w3.org/2000/svg" xmlns:xlink="http://www.w3.org/1999/xlink" x="0px" y="0px"
	 viewBox="0 0 430.9 97.2" style="enable-background:new 0 0 430.9 97.2;" xml:space="preserve">
<style type="text/css">
	.st0{fill:#3E3D3D;}
	.st1{fill:#FFFFFF;}
</style>
<title>Asset 6</title>
<g id="Layer_2">
	<g id="hospital">
		<g id="people_copy_12">
			<rect x="415.6" y="28.9" class="st0" width="4.3" height="14.5"/>
			<path class="st0" d="M420,43.4c0,1.2-1,2.2-2.2,2.2s-2.2-1-2.2-2.2c0,0,0,0,0,0H420z"/>
			<rect x="420.9" y="29.9" class="st0" width="4.3" height="13.5"/>
			<circle class="st0" cx="420.3" cy="4.2" r="4.2"/>
			<path class="st1" d="M428.5,7"/>
			<path class="st0" d="M412.9,27.4c-0.7,0.3-1.4,0.3-2.1,0c0,0-0.7-14.6,5.8-18c2.6-0.6,5.3-0.6,7.9,0c0,0,5.6,2.2,5.3,17.6
				c-0.7,0.3-1.6,0.3-2.3,0c0,0-0.6-10.9-1.6-12.1s-0.7,15.4-0.7,15.4l-9.6,0.1l-0.5-15.5C415.1,14.9,413.9,14.8,412.9,27.4z"/>
			<path class="st0" d="M424.2,9.5c0,0,5.6,2.2,5.3,17.5c-0.7,0.3-1.6,0.3-2.3,0c0,0-0.6-10.9-1.6-12.1S421.6,8.9,424.2,9.5z"/>
			<path class="st0" d="M425.3,43.4c0,1.2-1,2.2-2.2,2.2s-2.2-1-2.2-2.2c0,0,0,0,0,0H425.3z"/>
		</g>
		<g id="Layer_21_copy_2">
			<g id="people_copy_13">
				<rect x="220.6" y="28.9" class="st0" width="4.3" height="14.5"/>
				<path class="st0" d="M225,43.4c-0.1,1.2-1,2.1-2.2,2.2c-1.2-0.1-2.1-1-2.2-2.2H225z"/>
				<rect x="225.9" y="29.9" class="st0" width="4.3" height="13.5"/>
				<circle class="st0" cx="225.3" cy="4.2" r="4.2"/>
				<path class="st1" d="M233.5,7"/>
				<path class="st0" d="M217.9,27.4c-0.7,0.3-1.4,0.3-2.1,0c0,0-0.7-14.6,5.8-18c2.6-0.6,5.3-0.6,7.9,0c0,0,5.6,2.1,5.3,17.5
					c-0.7,0.3-1.6,0.3-2.3,0c0,0-0.6-10.9-1.6-12.1s-0.7,15.4-0.7,15.4l-9.6,0.1l-0.5-15.5C220.1,14.8,218.9,14.8,217.9,27.4z"/>
				<path class="st0" d="M229.2,9.5c0,0,5.6,2.2,5.3,17.5c-0.7,0.3-1.6,0.3-2.3,0c0,0-0.6-10.9-1.6-12.1S226.6,8.9,229.2,9.5z"/>
				<path class="st0" d="M230.3,43.4c-0.1,1.2-1,2.1-2.2,2.2c-1.2-0.1-2.1-1-2.2-2.2H230.3z"/>
			</g>
			<g id="people_copy_13-2">
				<rect x="241.6" y="28.9" class="st0" width="4.3" height="14.5"/>
				<path class="st0" d="M246,43.4c-0.1,1.2-1,2.1-2.2,2.2c-1.2-0.1-2.1-1-2.2-2.2H246z"/>
				<rect x="246.9" y="29.9" class="st0" width="4.3" height="13.5"/>
				<circle class="st0" cx="246.3" cy="4.2" r="4.2"/>
				<path class="st1" d="M254.5,7"/>
				<path class="st0" d="M238.9,27.4c-0.7,0.3-1.4,0.3-2.1,0c0,0-0.7-14.6,5.8-18c2.6-0.6,5.3-0.6,7.9,0c0,0,5.6,2.1,5.3,17.5
					c-0.7,0.3-1.6,0.3-2.3,0c0,0-0.6-10.9-1.6-12.1s-0.7,15.4-0.7,15.4l-9.6,0.1l-0.5-15.5C241.1,14.8,239.9,14.8,238.9,27.4z"/>
				<path class="st0" d="M250.2,9.5c0,0,5.6,2.2,5.3,17.5c-0.7,0.3-1.6,0.3-2.3,0c0,0-0.6-10.9-1.6-12.1S247.6,8.9,250.2,9.5z"/>
				<path class="st0" d="M251.3,43.4c0,1.2-1,2.2-2.2,2.2s-2.2-1-2.2-2.2c0,0,0,0,0,0H251.3z"/>
			</g>
			<g id="people_copy_13-3">
				<rect x="263.6" y="28.9" class="st0" width="4.3" height="14.5"/>
				<path class="st0" d="M268,43.4c0,1.2-1,2.2-2.2,2.2s-2.2-1-2.2-2.2c0,0,0,0,0,0H268z"/>
				<rect x="268.9" y="29.9" class="st0" width="4.3" height="13.5"/>
				<circle class="st0" cx="268.3" cy="4.2" r="4.2"/>
				<path class="st1" d="M276.5,7"/>
				<path class="st0" d="M260.9,27.4c-0.7,0.3-1.4,0.3-2.1,0c0,0-0.7-14.6,5.8-18c2.6-0.6,5.3-0.6,7.9,0c0,0,5.6,2.1,5.3,17.5
					c-0.7,0.3-1.6,0.3-2.3,0c0,0-0.6-10.9-1.6-12.1c-1-1.2-0.7,15.4-0.7,15.4l-9.6,0.1l-0.5-15.5C263.1,14.8,261.9,14.8,260.9,27.4z
					"/>
				<path class="st0" d="M272.2,9.5c0,0,5.6,2.2,5.3,17.5c-0.7,0.3-1.6,0.3-2.3,0c0,0-0.6-10.9-1.6-12.1S269.6,8.9,272.2,9.5z"/>
				<path class="st0" d="M273.3,43.4c0,1.2-1,2.2-2.2,2.2c-1.2,0-2.2-1-2.2-2.2c0,0,0,0,0,0H273.3z"/>
			</g>
			<g id="people_copy_13-4">
				<rect x="285.6" y="28.9" class="st0" width="4.3" height="14.5"/>
				<path class="st0" d="M290,43.4c0,1.2-1,2.2-2.2,2.2s-2.2-1-2.2-2.2H290z"/>
				<rect x="290.9" y="29.9" class="st0" width="4.3" height="13.5"/>
				<circle class="st0" cx="290.3" cy="4.2" r="4.2"/>
				<path class="st1" d="M298.5,7"/>
				<path class="st0" d="M282.9,27.4c-0.7,0.3-1.4,0.3-2.1,0c0,0-0.7-14.6,5.8-18c2.6-0.6,5.3-0.6,7.9,0c0,0,5.6,2.1,5.3,17.5
					c-0.7,0.3-1.6,0.3-2.3,0c0,0-0.6-10.9-1.6-12.1c-1-1.2-0.7,15.4-0.7,15.4l-9.6,0.1l-0.5-15.5C285.1,14.8,283.9,14.8,282.9,27.4z
					"/>
				<path class="st0" d="M294.2,9.5c0,0,5.6,2.2,5.3,17.5c-0.7,0.3-1.6,0.3-2.3,0c0,0-0.6-10.9-1.6-12.1S291.6,8.9,294.2,9.5z"/>
				<path class="st0" d="M295.3,43.4c0,1.2-1,2.2-2.2,2.2s-2.2-1-2.2-2.2H295.3z"/>
			</g>
			<g id="people_copy_13-5">
				<rect x="307.6" y="28.9" class="st0" width="4.3" height="14.5"/>
				<path class="st0" d="M312,43.4c0,1.2-1,2.2-2.2,2.2s-2.2-1-2.2-2.2H312z"/>
				<rect x="312.9" y="29.9" class="st0" width="4.3" height="13.5"/>
				<circle class="st0" cx="312.3" cy="4.2" r="4.2"/>
				<path class="st1" d="M320.5,7"/>
				<path class="st0" d="M304.9,27.4c-0.7,0.3-1.4,0.3-2.1,0c0,0-0.7-14.6,5.8-18c2.6-0.6,5.3-0.6,7.9,0c0,0,5.6,2.2,5.3,17.6
					c-0.7,0.3-1.6,0.3-2.3,0c0,0-0.6-10.9-1.6-12.1s-0.7,15.4-0.7,15.4l-9.6,0.1l-0.5-15.5C307.1,14.9,305.9,14.8,304.9,27.4z"/>
				<path class="st0" d="M316.2,9.5c0,0,5.6,2.2,5.3,17.5c-0.7,0.3-1.6,0.3-2.3,0c0,0-0.6-10.9-1.6-12.1S313.6,8.9,316.2,9.5z"/>
				<path class="st0" d="M317.3,43.4c0,1.2-1,2.2-2.2,2.2s-2.2-1-2.2-2.2H317.3z"/>
			</g>
			<g id="people_copy_13-6">
				<rect x="327.6" y="28.9" class="st0" width="4.3" height="14.5"/>
				<path class="st0" d="M332,43.4c0,1.2-1,2.2-2.2,2.2s-2.2-1-2.2-2.2H332z"/>
				<rect x="332.9" y="29.9" class="st0" width="4.3" height="13.5"/>
				<circle class="st0" cx="332.3" cy="4.2" r="4.2"/>
				<path class="st1" d="M340.5,7"/>
				<path class="st0" d="M324.9,27.4c-0.7,0.3-1.4,0.3-2.1,0c0,0-0.7-14.6,5.8-18c2.6-0.6,5.3-0.6,7.9,0c0,0,5.6,2.2,5.3,17.6
					c-0.7,0.3-1.6,0.3-2.3,0c0,0-0.6-10.9-1.6-12.1s-0.7,15.4-0.7,15.4l-9.6,0.1l-0.5-15.5C327.1,14.9,325.9,14.8,324.9,27.4z"/>
				<path class="st0" d="M336.2,9.5c0,0,5.6,2.2,5.3,17.5c-0.7,0.3-1.6,0.3-2.3,0c0,0-0.6-10.9-1.6-12.1S333.6,8.9,336.2,9.5z"/>
				<path class="st0" d="M337.3,43.4c0,1.2-1,2.2-2.2,2.2s-2.2-1-2.2-2.2H337.3z"/>
			</g>
			<g id="people_copy_13-7">
				<rect x="349.6" y="28.9" class="st0" width="4.3" height="14.5"/>
				<path class="st0" d="M354,43.4c0,1.2-1,2.2-2.2,2.2s-2.2-1-2.2-2.2c0,0,0,0,0,0H354z"/>
				<rect x="354.9" y="29.9" class="st0" width="4.3" height="13.5"/>
				<circle class="st0" cx="354.3" cy="4.2" r="4.2"/>
				<path class="st1" d="M362.5,7"/>
				<path class="st0" d="M346.9,27.4c-0.7,0.3-1.4,0.3-2.1,0c0,0-0.7-14.6,5.8-18c2.6-0.6,5.3-0.6,7.9,0c0,0,5.6,2.2,5.3,17.6
					c-0.7,0.3-1.6,0.3-2.3,0c0,0-0.6-10.9-1.6-12.1s-0.7,15.4-0.7,15.4l-9.6,0.1l-0.5-15.5C349.1,14.9,347.9,14.8,346.9,27.4z"/>
				<path class="st0" d="M358.2,9.5c0,0,5.6,2.2,5.3,17.5c-0.7,0.3-1.6,0.3-2.3,0c0,0-0.6-10.9-1.6-12.1S355.6,8.9,358.2,9.5z"/>
				<path class="st0" d="M359.3,43.4c0,1.2-1,2.2-2.2,2.2s-2.2-1-2.2-2.2c0,0,0,0,0,0H359.3z"/>
			</g>
			<g id="people_copy_13-8">
				<rect x="371.6" y="28.9" class="st0" width="4.3" height="14.5"/>
				<path class="st0" d="M376,43.4c0,1.2-1,2.2-2.2,2.2s-2.2-1-2.2-2.2c0,0,0,0,0,0H376z"/>
				<rect x="376.9" y="29.9" class="st0" width="4.3" height="13.5"/>
				<circle class="st0" cx="376.3" cy="4.2" r="4.2"/>
				<path class="st1" d="M384.5,7"/>
				<path class="st0" d="M368.9,27.4c-0.7,0.3-1.4,0.3-2.1,0c0,0-0.7-14.6,5.8-18c2.6-0.6,5.3-0.6,7.9,0c0,0,5.6,2.2,5.3,17.6
					c-0.7,0.3-1.6,0.3-2.3,0c0,0-0.6-10.9-1.6-12.1s-0.7,15.4-0.7,15.4l-9.6,0.1l-0.5-15.5C371.1,14.9,369.9,14.8,368.9,27.4z"/>
				<path class="st0" d="M380.2,9.5c0,0,5.6,2.2,5.3,17.5c-0.7,0.3-1.6,0.3-2.3,0c0,0-0.6-10.9-1.6-12.1S377.6,8.9,380.2,9.5z"/>
				<path class="st0" d="M381.3,43.4c0,1.2-1,2.2-2.2,2.2s-2.2-1-2.2-2.2c0,0,0,0,0,0H381.3z"/>
			</g>
			<g id="people_copy_13-9">
				<rect x="393.6" y="28.9" class="st0" width="4.3" height="14.5"/>
				<path class="st0" d="M398,43.4c0,1.2-1,2.2-2.2,2.2s-2.2-1-2.2-2.2c0,0,0,0,0,0H398z"/>
				<rect x="398.9" y="29.9" class="st0" width="4.3" height="13.5"/>
				<circle class="st0" cx="398.3" cy="4.2" r="4.2"/>
				<path class="st1" d="M406.5,7"/>
				<path class="st0" d="M390.9,27.4c-0.7,0.3-1.4,0.3-2.1,0c0,0-0.7-14.6,5.8-18c2.6-0.6,5.3-0.6,7.9,0c0,0,5.6,2.2,5.3,17.6
					c-0.7,0.3-1.6,0.3-2.3,0c0,0-0.6-10.9-1.6-12.1s-0.7,15.4-0.7,15.4l-9.6,0.1l-0.5-15.5C393.1,14.9,391.9,14.8,390.9,27.4z"/>
				<path class="st0" d="M402.2,9.5c0,0,5.6,2.2,5.3,17.5c-0.7,0.3-1.6,0.3-2.3,0c0,0-0.6-10.9-1.6-12.1S399.6,8.9,402.2,9.5z"/>
				<path class="st0" d="M403.3,43.4c0,1.2-1,2.2-2.2,2.2s-2.2-1-2.2-2.2c0,0,0,0,0,0H403.3z"/>
			</g>
			<g id="people_copy_13-10">
				<rect x="415.6" y="28.9" class="st0" width="4.3" height="14.5"/>
				<path class="st0" d="M420,43.4c0,1.2-1,2.2-2.2,2.2s-2.2-1-2.2-2.2c0,0,0,0,0,0H420z"/>
				<rect x="420.9" y="29.9" class="st0" width="4.3" height="13.5"/>
				<circle class="st0" cx="420.3" cy="4.2" r="4.2"/>
				<path class="st1" d="M428.5,7"/>
				<path class="st0" d="M412.9,27.4c-0.7,0.3-1.4,0.3-2.1,0c0,0-0.7-14.6,5.8-18c2.6-0.6,5.3-0.6,7.9,0c0,0,5.6,2.2,5.3,17.6
					c-0.7,0.3-1.6,0.3-2.3,0c0,0-0.6-10.9-1.6-12.1s-0.7,15.4-0.7,15.4l-9.6,0.1l-0.5-15.5C415.1,14.9,413.9,14.8,412.9,27.4z"/>
				<path class="st0" d="M424.2,9.5c0,0,5.6,2.2,5.3,17.5c-0.7,0.3-1.6,0.3-2.3,0c0,0-0.6-10.9-1.6-12.1S421.6,8.9,424.2,9.5z"/>
				<path class="st0" d="M425.3,43.4c0,1.2-1,2.2-2.2,2.2s-2.2-1-2.2-2.2c0,0,0,0,0,0H425.3z"/>
			</g>
		</g>
		<g id="people_copy_14">
			<rect x="199.8" y="28.9" class="st0" width="4.3" height="14.5"/>
			<path class="st0" d="M204.1,43.4c0,1.2-1,2.2-2.2,2.2c-1.2,0-2.2-1-2.2-2.2c0,0,0,0,0,0H204.1z"/>
			<rect x="205.1" y="29.9" class="st0" width="4.3" height="13.5"/>
			<circle class="st0" cx="204.5" cy="4.2" r="4.2"/>
			<path class="st1" d="M212.6,7"/>
			<path class="st0" d="M197.1,27.4c-0.7,0.3-1.4,0.3-2.1,0c0,0-0.7-14.6,5.8-18c2.6-0.6,5.3-0.6,7.9,0c0,0,5.6,2.2,5.3,17.5
				c-0.7,0.3-1.6,0.3-2.3,0c0,0-0.6-10.9-1.6-12.1s-0.7,15.4-0.7,15.4l-9.6,0.1l-0.5-15.5C199.3,14.9,198.1,14.8,197.1,27.4z"/>
			<path class="st0" d="M208.4,9.5c0,0,5.6,2.2,5.3,17.5c-0.7,0.3-1.6,0.3-2.3,0c0,0-0.6-10.9-1.6-12.1S205.8,8.9,208.4,9.5z"/>
			<path class="st0" d="M209.4,43.4c0,1.2-1,2.2-2.2,2.2c-1.2,0-2.2-1-2.2-2.2c0,0,0,0,0,0H209.4z"/>
		</g>
		<g id="Layer_21_copy_3">
			<g id="people_copy_15">
				<rect x="4.8" y="28.9" class="st0" width="4.3" height="14.5"/>
				<path class="st0" d="M9.1,43.4c-0.1,1.2-1,2.1-2.2,2.2c-1.2-0.1-2.1-1-2.2-2.2H9.1z"/>
				<rect x="10.1" y="29.9" class="st0" width="4.3" height="13.5"/>
				<circle class="st0" cx="9.5" cy="4.2" r="4.2"/>
				<path class="st1" d="M17.6,7"/>
				<path class="st0" d="M2.1,27.4c-0.7,0.3-1.4,0.3-2.1,0c0,0-0.7-14.6,5.8-18c2.6-0.6,5.3-0.6,7.9,0c0,0,5.6,2.1,5.3,17.5
					c-0.7,0.3-1.6,0.3-2.3,0c0,0-0.6-10.9-1.6-12.1s-0.7,15.4-0.7,15.4l-9.6,0.1L4.3,14.8C4.3,14.8,3.1,14.8,2.1,27.4z"/>
				<path class="st0" d="M13.4,9.5c0,0,5.6,2.2,5.3,17.5c-0.7,0.3-1.6,0.3-2.3,0c0,0-0.6-10.9-1.6-12.1S10.8,8.9,13.4,9.5z"/>
				<path class="st0" d="M14.4,43.4c-0.1,1.2-1,2.1-2.2,2.2c-1.2-0.1-2.1-1-2.2-2.2H14.4z"/>
			</g>
			<g id="people_copy_15-2">
				<rect x="25.8" y="28.9" class="st0" width="4.3" height="14.5"/>
				<path class="st0" d="M30.1,43.4c-0.1,1.2-1,2.1-2.2,2.2c-1.2-0.1-2.1-1-2.2-2.2H30.1z"/>
				<rect x="31.1" y="29.9" class="st0" width="4.3" height="13.5"/>
				<circle class="st0" cx="30.5" cy="4.2" r="4.2"/>
				<path class="st1" d="M38.6,7"/>
				<path class="st0" d="M23.1,27.4c-0.7,0.3-1.4,0.3-2.1,0c0,0-0.7-14.6,5.8-18c2.6-0.6,5.3-0.6,7.9,0c0,0,5.6,2.1,5.3,17.5
					c-0.7,0.3-1.6,0.3-2.3,0c0,0-0.6-10.9-1.6-12.1s-0.7,15.4-0.7,15.4l-9.6,0.1l-0.5-15.5C25.3,14.8,24.1,14.8,23.1,27.4z"/>
				<path class="st0" d="M34.4,9.5c0,0,5.6,2.2,5.3,17.5c-0.7,0.3-1.6,0.3-2.3,0c0,0-0.6-10.9-1.6-12.1S31.8,8.9,34.4,9.5z"/>
				<path class="st0" d="M35.4,43.4c0,1.2-1,2.2-2.2,2.2c-1.2,0-2.2-1-2.2-2.2c0,0,0,0,0,0H35.4z"/>
			</g>
			<g id="people_copy_15-3">
				<rect x="47.8" y="28.9" class="st0" width="4.3" height="14.5"/>
				<path class="st0" d="M52.1,43.4c0,1.2-1,2.2-2.2,2.2c-1.2,0-2.2-1-2.2-2.2c0,0,0,0,0,0H52.1z"/>
				<rect x="53.1" y="29.9" class="st0" width="4.3" height="13.5"/>
				<circle class="st0" cx="52.5" cy="4.2" r="4.2"/>
				<path class="st1" d="M60.6,7"/>
				<path class="st0" d="M45.1,27.4c-0.7,0.3-1.4,0.3-2.1,0c0,0-0.7-14.6,5.8-18c2.6-0.6,5.3-0.6,7.9,0c0,0,5.6,2.1,5.3,17.5
					c-0.7,0.3-1.6,0.3-2.3,0c0,0-0.6-10.9-1.6-12.1s-0.7,15.4-0.7,15.4l-9.6,0.1l-0.5-15.5C47.3,14.8,46.1,14.8,45.1,27.4z"/>
				<path class="st0" d="M56.4,9.5c0,0,5.6,2.2,5.3,17.5c-0.7,0.3-1.6,0.3-2.3,0c0,0-0.6-10.9-1.6-12.1S53.8,8.9,56.4,9.5z"/>
				<path class="st0" d="M57.4,43.4c0,1.2-1,2.2-2.2,2.2c-1.2,0-2.2-1-2.2-2.2c0,0,0,0,0,0H57.4z"/>
			</g>
			<g id="people_copy_15-4">
				<rect x="69.8" y="28.9" class="st0" width="4.3" height="14.5"/>
				<path class="st0" d="M74.1,43.4c0,1.2-1,2.2-2.2,2.2c-1.2,0-2.2-1-2.2-2.2H74.1z"/>
				<rect x="75.1" y="29.9" class="st0" width="4.3" height="13.5"/>
				<circle class="st0" cx="74.5" cy="4.2" r="4.2"/>
				<path class="st1" d="M82.6,7"/>
				<path class="st0" d="M67.1,27.4c-0.7,0.3-1.4,0.3-2.1,0c0,0-0.7-14.6,5.8-18c2.6-0.6,5.3-0.6,7.9,0c0,0,5.6,2.1,5.3,17.5
					c-0.7,0.3-1.6,0.3-2.3,0c0,0-0.6-10.9-1.6-12.1s-0.7,15.4-0.7,15.4l-9.6,0.1l-0.5-15.5C69.3,14.8,68.1,14.8,67.1,27.4z"/>
				<path class="st0" d="M78.4,9.5c0,0,5.6,2.2,5.3,17.5c-0.7,0.3-1.6,0.3-2.3,0c0,0-0.6-10.9-1.6-12.1S75.8,8.9,78.4,9.5z"/>
				<path class="st0" d="M79.4,43.4c0,1.2-1,2.2-2.2,2.2c-1.2,0-2.2-1-2.2-2.2H79.4z"/>
			</g>
			<g id="people_copy_15-5">
				<rect x="91.8" y="28.9" class="st0" width="4.3" height="14.5"/>
				<path class="st0" d="M96.1,43.4c0,1.2-1,2.2-2.2,2.2c-1.2,0-2.2-1-2.2-2.2H96.1z"/>
				<rect x="97.1" y="29.9" class="st0" width="4.3" height="13.5"/>
				<circle class="st0" cx="96.5" cy="4.2" r="4.2"/>
				<path class="st1" d="M104.6,7"/>
				<path class="st0" d="M89.1,27.4c-0.7,0.3-1.4,0.3-2.1,0c0,0-0.7-14.6,5.8-18c2.6-0.6,5.3-0.6,7.9,0c0,0,5.6,2.2,5.3,17.5
					c-0.7,0.3-1.6,0.3-2.3,0c0,0-0.6-10.9-1.6-12.1s-0.7,15.4-0.7,15.4l-9.6,0.1l-0.5-15.5C91.3,14.9,90.1,14.8,89.1,27.4z"/>
				<path class="st0" d="M100.4,9.5c0,0,5.6,2.2,5.3,17.5c-0.7,0.3-1.6,0.3-2.3,0c0,0-0.6-10.9-1.6-12.1S97.8,8.9,100.4,9.5z"/>
				<path class="st0" d="M101.4,43.4c0,1.2-1,2.2-2.2,2.2c-1.2,0-2.2-1-2.2-2.2H101.4z"/>
			</g>
			<g id="people_copy_15-6">
				<rect x="111.8" y="28.9" class="st0" width="4.3" height="14.5"/>
				<path class="st0" d="M116.1,43.4c0,1.2-1,2.2-2.2,2.2c-1.2,0-2.2-1-2.2-2.2H116.1z"/>
				<rect x="117.1" y="29.9" class="st0" width="4.3" height="13.5"/>
				<circle class="st0" cx="116.5" cy="4.2" r="4.2"/>
				<path class="st1" d="M124.6,7"/>
				<path class="st0" d="M109.1,27.4c-0.7,0.3-1.4,0.3-2.1,0c0,0-0.7-14.6,5.8-18c2.6-0.6,5.3-0.6,7.9,0c0,0,5.6,2.2,5.3,17.5
					c-0.7,0.3-1.6,0.3-2.3,0c0,0-0.6-10.9-1.6-12.1s-0.7,15.4-0.7,15.4l-9.6,0.1l-0.5-15.5C111.3,14.9,110.1,14.8,109.1,27.4z"/>
				<path class="st0" d="M120.4,9.5c0,0,5.6,2.2,5.3,17.5c-0.7,0.3-1.6,0.3-2.3,0c0,0-0.6-10.9-1.6-12.1S117.8,8.9,120.4,9.5z"/>
				<path class="st0" d="M121.4,43.4c0,1.2-1,2.2-2.2,2.2c-1.2,0-2.2-1-2.2-2.2H121.4z"/>
			</g>
			<g id="people_copy_15-7">
				<rect x="133.8" y="28.9" class="st0" width="4.3" height="14.5"/>
				<path class="st0" d="M138.1,43.4c0,1.2-1,2.2-2.2,2.2c-1.2,0-2.2-1-2.2-2.2c0,0,0,0,0,0H138.1z"/>
				<rect x="139.1" y="29.9" class="st0" width="4.3" height="13.5"/>
				<circle class="st0" cx="138.5" cy="4.2" r="4.2"/>
				<path class="st1" d="M146.6,7"/>
				<path class="st0" d="M131.1,27.4c-0.7,0.3-1.4,0.3-2.1,0c0,0-0.7-14.6,5.8-18c2.6-0.6,5.3-0.6,7.9,0c0,0,5.6,2.2,5.3,17.5
					c-0.7,0.3-1.6,0.3-2.3,0c0,0-0.6-10.9-1.6-12.1s-0.7,15.4-0.7,15.4l-9.6,0.1l-0.5-15.5C133.3,14.9,132.1,14.8,131.1,27.4z"/>
				<path class="st0" d="M142.4,9.5c0,0,5.6,2.2,5.3,17.5c-0.7,0.3-1.6,0.3-2.3,0c0,0-0.6-10.9-1.6-12.1S139.8,8.9,142.4,9.5z"/>
				<path class="st0" d="M143.4,43.4c0,1.2-1,2.2-2.2,2.2c-1.2,0-2.2-1-2.2-2.2c0,0,0,0,0,0H143.4z"/>
			</g>
			<g id="people_copy_15-8">
				<rect x="155.8" y="28.9" class="st0" width="4.3" height="14.5"/>
				<path class="st0" d="M160.1,43.4c0,1.2-1,2.2-2.2,2.2c-1.2,0-2.2-1-2.2-2.2c0,0,0,0,0,0H160.1z"/>
				<rect x="161.1" y="29.9" class="st0" width="4.3" height="13.5"/>
				<circle class="st0" cx="160.5" cy="4.2" r="4.2"/>
				<path class="st1" d="M168.6,7"/>
				<path class="st0" d="M153.1,27.4c-0.7,0.3-1.4,0.3-2.1,0c0,0-0.7-14.6,5.8-18c2.6-0.6,5.3-0.6,7.9,0c0,0,5.6,2.2,5.3,17.5
					c-0.7,0.3-1.6,0.3-2.3,0c0,0-0.6-10.9-1.6-12.1s-0.7,15.4-0.7,15.4l-9.6,0.1l-0.5-15.5C155.3,14.9,154.1,14.8,153.1,27.4z"/>
				<path class="st0" d="M164.4,9.5c0,0,5.6,2.2,5.3,17.5c-0.7,0.3-1.6,0.3-2.3,0c0,0-0.6-10.9-1.6-12.1S161.8,8.9,164.4,9.5z"/>
				<path class="st0" d="M165.4,43.4c0,1.2-1,2.2-2.2,2.2c-1.2,0-2.2-1-2.2-2.2c0,0,0,0,0,0H165.4z"/>
			</g>
			<g id="people_copy_15-9">
				<rect x="177.8" y="28.9" class="st0" width="4.3" height="14.5"/>
				<path class="st0" d="M182.1,43.4c0,1.2-1,2.2-2.2,2.2c-1.2,0-2.2-1-2.2-2.2c0,0,0,0,0,0H182.1z"/>
				<rect x="183.1" y="29.9" class="st0" width="4.3" height="13.5"/>
				<circle class="st0" cx="182.5" cy="4.2" r="4.2"/>
				<path class="st1" d="M190.6,7"/>
				<path class="st0" d="M175.1,27.4c-0.7,0.3-1.4,0.3-2.1,0c0,0-0.7-14.6,5.8-18c2.6-0.6,5.3-0.6,7.9,0c0,0,5.6,2.2,5.3,17.5
					c-0.7,0.3-1.6,0.3-2.3,0c0,0-0.6-10.9-1.6-12.1s-0.7,15.4-0.7,15.4l-9.6,0.1l-0.5-15.5C177.3,14.9,176.1,14.8,175.1,27.4z"/>
				<path class="st0" d="M186.4,9.5c0,0,5.6,2.2,5.3,17.5c-0.7,0.3-1.6,0.3-2.3,0c0,0-0.6-10.9-1.6-12.1S183.8,8.9,186.4,9.5z"/>
				<path class="st0" d="M187.4,43.4c0,1.2-1,2.2-2.2,2.2c-1.2,0-2.2-1-2.2-2.2c0,0,0,0,0,0H187.4z"/>
			</g>
			<g id="people_copy_15-10">
				<rect x="199.8" y="28.9" class="st0" width="4.3" height="14.5"/>
				<path class="st0" d="M204.1,43.4c0,1.2-1,2.2-2.2,2.2c-1.2,0-2.2-1-2.2-2.2c0,0,0,0,0,0H204.1z"/>
				<rect x="205.1" y="29.9" class="st0" width="4.3" height="13.5"/>
				<circle class="st0" cx="204.5" cy="4.2" r="4.2"/>
				<path class="st1" d="M212.6,7"/>
				<path class="st0" d="M197.1,27.4c-0.7,0.3-1.4,0.3-2.1,0c0,0-0.7-14.6,5.8-18c2.6-0.6,5.3-0.6,7.9,0c0,0,5.6,2.2,5.3,17.5
					c-0.7,0.3-1.6,0.3-2.3,0c0,0-0.6-10.9-1.6-12.1s-0.7,15.4-0.7,15.4l-9.6,0.1l-0.5-15.5C199.3,14.9,198.1,14.8,197.1,27.4z"/>
				<path class="st0" d="M208.4,9.5c0,0,5.6,2.2,5.3,17.5c-0.7,0.3-1.6,0.3-2.3,0c0,0-0.6-10.9-1.6-12.1S205.8,8.9,208.4,9.5z"/>
				<path class="st0" d="M209.4,43.4c0,1.2-1,2.2-2.2,2.2c-1.2,0-2.2-1-2.2-2.2c0,0,0,0,0,0H209.4z"/>
			</g>
		</g>
		<g id="people_copy_12_1_">
			<rect x="416.7" y="80.5" class="st0" width="4.3" height="14.5"/>
			<path class="st0" d="M421,95c0,1.2-1,2.2-2.2,2.2s-2.2-1-2.2-2.2c0,0,0,0,0,0H421z"/>
			<rect x="422" y="81.5" class="st0" width="4.3" height="13.5"/>
			<circle class="st0" cx="421.4" cy="55.8" r="4.2"/>
			<path class="st1" d="M429.5,58.6"/>
			<path class="st0" d="M414,79c-0.7,0.3-1.4,0.3-2.1,0c0,0-0.7-14.6,5.8-18c2.6-0.6,5.3-0.6,7.9,0c0,0,5.6,2.2,5.3,17.6
				c-0.7,0.3-1.6,0.3-2.3,0c0,0-0.6-10.9-1.6-12.1s-0.7,15.4-0.7,15.4l-9.6,0.1l-0.5-15.5C416.2,66.5,415,66.5,414,79z"/>
			<path class="st0" d="M425.3,61.1c0,0,5.6,2.2,5.3,17.5c-0.7,0.3-1.6,0.3-2.3,0c0,0-0.6-10.9-1.6-12.1S422.7,60.6,425.3,61.1z"/>
			<path class="st0" d="M426.3,95c0,1.2-1,2.2-2.2,2.2s-2.2-1-2.2-2.2c0,0,0,0,0,0H426.3z"/>
		</g>
		<g id="Layer_21_copy_2_1_">
			<g id="people_copy_13_1_">
				<rect x="221.7" y="80.5" class="st0" width="4.3" height="14.5"/>
				<path class="st0" d="M226,95c-0.1,1.2-1,2.1-2.2,2.2c-1.2-0.1-2.1-1-2.2-2.2H226z"/>
				<rect x="227" y="81.5" class="st0" width="4.3" height="13.5"/>
				<circle class="st0" cx="226.4" cy="55.8" r="4.2"/>
				<path class="st1" d="M234.5,58.6"/>
				<path class="st0" d="M219,79c-0.7,0.3-1.4,0.3-2.1,0c0,0-0.7-14.6,5.8-18c2.6-0.6,5.3-0.6,7.9,0c0,0,5.6,2.1,5.3,17.5
					c-0.7,0.3-1.6,0.3-2.3,0c0,0-0.6-10.9-1.6-12.1s-0.7,15.4-0.7,15.4l-9.6,0.1l-0.5-15.5C221.2,66.5,220,66.5,219,79z"/>
				<path class="st0" d="M230.3,61.1c0,0,5.6,2.2,5.3,17.5c-0.7,0.3-1.6,0.3-2.3,0c0,0-0.6-10.9-1.6-12.1S227.7,60.6,230.3,61.1z"/>
				<path class="st0" d="M231.3,95c-0.1,1.2-1,2.1-2.2,2.2c-1.2-0.1-2.1-1-2.2-2.2H231.3z"/>
			</g>
			<g id="people_copy_13-2_1_">
				<rect x="242.7" y="80.5" class="st0" width="4.3" height="14.5"/>
				<path class="st0" d="M247,95c-0.1,1.2-1,2.1-2.2,2.2c-1.2-0.1-2.1-1-2.2-2.2H247z"/>
				<rect x="248" y="81.5" class="st0" width="4.3" height="13.5"/>
				<circle class="st0" cx="247.4" cy="55.8" r="4.2"/>
				<path class="st1" d="M255.5,58.6"/>
				<path class="st0" d="M240,79c-0.7,0.3-1.4,0.3-2.1,0c0,0-0.7-14.6,5.8-18c2.6-0.6,5.3-0.6,7.9,0c0,0,5.6,2.1,5.3,17.5
					c-0.7,0.3-1.6,0.3-2.3,0c0,0-0.6-10.9-1.6-12.1s-0.7,15.4-0.7,15.4l-9.6,0.1l-0.5-15.5C242.2,66.5,241,66.5,240,79z"/>
				<path class="st0" d="M251.3,61.1c0,0,5.6,2.2,5.3,17.5c-0.7,0.3-1.6,0.3-2.3,0c0,0-0.6-10.9-1.6-12.1S248.7,60.6,251.3,61.1z"/>
				<path class="st0" d="M252.3,95c0,1.2-1,2.2-2.2,2.2s-2.2-1-2.2-2.2c0,0,0,0,0,0H252.3z"/>
			</g>
			<g id="people_copy_13-3_1_">
				<rect x="264.7" y="80.5" class="st0" width="4.3" height="14.5"/>
				<path class="st0" d="M269,95c0,1.2-1,2.2-2.2,2.2s-2.2-1-2.2-2.2c0,0,0,0,0,0H269z"/>
				<rect x="270" y="81.5" class="st0" width="4.3" height="13.5"/>
				<circle class="st0" cx="269.4" cy="55.8" r="4.2"/>
				<path class="st1" d="M277.5,58.6"/>
				<path class="st0" d="M262,79c-0.7,0.3-1.4,0.3-2.1,0c0,0-0.7-14.6,5.8-18c2.6-0.6,5.3-0.6,7.9,0c0,0,5.6,2.1,5.3,17.5
					c-0.7,0.3-1.6,0.3-2.3,0c0,0-0.6-10.9-1.6-12.1s-0.7,15.4-0.7,15.4l-9.6,0.1l-0.5-15.5C264.2,66.5,263,66.5,262,79z"/>
				<path class="st0" d="M273.3,61.1c0,0,5.6,2.2,5.3,17.5c-0.7,0.3-1.6,0.3-2.3,0c0,0-0.6-10.9-1.6-12.1S270.7,60.6,273.3,61.1z"/>
				<path class="st0" d="M274.3,95c0,1.2-1,2.2-2.2,2.2s-2.2-1-2.2-2.2c0,0,0,0,0,0H274.3z"/>
			</g>
			<g id="people_copy_13-4_1_">
				<rect x="286.7" y="80.5" class="st0" width="4.3" height="14.5"/>
				<path class="st0" d="M291,95c0,1.2-1,2.2-2.2,2.2c-1.2,0-2.2-1-2.2-2.2H291z"/>
				<rect x="292" y="81.5" class="st0" width="4.3" height="13.5"/>
				<circle class="st0" cx="291.4" cy="55.8" r="4.2"/>
				<path class="st1" d="M299.5,58.6"/>
				<path class="st0" d="M284,79c-0.7,0.3-1.4,0.3-2.1,0c0,0-0.7-14.6,5.8-18c2.6-0.6,5.3-0.6,7.9,0c0,0,5.6,2.1,5.3,17.5
					c-0.7,0.3-1.6,0.3-2.3,0c0,0-0.6-10.9-1.6-12.1c-1-1.2-0.7,15.4-0.7,15.4l-9.6,0.1l-0.5-15.5C286.2,66.5,285,66.5,284,79z"/>
				<path class="st0" d="M295.3,61.1c0,0,5.6,2.2,5.3,17.5c-0.7,0.3-1.6,0.3-2.3,0c0,0-0.6-10.9-1.6-12.1S292.7,60.6,295.3,61.1z"/>
				<path class="st0" d="M296.3,95c0,1.2-1,2.2-2.2,2.2c-1.2,0-2.2-1-2.2-2.2H296.3z"/>
			</g>
			<g id="people_copy_13-5_1_">
				<rect x="308.7" y="80.5" class="st0" width="4.3" height="14.5"/>
				<path class="st0" d="M313,95c0,1.2-1,2.2-2.2,2.2c-1.2,0-2.2-1-2.2-2.2H313z"/>
				<rect x="314" y="81.5" class="st0" width="4.3" height="13.5"/>
				<circle class="st0" cx="313.4" cy="55.8" r="4.2"/>
				<path class="st1" d="M321.5,58.6"/>
				<path class="st0" d="M306,79c-0.7,0.3-1.4,0.3-2.1,0c0,0-0.7-14.6,5.8-18c2.6-0.6,5.3-0.6,7.9,0c0,0,5.6,2.2,5.3,17.6
					c-0.7,0.3-1.6,0.3-2.3,0c0,0-0.6-10.9-1.6-12.1s-0.7,15.4-0.7,15.4l-9.6,0.1l-0.5-15.5C308.2,66.5,307,66.5,306,79z"/>
				<path class="st0" d="M317.3,61.1c0,0,5.6,2.2,5.3,17.5c-0.7,0.3-1.6,0.3-2.3,0c0,0-0.6-10.9-1.6-12.1S314.7,60.6,317.3,61.1z"/>
				<path class="st0" d="M318.3,95c0,1.2-1,2.2-2.2,2.2c-1.2,0-2.2-1-2.2-2.2H318.3z"/>
			</g>
			<g id="people_copy_13-6_1_">
				<rect x="328.7" y="80.5" class="st0" width="4.3" height="14.5"/>
				<path class="st0" d="M333,95c0,1.2-1,2.2-2.2,2.2c-1.2,0-2.2-1-2.2-2.2H333z"/>
				<rect x="334" y="81.5" class="st0" width="4.3" height="13.5"/>
				<circle class="st0" cx="333.4" cy="55.8" r="4.2"/>
				<path class="st1" d="M341.5,58.6"/>
				<path class="st0" d="M326,79c-0.7,0.3-1.4,0.3-2.1,0c0,0-0.7-14.6,5.8-18c2.6-0.6,5.3-0.6,7.9,0c0,0,5.6,2.2,5.3,17.6
					c-0.7,0.3-1.6,0.3-2.3,0c0,0-0.6-10.9-1.6-12.1s-0.7,15.4-0.7,15.4l-9.6,0.1l-0.5-15.5C328.2,66.5,327,66.5,326,79z"/>
				<path class="st0" d="M337.3,61.1c0,0,5.6,2.2,5.3,17.5c-0.7,0.3-1.6,0.3-2.3,0c0,0-0.6-10.9-1.6-12.1S334.7,60.6,337.3,61.1z"/>
				<path class="st0" d="M338.3,95c0,1.2-1,2.2-2.2,2.2c-1.2,0-2.2-1-2.2-2.2H338.3z"/>
			</g>
			<g id="people_copy_13-7_1_">
				<rect x="350.7" y="80.5" class="st0" width="4.3" height="14.5"/>
				<path class="st0" d="M355,95c0,1.2-1,2.2-2.2,2.2s-2.2-1-2.2-2.2c0,0,0,0,0,0H355z"/>
				<rect x="356" y="81.5" class="st0" width="4.3" height="13.5"/>
				<circle class="st0" cx="355.4" cy="55.8" r="4.2"/>
				<path class="st1" d="M363.5,58.6"/>
				<path class="st0" d="M348,79c-0.7,0.3-1.4,0.3-2.1,0c0,0-0.7-14.6,5.8-18c2.6-0.6,5.3-0.6,7.9,0c0,0,5.6,2.2,5.3,17.6
					c-0.7,0.3-1.6,0.3-2.3,0c0,0-0.6-10.9-1.6-12.1s-0.7,15.4-0.7,15.4l-9.6,0.1l-0.5-15.5C350.2,66.5,349,66.5,348,79z"/>
				<path class="st0" d="M359.3,61.1c0,0,5.6,2.2,5.3,17.5c-0.7,0.3-1.6,0.3-2.3,0c0,0-0.6-10.9-1.6-12.1S356.7,60.6,359.3,61.1z"/>
				<path class="st0" d="M360.3,95c0,1.2-1,2.2-2.2,2.2s-2.2-1-2.2-2.2c0,0,0,0,0,0H360.3z"/>
			</g>
			<g id="people_copy_13-8_1_">
				<rect x="372.7" y="80.5" class="st0" width="4.3" height="14.5"/>
				<path class="st0" d="M377,95c0,1.2-1,2.2-2.2,2.2s-2.2-1-2.2-2.2c0,0,0,0,0,0H377z"/>
				<rect x="378" y="81.5" class="st0" width="4.3" height="13.5"/>
				<circle class="st0" cx="377.4" cy="55.8" r="4.2"/>
				<path class="st1" d="M385.5,58.6"/>
				<path class="st0" d="M370,79c-0.7,0.3-1.4,0.3-2.1,0c0,0-0.7-14.6,5.8-18c2.6-0.6,5.3-0.6,7.9,0c0,0,5.6,2.2,5.3,17.6
					c-0.7,0.3-1.6,0.3-2.3,0c0,0-0.6-10.9-1.6-12.1s-0.7,15.4-0.7,15.4l-9.6,0.1l-0.5-15.5C372.2,66.5,371,66.5,370,79z"/>
				<path class="st0" d="M381.3,61.1c0,0,5.6,2.2,5.3,17.5c-0.7,0.3-1.6,0.3-2.3,0c0,0-0.6-10.9-1.6-12.1S378.7,60.6,381.3,61.1z"/>
				<path class="st0" d="M382.3,95c0,1.2-1,2.2-2.2,2.2s-2.2-1-2.2-2.2c0,0,0,0,0,0H382.3z"/>
			</g>
			<g id="people_copy_13-9_1_">
				<rect x="394.7" y="80.5" class="st0" width="4.3" height="14.5"/>
				<path class="st0" d="M399,95c0,1.2-1,2.2-2.2,2.2s-2.2-1-2.2-2.2c0,0,0,0,0,0H399z"/>
				<rect x="400" y="81.5" class="st0" width="4.3" height="13.5"/>
				<circle class="st0" cx="399.4" cy="55.8" r="4.2"/>
				<path class="st1" d="M407.5,58.6"/>
				<path class="st0" d="M392,79c-0.7,0.3-1.4,0.3-2.1,0c0,0-0.7-14.6,5.8-18c2.6-0.6,5.3-0.6,7.9,0c0,0,5.6,2.2,5.3,17.6
					c-0.7,0.3-1.6,0.3-2.3,0c0,0-0.6-10.9-1.6-12.1s-0.7,15.4-0.7,15.4l-9.6,0.1l-0.5-15.5C394.2,66.5,393,66.5,392,79z"/>
				<path class="st0" d="M403.3,61.1c0,0,5.6,2.2,5.3,17.5c-0.7,0.3-1.6,0.3-2.3,0c0,0-0.6-10.9-1.6-12.1S400.7,60.6,403.3,61.1z"/>
				<path class="st0" d="M404.3,95c0,1.2-1,2.2-2.2,2.2s-2.2-1-2.2-2.2c0,0,0,0,0,0H404.3z"/>
			</g>
			<g id="people_copy_13-10_1_">
				<rect x="416.7" y="80.5" class="st0" width="4.3" height="14.5"/>
				<path class="st0" d="M421,95c0,1.2-1,2.2-2.2,2.2s-2.2-1-2.2-2.2c0,0,0,0,0,0H421z"/>
				<rect x="422" y="81.5" class="st0" width="4.3" height="13.5"/>
				<circle class="st0" cx="421.4" cy="55.8" r="4.2"/>
				<path class="st1" d="M429.5,58.6"/>
				<path class="st0" d="M414,79c-0.7,0.3-1.4,0.3-2.1,0c0,0-0.7-14.6,5.8-18c2.6-0.6,5.3-0.6,7.9,0c0,0,5.6,2.2,5.3,17.6
					c-0.7,0.3-1.6,0.3-2.3,0c0,0-0.6-10.9-1.6-12.1s-0.7,15.4-0.7,15.4l-9.6,0.1l-0.5-15.5C416.2,66.5,415,66.5,414,79z"/>
				<path class="st0" d="M425.3,61.1c0,0,5.6,2.2,5.3,17.5c-0.7,0.3-1.6,0.3-2.3,0c0,0-0.6-10.9-1.6-12.1S422.7,60.6,425.3,61.1z"/>
				<path class="st0" d="M426.3,95c0,1.2-1,2.2-2.2,2.2s-2.2-1-2.2-2.2c0,0,0,0,0,0H426.3z"/>
			</g>
		</g>
		<g id="people_copy_14_1_">
			<rect x="200.8" y="80.5" class="st0" width="4.3" height="14.5"/>
			<path class="st0" d="M205.2,95c0,1.2-1,2.2-2.2,2.2c-1.2,0-2.2-1-2.2-2.2c0,0,0,0,0,0H205.2z"/>
			<rect x="206.2" y="81.5" class="st0" width="4.3" height="13.5"/>
			<circle class="st0" cx="205.5" cy="55.8" r="4.2"/>
			<path class="st1" d="M213.7,58.6"/>
			<path class="st0" d="M198.2,79c-0.7,0.3-1.4,0.3-2.1,0c0,0-0.7-14.6,5.8-18c2.6-0.6,5.3-0.6,7.9,0c0,0,5.6,2.2,5.3,17.5
				c-0.7,0.3-1.6,0.3-2.3,0c0,0-0.6-10.9-1.6-12.1c-1-1.2-0.7,15.4-0.7,15.4l-9.6,0.1l-0.5-15.5C200.3,66.5,199.2,66.5,198.2,79z"/>
			<path class="st0" d="M209.5,61.1c0,0,5.6,2.2,5.3,17.5c-0.7,0.3-1.6,0.3-2.3,0c0,0-0.6-10.9-1.6-12.1
				C209.9,65.3,206.8,60.6,209.5,61.1z"/>
			<path class="st0" d="M210.5,95c0,1.2-1,2.2-2.2,2.2c-1.2,0-2.2-1-2.2-2.2c0,0,0,0,0,0H210.5z"/>
		</g>
		<g id="Layer_21_copy_3_1_">
			<g id="people_copy_15_1_">
				<rect x="5.8" y="80.5" class="st0" width="4.3" height="14.5"/>
				<path class="st0" d="M10.2,95c-0.1,1.2-1,2.1-2.2,2.2c-1.2-0.1-2.1-1-2.2-2.2H10.2z"/>
				<rect x="11.2" y="81.5" class="st0" width="4.3" height="13.5"/>
				<circle class="st0" cx="10.5" cy="55.8" r="4.2"/>
				<path class="st1" d="M18.7,58.6"/>
				<path class="st0" d="M3.2,79c-0.7,0.3-1.4,0.3-2.1,0c0,0-0.7-14.6,5.8-18c2.6-0.6,5.3-0.6,7.9,0c0,0,5.6,2.1,5.3,17.5
					c-0.7,0.3-1.6,0.3-2.3,0c0,0-0.6-10.9-1.6-12.1s-0.7,15.4-0.7,15.4l-9.6,0.1L5.3,66.5C5.3,66.5,4.2,66.5,3.2,79z"/>
				<path class="st0" d="M14.5,61.1c0,0,5.6,2.2,5.3,17.5c-0.7,0.3-1.6,0.3-2.3,0c0,0-0.6-10.9-1.6-12.1
					C14.9,65.3,11.8,60.6,14.5,61.1z"/>
				<path class="st0" d="M15.5,95c-0.1,1.2-1,2.1-2.2,2.2c-1.2-0.1-2.1-1-2.2-2.2H15.5z"/>
			</g>
			<g id="people_copy_15-2_1_">
				<rect x="26.8" y="80.5" class="st0" width="4.3" height="14.5"/>
				<path class="st0" d="M31.2,95c-0.1,1.2-1,2.1-2.2,2.2c-1.2-0.1-2.1-1-2.2-2.2H31.2z"/>
				<rect x="32.2" y="81.5" class="st0" width="4.3" height="13.5"/>
				<circle class="st0" cx="31.5" cy="55.8" r="4.2"/>
				<path class="st1" d="M39.7,58.6"/>
				<path class="st0" d="M24.2,79c-0.7,0.3-1.4,0.3-2.1,0c0,0-0.7-14.6,5.8-18c2.6-0.6,5.3-0.6,7.9,0c0,0,5.6,2.1,5.3,17.5
					c-0.7,0.3-1.6,0.3-2.3,0c0,0-0.6-10.9-1.6-12.1s-0.7,15.4-0.7,15.4l-9.6,0.1l-0.5-15.5C26.3,66.5,25.2,66.5,24.2,79z"/>
				<path class="st0" d="M35.5,61.1c0,0,5.6,2.2,5.3,17.5c-0.7,0.3-1.6,0.3-2.3,0c0,0-0.6-10.9-1.6-12.1
					C35.9,65.3,32.8,60.6,35.5,61.1z"/>
				<path class="st0" d="M36.5,95c0,1.2-1,2.2-2.2,2.2c-1.2,0-2.2-1-2.2-2.2c0,0,0,0,0,0H36.5z"/>
			</g>
			<g id="people_copy_15-3_1_">
				<rect x="48.8" y="80.5" class="st0" width="4.3" height="14.5"/>
				<path class="st0" d="M53.2,95c0,1.2-1,2.2-2.2,2.2c-1.2,0-2.2-1-2.2-2.2c0,0,0,0,0,0H53.2z"/>
				<rect x="54.2" y="81.5" class="st0" width="4.3" height="13.5"/>
				<circle class="st0" cx="53.5" cy="55.8" r="4.2"/>
				<path class="st1" d="M61.7,58.6"/>
				<path class="st0" d="M46.2,79c-0.7,0.3-1.4,0.3-2.1,0c0,0-0.7-14.6,5.8-18c2.6-0.6,5.3-0.6,7.9,0c0,0,5.6,2.1,5.3,17.5
					c-0.7,0.3-1.6,0.3-2.3,0c0,0-0.6-10.9-1.6-12.1s-0.7,15.4-0.7,15.4l-9.6,0.1l-0.5-15.5C48.3,66.5,47.2,66.5,46.2,79z"/>
				<path class="st0" d="M57.5,61.1c0,0,5.6,2.2,5.3,17.5c-0.7,0.3-1.6,0.3-2.3,0c0,0-0.6-10.9-1.6-12.1
					C57.9,65.3,54.8,60.6,57.5,61.1z"/>
				<path class="st0" d="M58.5,95c0,1.2-1,2.2-2.2,2.2c-1.2,0-2.2-1-2.2-2.2c0,0,0,0,0,0H58.5z"/>
			</g>
			<g id="people_copy_15-4_1_">
				<rect x="70.8" y="80.5" class="st0" width="4.3" height="14.5"/>
				<path class="st0" d="M75.2,95c0,1.2-1,2.2-2.2,2.2c-1.2,0-2.2-1-2.2-2.2H75.2z"/>
				<rect x="76.2" y="81.5" class="st0" width="4.3" height="13.5"/>
				<circle class="st0" cx="75.5" cy="55.8" r="4.2"/>
				<path class="st1" d="M83.7,58.6"/>
				<path class="st0" d="M68.2,79c-0.7,0.3-1.4,0.3-2.1,0c0,0-0.7-14.6,5.8-18c2.6-0.6,5.3-0.6,7.9,0c0,0,5.6,2.1,5.3,17.5
					c-0.7,0.3-1.6,0.3-2.3,0c0,0-0.6-10.9-1.6-12.1s-0.7,15.4-0.7,15.4l-9.6,0.1l-0.5-15.5C70.3,66.5,69.2,66.5,68.2,79z"/>
				<path class="st0" d="M79.5,61.1c0,0,5.6,2.2,5.3,17.5c-0.7,0.3-1.6,0.3-2.3,0c0,0-0.6-10.9-1.6-12.1
					C79.9,65.3,76.8,60.6,79.5,61.1z"/>
				<path class="st0" d="M80.5,95c0,1.2-1,2.2-2.2,2.2c-1.2,0-2.2-1-2.2-2.2H80.5z"/>
			</g>
			<g id="people_copy_15-5_1_">
				<rect x="92.8" y="80.5" class="st0" width="4.3" height="14.5"/>
				<path class="st0" d="M97.2,95c0,1.2-1,2.2-2.2,2.2c-1.2,0-2.2-1-2.2-2.2H97.2z"/>
				<rect x="98.2" y="81.5" class="st0" width="4.3" height="13.5"/>
				<circle class="st0" cx="97.5" cy="55.8" r="4.2"/>
				<path class="st1" d="M105.7,58.6"/>
				<path class="st0" d="M90.2,79c-0.7,0.3-1.4,0.3-2.1,0c0,0-0.7-14.6,5.8-18c2.6-0.6,5.3-0.6,7.9,0c0,0,5.6,2.2,5.3,17.5
					c-0.7,0.3-1.6,0.3-2.3,0c0,0-0.6-10.9-1.6-12.1c-1-1.2-0.7,15.4-0.7,15.4L92.9,82l-0.5-15.5C92.3,66.5,91.2,66.5,90.2,79z"/>
				<path class="st0" d="M101.5,61.1c0,0,5.6,2.2,5.3,17.5c-0.7,0.3-1.6,0.3-2.3,0c0,0-0.6-10.9-1.6-12.1
					C101.9,65.3,98.8,60.6,101.5,61.1z"/>
				<path class="st0" d="M102.5,95c0,1.2-1,2.2-2.2,2.2c-1.2,0-2.2-1-2.2-2.2H102.5z"/>
			</g>
			<g id="people_copy_15-6_1_">
				<rect x="112.8" y="80.5" class="st0" width="4.3" height="14.5"/>
				<path class="st0" d="M117.2,95c0,1.2-1,2.2-2.2,2.2c-1.2,0-2.2-1-2.2-2.2H117.2z"/>
				<rect x="118.2" y="81.5" class="st0" width="4.3" height="13.5"/>
				<circle class="st0" cx="117.5" cy="55.8" r="4.2"/>
				<path class="st1" d="M125.7,58.6"/>
				<path class="st0" d="M110.2,79c-0.7,0.3-1.4,0.3-2.1,0c0,0-0.7-14.6,5.8-18c2.6-0.6,5.3-0.6,7.9,0c0,0,5.6,2.2,5.3,17.5
					c-0.7,0.3-1.6,0.3-2.3,0c0,0-0.6-10.9-1.6-12.1c-1-1.2-0.7,15.4-0.7,15.4l-9.6,0.1l-0.5-15.5C112.3,66.5,111.2,66.5,110.2,79z"
					/>
				<path class="st0" d="M121.5,61.1c0,0,5.6,2.2,5.3,17.5c-0.7,0.3-1.6,0.3-2.3,0c0,0-0.6-10.9-1.6-12.1
					C121.9,65.3,118.8,60.6,121.5,61.1z"/>
				<path class="st0" d="M122.5,95c0,1.2-1,2.2-2.2,2.2c-1.2,0-2.2-1-2.2-2.2H122.5z"/>
			</g>
			<g id="people_copy_15-7_1_">
				<rect x="134.8" y="80.5" class="st0" width="4.3" height="14.5"/>
				<path class="st0" d="M139.2,95c0,1.2-1,2.2-2.2,2.2c-1.2,0-2.2-1-2.2-2.2c0,0,0,0,0,0H139.2z"/>
				<rect x="140.2" y="81.5" class="st0" width="4.3" height="13.5"/>
				<circle class="st0" cx="139.5" cy="55.8" r="4.2"/>
				<path class="st1" d="M147.7,58.6"/>
				<path class="st0" d="M132.2,79c-0.7,0.3-1.4,0.3-2.1,0c0,0-0.7-14.6,5.8-18c2.6-0.6,5.3-0.6,7.9,0c0,0,5.6,2.2,5.3,17.5
					c-0.7,0.3-1.6,0.3-2.3,0c0,0-0.6-10.9-1.6-12.1c-1-1.2-0.7,15.4-0.7,15.4l-9.6,0.1l-0.5-15.5C134.3,66.5,133.2,66.5,132.2,79z"
					/>
				<path class="st0" d="M143.5,61.1c0,0,5.6,2.2,5.3,17.5c-0.7,0.3-1.6,0.3-2.3,0c0,0-0.6-10.9-1.6-12.1
					C143.9,65.3,140.8,60.6,143.5,61.1z"/>
				<path class="st0" d="M144.5,95c0,1.2-1,2.2-2.2,2.2c-1.2,0-2.2-1-2.2-2.2c0,0,0,0,0,0H144.5z"/>
			</g>
			<g id="people_copy_15-8_1_">
				<rect x="156.8" y="80.5" class="st0" width="4.3" height="14.5"/>
				<path class="st0" d="M161.2,95c0,1.2-1,2.2-2.2,2.2c-1.2,0-2.2-1-2.2-2.2c0,0,0,0,0,0H161.2z"/>
				<rect x="162.2" y="81.5" class="st0" width="4.3" height="13.5"/>
				<circle class="st0" cx="161.5" cy="55.8" r="4.2"/>
				<path class="st1" d="M169.7,58.6"/>
				<path class="st0" d="M154.2,79c-0.7,0.3-1.4,0.3-2.1,0c0,0-0.7-14.6,5.8-18c2.6-0.6,5.3-0.6,7.9,0c0,0,5.6,2.2,5.3,17.5
					c-0.7,0.3-1.6,0.3-2.3,0c0,0-0.6-10.9-1.6-12.1c-1-1.2-0.7,15.4-0.7,15.4l-9.6,0.1l-0.5-15.5C156.3,66.5,155.2,66.5,154.2,79z"
					/>
				<path class="st0" d="M165.5,61.1c0,0,5.6,2.2,5.3,17.5c-0.7,0.3-1.6,0.3-2.3,0c0,0-0.6-10.9-1.6-12.1
					C165.9,65.3,162.8,60.6,165.5,61.1z"/>
				<path class="st0" d="M166.5,95c0,1.2-1,2.2-2.2,2.2c-1.2,0-2.2-1-2.2-2.2c0,0,0,0,0,0H166.5z"/>
			</g>
			<g id="people_copy_15-9_1_">
				<rect x="178.8" y="80.5" class="st0" width="4.3" height="14.5"/>
				<path class="st0" d="M183.2,95c0,1.2-1,2.2-2.2,2.2c-1.2,0-2.2-1-2.2-2.2c0,0,0,0,0,0H183.2z"/>
				<rect x="184.2" y="81.5" class="st0" width="4.3" height="13.5"/>
				<circle class="st0" cx="183.5" cy="55.8" r="4.2"/>
				<path class="st1" d="M191.7,58.6"/>
				<path class="st0" d="M176.2,79c-0.7,0.3-1.4,0.3-2.1,0c0,0-0.7-14.6,5.8-18c2.6-0.6,5.3-0.6,7.9,0c0,0,5.6,2.2,5.3,17.5
					c-0.7,0.3-1.6,0.3-2.3,0c0,0-0.6-10.9-1.6-12.1c-1-1.2-0.7,15.4-0.7,15.4l-9.6,0.1l-0.5-15.5C178.3,66.5,177.2,66.5,176.2,79z"
					/>
				<path class="st0" d="M187.5,61.1c0,0,5.6,2.2,5.3,17.5c-0.7,0.3-1.6,0.3-2.3,0c0,0-0.6-10.9-1.6-12.1
					C187.9,65.3,184.8,60.6,187.5,61.1z"/>
				<path class="st0" d="M188.5,95c0,1.2-1,2.2-2.2,2.2c-1.2,0-2.2-1-2.2-2.2c0,0,0,0,0,0H188.5z"/>
			</g>
			<g id="people_copy_15-10_1_">
				<rect x="200.8" y="80.5" class="st0" width="4.3" height="14.5"/>
				<path class="st0" d="M205.2,95c0,1.2-1,2.2-2.2,2.2c-1.2,0-2.2-1-2.2-2.2c0,0,0,0,0,0H205.2z"/>
				<rect x="206.2" y="81.5" class="st0" width="4.3" height="13.5"/>
				<circle class="st0" cx="205.5" cy="55.8" r="4.2"/>
				<path class="st1" d="M213.7,58.6"/>
				<path class="st0" d="M198.2,79c-0.7,0.3-1.4,0.3-2.1,0c0,0-0.7-14.6,5.8-18c2.6-0.6,5.3-0.6,7.9,0c0,0,5.6,2.2,5.3,17.5
					c-0.7,0.3-1.6,0.3-2.3,0c0,0-0.6-10.9-1.6-12.1c-1-1.2-0.7,15.4-0.7,15.4l-9.6,0.1l-0.5-15.5C200.3,66.5,199.2,66.5,198.2,79z"
					/>
				<path class="st0" d="M209.5,61.1c0,0,5.6,2.2,5.3,17.5c-0.7,0.3-1.6,0.3-2.3,0c0,0-0.6-10.9-1.6-12.1
					C209.9,65.3,206.8,60.6,209.5,61.1z"/>
				<path class="st0" d="M210.5,95c0,1.2-1,2.2-2.2,2.2c-1.2,0-2.2-1-2.2-2.2c0,0,0,0,0,0H210.5z"/>
			</g>
		</g>
	</g>
</g>
</svg>
