<svg xmlns="http://www.w3.org/2000/svg" viewBox="0 0 98 87"><defs><style>.cls-1,.cls-3{fill:none;stroke-miterlimit:10;}.cls-1{stroke:#d41111;stroke-width:2px;}.cls-2{fill:#111;}.cls-3{stroke:#111;}.cls-4{fill:#d41111;}</style></defs><title>Asset 15</title><g id="Layer_2" data-name="Layer 2"><g id="Layer_20" data-name="Layer 20"><g id="Layer_15" data-name="Layer 15"><rect class="cls-1" x="14" y="50.5" width="40" height="18"/><line class="cls-2" x1="2" y1="13.5" x2="94" y2="13.5"/><path class="cls-3" d="M2.5,25.5"/><path class="cls-4" d="M98,12H0V22.32c0,9.58,11.72,9.58,11.72,0,0,9.58,12.78,9.58,12.78,0,0,9.58,11.72,9.58,11.72,0,0,9.58,12.78,9.58,12.78,0,0,9.58,12.78,9.58,12.78,0,0,9.58,12.78,9.58,12.78,0,0,9.58,11.18,9.58,11.18,0C86.1,32.1,98.35,31.79,98,22V12.45"/><rect class="cls-1" x="1.5" y="1" width="95" height="8"/><rect class="cls-1" x="61" y="50.5" width="22" height="35"/></g></g><g id="Layer_16" data-name="Layer 16"><rect class="cls-1" x="2.5" y="14" width="92" height="72"/></g></g></svg>