<?xml version="1.0" encoding="utf-8"?>
<!-- Generator: Adobe Illustrator 21.1.0, SVG Export Plug-In . SVG Version: 6.00 Build 0)  -->
<svg version="1.1" id="Layer_1" xmlns="http://www.w3.org/2000/svg" xmlns:xlink="http://www.w3.org/1999/xlink" x="0px" y="0px"
	 viewBox="0 0 180.3 195.1" style="enable-background:new 0 0 180.3 195.1;" xml:space="preserve">
<style type="text/css">
	.st0{fill:none;stroke:#3E3D3D;stroke-width:2.5;stroke-miterlimit:10;}
</style>
<title>Asset 1</title>
<g id="Layer_2">
	<g id="room">
		<g id="Layer_3">
			<g id="Layer_2-2">
				<polygon class="st0" points="90.4,193.6 177.1,142 90.4,92.5 2.5,143.1 				"/>
			</g>
			<polygon class="st0" points="179.1,139.2 179.1,51.2 91.8,2.2 92.4,89.7 			"/>
			<polygon class="st0" points="1.5,139.7 1.5,51.7 88.2,2.2 87.9,90.3 			"/>
			<polygon class="st0" points="41.2,84 41.2,52.1 72.7,33.7 72.7,65.3 			"/>
		</g>
		<g id="Layer_3_copy">
			<g id="Layer_2_copy">
				<polygon class="st0" points="90.4,193.6 177.1,142 90.4,92.5 2.5,143.1 				"/>
			</g>
			<polygon class="st0" points="179.1,139.2 179.1,51.2 91.8,2.2 92.4,89.7 			"/>
			<polygon class="st0" points="1.5,139.7 1.5,51.7 88.2,2.2 87.9,90.3 			"/>
		</g>
		<g id="Layer_4">
			<polyline id="door" class="st0" points="100,93.2 101.9,29.9 131.7,46.9 130.2,110.4 			"/>
		</g>
	</g>
</g>
</svg>
