<svg xmlns="http://www.w3.org/2000/svg" viewBox="0 0 180.32 195.06"><defs><style>.cls-1{fill:none;stroke:#3e3d3d;stroke-miterlimit:10;stroke-width:2.5px;}</style></defs><title>Asset 1</title><g id="Layer_2" data-name="Layer 2"><g id="room"><g id="Layer_3" data-name="Layer 3"><g id="Layer_2-2" data-name="Layer 2"><polygon class="cls-1" points="90.38 193.61 177.06 141.97 90.38 92.51 2.51 143.06 90.38 193.61"/></g><polygon class="cls-1" points="179.07 139.18 179.07 51.23 91.79 2.15 92.38 89.72 179.07 139.18"/><polygon class="cls-1" points="1.51 139.66 1.51 51.72 88.18 2.24 87.92 90.35 1.51 139.66"/><polygon class="cls-1" points="41.15 86.03 41.15 54.15 72.7 35.74 72.7 67.29 41.15 86.03"/></g><g id="Layer_3_copy" data-name="Layer 3 copy"><g id="Layer_2_copy" data-name="Layer 2 copy"><polygon class="cls-1" points="90.38 193.61 177.06 141.97 90.38 92.51 2.51 143.06 90.38 193.61"/></g><polygon class="cls-1" points="179.07 139.18 179.07 51.23 91.79 2.15 92.38 89.72 179.07 139.18"/><polygon class="cls-1" points="1.51 139.66 1.51 51.72 88.18 2.24 87.92 90.35 1.51 139.66"/></g><g id="Layer_4" data-name="Layer 4"><polyline id="door" class="cls-1" points="99.98 93.16 101.94 29.94 131.69 46.89 130.21 110.41"/></g></g></g></svg>