<svg xmlns="http://www.w3.org/2000/svg" viewBox="0 0 27.53 65.63"><defs><style>.cls-1,.cls-2,.cls-4{fill:#3e3d3d;}.cls-1{stroke:#fcfafa;}.cls-1,.cls-10,.cls-4,.cls-5,.cls-7,.cls-8,.cls-9{stroke-miterlimit:10;}.cls-1,.cls-10,.cls-4,.cls-9{stroke-width:0.25px;}.cls-3{fill:#fff;}.cls-4{stroke:#f9f2f2;}.cls-5{fill:#f9f4f4;}.cls-10,.cls-5,.cls-7,.cls-8,.cls-9{stroke:#d53d3d;}.cls-5,.cls-8{stroke-width:0.75px;}.cls-6{fill:#d53d3d;}.cls-10,.cls-7,.cls-8{fill:none;}.cls-7{stroke-width:0.5px;}.cls-9{fill:#efe4e4;}</style></defs><title>Asset 4</title><g id="Layer_2" data-name="Layer 2"><g id="social_worker" data-name="social worker"><rect class="cls-1" x="6.99" y="46.17" width="6.25" height="16.27"/><path class="cls-2" d="M13.11,62.82a2.9,2.9,0,0,1-3,2.8,2.9,2.9,0,0,1-3-2.8Z"/><rect class="cls-1" x="14.93" y="46.17" width="6.25" height="16.27"/><path class="cls-2" d="M21.17,62.82a3,3,0,0,1-3.12,2.8,3,3,0,0,1-3.12-2.8Z"/><circle class="cls-2" cx="13.77" cy="6.02" r="6.02"/><path class="cls-3" d="M25.45,10.07"/><path class="cls-4" d="M3.15,39.44a3.73,3.73,0,0,1-3,0s-1-21,8.27-26a27.21,27.21,0,0,1,11.38,0s8,3.14,7.59,25.24a4,4,0,0,1-3.28,0S23.26,23,21.83,21.33,24,45,24,45s-9,6.56-20.25,0L6.29,21.33S4.58,21.33,3.15,39.44Z"/><g id="clipboard"><rect class="cls-5" x="15.52" y="27" width="9.72" height="11.65" rx="1" ry="1"/><rect class="cls-6" x="17.36" y="30.51" width="6.05" height="0.85" rx="0.43" ry="0.43"/><rect class="cls-6" x="17.36" y="32.56" width="6.05" height="0.85" rx="0.43" ry="0.43"/><rect class="cls-6" x="17.36" y="34.43" width="6.05" height="0.85" rx="0.43" ry="0.43"/><rect class="cls-7" x="18.15" y="26.23" width="4.67" height="2.75" rx="1" ry="1"/><path class="cls-8" d="M20.16,23.26"/><path class="cls-9" d="M21.89,26.06h-3a1.53,1.53,0,0,1,1.47-1.55A1.54,1.54,0,0,1,21.89,26.06Z"/><path class="cls-7" d="M21,26H19.84c0-.27.26-.7.56-.7S21,25.75,21,26Z"/><path class="cls-10" d="M20.93,26.09"/></g><path class="cls-2" d="M19.39,13.65s8,3.14,7.59,25.24a4,4,0,0,1-3.28,0s-.86-15.69-2.28-17.4S15.62,12.84,19.39,13.65Z"/></g></g></svg>